<?xml version="1.0" encoding="UTF-8" standalone="no"?><svg xmlns="http://www.w3.org/2000/svg" xmlns:xlink="http://www.w3.org/1999/xlink" contentStyleType="text/css" height="503px" preserveAspectRatio="none" style="width:700px;height:503px;background:#FFFFFF;" version="1.1" viewBox="0 0 700 503" width="700px" zoomAndPan="magnify"><defs/><g><rect fill="#F1F1F1" height="40.9766" rx="5" ry="5" style="stroke:#F1F1F1;stroke-width:1.5;" width="73" x="10" y="221.5"/><text fill="#000000" font-family="sans-serif" font-size="14" font-weight="bold" lengthAdjust="spacing" textLength="41" x="15" y="237.0352">lastid</text><text fill="#000000" font-family="sans-serif" font-size="14" lengthAdjust="spacing" textLength="9" x="66" y="237.0352">5</text><line style="stroke:#000000;stroke-width:1.0;" x1="61" x2="61" y1="221.5" y2="241.9883"/><line style="stroke:#000000;stroke-width:1.0;" x1="10" x2="83" y1="241.9883" y2="241.9883"/><text fill="#000000" font-family="sans-serif" font-size="14" font-weight="bold" lengthAdjust="spacing" textLength="31" x="15" y="257.5234">logs</text><text fill="#000000" font-family="sans-serif" font-size="14" lengthAdjust="spacing" textLength="12" x="66" y="257.5234">   </text><line style="stroke:#000000;stroke-width:1.0;" x1="61" x2="61" y1="241.9883" y2="262.4766"/><rect fill="none" height="40.9766" rx="5" ry="5" style="stroke:#000000;stroke-width:1.5;" width="73" x="10" y="221.5"/><rect fill="#F1F1F1" height="102.4414" rx="5" ry="5" style="stroke:#F1F1F1;stroke-width:1.5;" width="22" x="120" y="201"/><text fill="#000000" font-family="sans-serif" font-size="14" lengthAdjust="spacing" textLength="12" x="125" y="216.5352">   </text><line style="stroke:#000000;stroke-width:1.0;" x1="120" x2="142" y1="221.4883" y2="221.4883"/><text fill="#000000" font-family="sans-serif" font-size="14" lengthAdjust="spacing" textLength="12" x="125" y="237.0234">   </text><line style="stroke:#000000;stroke-width:1.0;" x1="120" x2="142" y1="241.9766" y2="241.9766"/><text fill="#000000" font-family="sans-serif" font-size="14" lengthAdjust="spacing" textLength="12" x="125" y="257.5117">   </text><line style="stroke:#000000;stroke-width:1.0;" x1="120" x2="142" y1="262.4648" y2="262.4648"/><text fill="#000000" font-family="sans-serif" font-size="14" lengthAdjust="spacing" textLength="12" x="125" y="278">   </text><line style="stroke:#000000;stroke-width:1.0;" x1="120" x2="142" y1="282.9531" y2="282.9531"/><text fill="#000000" font-family="sans-serif" font-size="14" lengthAdjust="spacing" textLength="12" x="125" y="298.4883">   </text><rect fill="none" height="102.4414" rx="5" ry="5" style="stroke:#000000;stroke-width:1.5;" width="22" x="120" y="201"/><rect fill="#F1F1F1" height="81.9531" rx="5" ry="5" style="stroke:#F1F1F1;stroke-width:1.5;" width="297" x="286" y="10"/><text fill="#000000" font-family="sans-serif" font-size="14" font-weight="bold" lengthAdjust="spacing" textLength="39" x="291" y="25.5352">name</text><text fill="#000000" font-family="sans-serif" font-size="14" lengthAdjust="spacing" textLength="42" x="340" y="25.5352">名無し</text><line style="stroke:#000000;stroke-width:1.0;" x1="335" x2="335" y1="10" y2="30.4883"/><line style="stroke:#000000;stroke-width:1.0;" x1="286" x2="583" y1="30.4883" y2="30.4883"/><text fill="#000000" font-family="sans-serif" font-size="14" font-weight="bold" lengthAdjust="spacing" textLength="31" x="291" y="46.0234">msg</text><text fill="#000000" font-family="sans-serif" font-size="14" lengthAdjust="spacing" textLength="238" x="340" y="46.0234">けちな人の食物を食べてはならない。</text><line style="stroke:#000000;stroke-width:1.0;" x1="335" x2="335" y1="30.4883" y2="50.9766"/><line style="stroke:#000000;stroke-width:1.0;" x1="286" x2="583" y1="50.9766" y2="50.9766"/><text fill="#000000" font-family="sans-serif" font-size="14" font-weight="bold" lengthAdjust="spacing" textLength="33" x="291" y="66.5117">time</text><text fill="#000000" font-family="sans-serif" font-size="14" lengthAdjust="spacing" textLength="148" x="340" y="66.5117">1658222142.568376</text><line style="stroke:#000000;stroke-width:1.0;" x1="335" x2="335" y1="50.9766" y2="71.4648"/><line style="stroke:#000000;stroke-width:1.0;" x1="286" x2="583" y1="71.4648" y2="71.4648"/><text fill="#000000" font-family="sans-serif" font-size="14" font-weight="bold" lengthAdjust="spacing" textLength="14" x="291" y="87">id</text><text fill="#000000" font-family="sans-serif" font-size="14" lengthAdjust="spacing" textLength="9" x="340" y="87">1</text><line style="stroke:#000000;stroke-width:1.0;" x1="335" x2="335" y1="71.4648" y2="91.9531"/><rect fill="none" height="81.9531" rx="5" ry="5" style="stroke:#000000;stroke-width:1.5;" width="297" x="286" y="10"/><rect fill="#F1F1F1" height="81.9531" rx="5" ry="5" style="stroke:#F1F1F1;stroke-width:1.5;" width="451" x="209" y="110"/><text fill="#000000" font-family="sans-serif" font-size="14" font-weight="bold" lengthAdjust="spacing" textLength="39" x="214" y="125.5352">name</text><text fill="#000000" font-family="sans-serif" font-size="14" lengthAdjust="spacing" textLength="42" x="263" y="125.5352">名無し</text><line style="stroke:#000000;stroke-width:1.0;" x1="258" x2="258" y1="110" y2="130.4883"/><line style="stroke:#000000;stroke-width:1.0;" x1="209" x2="660" y1="130.4883" y2="130.4883"/><text fill="#000000" font-family="sans-serif" font-size="14" font-weight="bold" lengthAdjust="spacing" textLength="31" x="214" y="146.0234">msg</text><text fill="#000000" font-family="sans-serif" font-size="14" lengthAdjust="spacing" textLength="392" x="263" y="146.0234">穏やかな舌は命の木であり，悪意ある言葉は人を落胆させる。</text><line style="stroke:#000000;stroke-width:1.0;" x1="258" x2="258" y1="130.4883" y2="150.9766"/><line style="stroke:#000000;stroke-width:1.0;" x1="209" x2="660" y1="150.9766" y2="150.9766"/><text fill="#000000" font-family="sans-serif" font-size="14" font-weight="bold" lengthAdjust="spacing" textLength="33" x="214" y="166.5117">time</text><text fill="#000000" font-family="sans-serif" font-size="14" lengthAdjust="spacing" textLength="148" x="263" y="166.5117">1658222392.507776</text><line style="stroke:#000000;stroke-width:1.0;" x1="258" x2="258" y1="150.9766" y2="171.4648"/><line style="stroke:#000000;stroke-width:1.0;" x1="209" x2="660" y1="171.4648" y2="171.4648"/><text fill="#000000" font-family="sans-serif" font-size="14" font-weight="bold" lengthAdjust="spacing" textLength="14" x="214" y="187">id</text><text fill="#000000" font-family="sans-serif" font-size="14" lengthAdjust="spacing" textLength="9" x="263" y="187">2</text><line style="stroke:#000000;stroke-width:1.0;" x1="258" x2="258" y1="171.4648" y2="191.9531"/><rect fill="none" height="81.9531" rx="5" ry="5" style="stroke:#000000;stroke-width:1.5;" width="451" x="209" y="110"/><rect fill="#F1F1F1" height="81.9531" rx="5" ry="5" style="stroke:#F1F1F1;stroke-width:1.5;" width="216" x="326.5" y="210"/><text fill="#000000" font-family="sans-serif" font-size="14" font-weight="bold" lengthAdjust="spacing" textLength="39" x="331.5" y="225.5352">name</text><text fill="#000000" font-family="sans-serif" font-size="14" lengthAdjust="spacing" textLength="42" x="380.5" y="225.5352">クジラ</text><line style="stroke:#000000;stroke-width:1.0;" x1="375.5" x2="375.5" y1="210" y2="230.4883"/><line style="stroke:#000000;stroke-width:1.0;" x1="326.5" x2="542.5" y1="230.4883" y2="230.4883"/><text fill="#000000" font-family="sans-serif" font-size="14" font-weight="bold" lengthAdjust="spacing" textLength="31" x="331.5" y="246.0234">msg</text><text fill="#000000" font-family="sans-serif" font-size="14" lengthAdjust="spacing" textLength="154" x="380.5" y="246.0234">皆さん、お元気ですか？</text><line style="stroke:#000000;stroke-width:1.0;" x1="375.5" x2="375.5" y1="230.4883" y2="250.9766"/><line style="stroke:#000000;stroke-width:1.0;" x1="326.5" x2="542.5" y1="250.9766" y2="250.9766"/><text fill="#000000" font-family="sans-serif" font-size="14" font-weight="bold" lengthAdjust="spacing" textLength="33" x="331.5" y="266.5117">time</text><text fill="#000000" font-family="sans-serif" font-size="14" lengthAdjust="spacing" textLength="157" x="380.5" y="266.5117">1658222414.1906939</text><line style="stroke:#000000;stroke-width:1.0;" x1="375.5" x2="375.5" y1="250.9766" y2="271.4648"/><line style="stroke:#000000;stroke-width:1.0;" x1="326.5" x2="542.5" y1="271.4648" y2="271.4648"/><text fill="#000000" font-family="sans-serif" font-size="14" font-weight="bold" lengthAdjust="spacing" textLength="14" x="331.5" y="287">id</text><text fill="#000000" font-family="sans-serif" font-size="14" lengthAdjust="spacing" textLength="9" x="380.5" y="287">3</text><line style="stroke:#000000;stroke-width:1.0;" x1="375.5" x2="375.5" y1="271.4648" y2="291.9531"/><rect fill="none" height="81.9531" rx="5" ry="5" style="stroke:#000000;stroke-width:1.5;" width="216" x="326.5" y="210"/><rect fill="#F1F1F1" height="81.9531" rx="5" ry="5" style="stroke:#F1F1F1;stroke-width:1.5;" width="493" x="188" y="310"/><text fill="#000000" font-family="sans-serif" font-size="14" font-weight="bold" lengthAdjust="spacing" textLength="39" x="193" y="325.5352">name</text><text fill="#000000" font-family="sans-serif" font-size="14" lengthAdjust="spacing" textLength="42" x="242" y="325.5352">名無し</text><line style="stroke:#000000;stroke-width:1.0;" x1="237" x2="237" y1="310" y2="330.4883"/><line style="stroke:#000000;stroke-width:1.0;" x1="188" x2="681" y1="330.4883" y2="330.4883"/><text fill="#000000" font-family="sans-serif" font-size="14" font-weight="bold" lengthAdjust="spacing" textLength="31" x="193" y="346.0234">msg</text><text fill="#000000" font-family="sans-serif" font-size="14" lengthAdjust="spacing" textLength="434" x="242" y="346.0234">遠い土地からの良い報告は，疲れた人にとっての冷たい水のようだ。</text><line style="stroke:#000000;stroke-width:1.0;" x1="237" x2="237" y1="330.4883" y2="350.9766"/><line style="stroke:#000000;stroke-width:1.0;" x1="188" x2="681" y1="350.9766" y2="350.9766"/><text fill="#000000" font-family="sans-serif" font-size="14" font-weight="bold" lengthAdjust="spacing" textLength="33" x="193" y="366.5117">time</text><text fill="#000000" font-family="sans-serif" font-size="14" lengthAdjust="spacing" textLength="148" x="242" y="366.5117">1658222434.932621</text><line style="stroke:#000000;stroke-width:1.0;" x1="237" x2="237" y1="350.9766" y2="371.4648"/><line style="stroke:#000000;stroke-width:1.0;" x1="188" x2="681" y1="371.4648" y2="371.4648"/><text fill="#000000" font-family="sans-serif" font-size="14" font-weight="bold" lengthAdjust="spacing" textLength="14" x="193" y="387">id</text><text fill="#000000" font-family="sans-serif" font-size="14" lengthAdjust="spacing" textLength="9" x="242" y="387">4</text><line style="stroke:#000000;stroke-width:1.0;" x1="237" x2="237" y1="371.4648" y2="391.9531"/><rect fill="none" height="81.9531" rx="5" ry="5" style="stroke:#000000;stroke-width:1.5;" width="493" x="188" y="310"/><rect fill="#F1F1F1" height="81.9531" rx="5" ry="5" style="stroke:#F1F1F1;stroke-width:1.5;" width="507" x="181" y="410"/><text fill="#000000" font-family="sans-serif" font-size="14" font-weight="bold" lengthAdjust="spacing" textLength="39" x="186" y="425.5352">name</text><text fill="#000000" font-family="sans-serif" font-size="14" lengthAdjust="spacing" textLength="42" x="235" y="425.5352">名無し</text><line style="stroke:#000000;stroke-width:1.0;" x1="230" x2="230" y1="410" y2="430.4883"/><line style="stroke:#000000;stroke-width:1.0;" x1="181" x2="688" y1="430.4883" y2="430.4883"/><text fill="#000000" font-family="sans-serif" font-size="14" font-weight="bold" lengthAdjust="spacing" textLength="31" x="186" y="446.0234">msg</text><text fill="#000000" font-family="sans-serif" font-size="14" lengthAdjust="spacing" textLength="448" x="235" y="446.0234">知恵はサンゴに勝り，他のどんな望ましいものもそれにはかなわない。</text><line style="stroke:#000000;stroke-width:1.0;" x1="230" x2="230" y1="430.4883" y2="450.9766"/><line style="stroke:#000000;stroke-width:1.0;" x1="181" x2="688" y1="450.9766" y2="450.9766"/><text fill="#000000" font-family="sans-serif" font-size="14" font-weight="bold" lengthAdjust="spacing" textLength="33" x="186" y="466.5117">time</text><text fill="#000000" font-family="sans-serif" font-size="14" lengthAdjust="spacing" textLength="157" x="235" y="466.5117">1658222450.3999739</text><line style="stroke:#000000;stroke-width:1.0;" x1="230" x2="230" y1="450.9766" y2="471.4648"/><line style="stroke:#000000;stroke-width:1.0;" x1="181" x2="688" y1="471.4648" y2="471.4648"/><text fill="#000000" font-family="sans-serif" font-size="14" font-weight="bold" lengthAdjust="spacing" textLength="14" x="186" y="487">id</text><text fill="#000000" font-family="sans-serif" font-size="14" lengthAdjust="spacing" textLength="9" x="235" y="487">5</text><line style="stroke:#000000;stroke-width:1.0;" x1="230" x2="230" y1="471.4648" y2="491.9531"/><rect fill="none" height="81.9531" rx="5" ry="5" style="stroke:#000000;stroke-width:1.5;" width="507" x="181" y="410"/><path d="M132,211 L145,211 C196.4405,211 142.4904,135.1048 181,101 C208.068,77.0281 243.2347,63.2047 278.6972,55.5125 " fill="none" style="stroke:#000000;stroke-width:1.0;stroke-dasharray:3.0,3.0;"/><path d="M279.3171,58.5401 L280.9678,55.0476 L278.0772,52.4849 L286.2661,53.9627 L279.3171,58.5401 " fill="#000000" style="stroke:#000000;stroke-width:1.0;"/><ellipse cx="132" cy="211" fill="#000000" rx="3" ry="3" style="stroke:#000000;stroke-width:1.0;"/><path d="M132,231 L145,231 C165.8273,231 162.2004,209.9639 181,201 C187.8199,197.7482 194.84,194.7078 202.0043,191.8652 " fill="none" style="stroke:#000000;stroke-width:1.0;stroke-dasharray:3.0,3.0;"/><path d="M203.1152,194.7493 L204.1674,191.032 L200.8934,188.981 L209.2146,189.0879 L203.1152,194.7493 " fill="#000000" style="stroke:#000000;stroke-width:1.0;"/><ellipse cx="132" cy="231" fill="#000000" rx="3" ry="3" style="stroke:#000000;stroke-width:1.0;"/><path d="M132,251 L145,251 C202.3861,251 266.1818,251 319.2051,251 " fill="none" style="stroke:#000000;stroke-width:1.0;stroke-dasharray:3.0,3.0;"/><path d="M319.2051,254.0972 L321.5279,251 L319.2051,247.9028 L326.9479,251 L319.2051,254.0972 " fill="#000000" style="stroke:#000000;stroke-width:1.0;"/><ellipse cx="132" cy="251" fill="#000000" rx="3" ry="3" style="stroke:#000000;stroke-width:1.0;"/><path d="M132,272 L145,272 C165.5456,272 162.3818,292.3117 181,301 C185.566,303.1308 190.2195,305.1708 194.944,307.124 " fill="none" style="stroke:#000000;stroke-width:1.0;stroke-dasharray:3.0,3.0;"/><path d="M193.824,309.9123 L197.0353,307.964 L196.064,304.3357 L201.9148,309.924 L193.824,309.9123 " fill="#000000" style="stroke:#000000;stroke-width:1.0;"/><ellipse cx="132" cy="272" fill="#000000" rx="3" ry="3" style="stroke:#000000;stroke-width:1.0;"/><path d="M132,293 L145,293 C195.5964,293 143.0308,367.5584 181,401 C182.5435,402.3594 184.113,403.6861 185.7072,404.9809 " fill="none" style="stroke:#000000;stroke-width:1.0;stroke-dasharray:3.0,3.0;"/><path d="M183.7723,407.4882 L187.5876,406.4321 L187.6421,402.4737 L191.9753,409.8181 L183.7723,407.4882 " fill="#000000" style="stroke:#000000;stroke-width:1.0;"/><ellipse cx="132" cy="293" fill="#000000" rx="3" ry="3" style="stroke:#000000;stroke-width:1.0;"/><path d="M71,252 L84,252 C93.374,252 103.7885,252 112.4714,252 " fill="none" style="stroke:#000000;stroke-width:1.0;stroke-dasharray:3.0,3.0;"/><path d="M112.4714,255.0815 L114.7825,252 L112.4714,248.9185 L120.1751,252 L112.4714,255.0815 " fill="#000000" style="stroke:#000000;stroke-width:1.0;"/><ellipse cx="71" cy="252" fill="#000000" rx="3" ry="3" style="stroke:#000000;stroke-width:1.0;"/><!--MD5=[0d030c8951eb9e8e24bf766493b92b7d]
@startjson
skinparam dpi 500

{"lastid": 5, "logs": [{"name": "\u540d\u7121\u3057", "msg": "\u3051\u3061\u306a\u4eba\u306e\u98df\u7269\u3092\u98df\u3079\u3066\u306f\u306a\u3089\u306a\u3044\u3002", "time": 1658222142.568376, "id": 1}, {"name": "\u540d\u7121\u3057", "msg": "\u7a4f\u3084\u304b\u306a\u820c\u306f\u547d\u306e\u6728\u3067\u3042\u308a\uff0c\u60aa\u610f\u3042\u308b\u8a00\u8449\u306f\u4eba\u3092\u843d\u80c6\u3055\u305b\u308b\u3002", "time": 1658222392.507776, "id": 2}, {"name": "\u30af\u30b8\u30e9", "msg": "\u7686\u3055\u3093\u3001\u304a\u5143\u6c17\u3067\u3059\u304b\uff1f", "time": 1658222414.1906939, "id": 3}, {"name": "\u540d\u7121\u3057", "msg": "\u9060\u3044\u571f\u5730\u304b\u3089\u306e\u826f\u3044\u5831\u544a\u306f\uff0c\u75b2\u308c\u305f\u4eba\u306b\u3068\u3063\u3066\u306e\u51b7\u305f\u3044\u6c34\u306e\u3088\u3046\u3060\u3002", "time": 1658222434.932621, "id": 4}, {"name": "\u540d\u7121\u3057", "msg": "\u77e5\u6075\u306f\u30b5\u30f3\u30b4\u306b\u52dd\u308a\uff0c\u4ed6\u306e\u3069\u3093\u306a\u671b\u307e\u3057\u3044\u3082\u306e\u3082\u305d\u308c\u306b\u306f\u304b\u306a\u308f\u306a\u3044\u3002", "time": 1658222450.3999739, "id": 5}]}
@endjson

PlantUML version 1.2022.6(Wed Jun 22 02:34:49 JST 2022)
(GPL source distribution)
Java Runtime: OpenJDK Runtime Environment
JVM: OpenJDK 64-Bit Server VM
Default Encoding: UTF-8
Language: ja
Country: JP
--></g></svg>