<?xml version="1.0" encoding="UTF-8" standalone="no"?>
<!DOCTYPE svg PUBLIC "-//W3C//DTD SVG 1.1//EN"
 "http://www.w3.org/Graphics/SVG/1.1/DTD/svg11.dtd">
<!-- Generated by graphviz version 5.0.0 (20220707.1540)
 -->
<!-- Title: family Pages: 1 -->
<svg width="354pt" height="379pt"
 viewBox="0.00 0.00 353.50 378.80" xmlns="http://www.w3.org/2000/svg" xmlns:xlink="http://www.w3.org/1999/xlink">
<g id="graph0" class="graph" transform="scale(1 1) rotate(0) translate(4 374.8)">
<title>family</title>
<polygon fill="white" stroke="transparent" points="-4,4 -4,-374.8 349.5,-374.8 349.5,4 -4,4"/>
<!-- アムラム -->
<g id="node1" class="node">
<title>アムラム</title>
<polygon fill="#f0f0ff" stroke="black" points="87,-370.8 16,-370.8 16,-334.8 87,-334.8 87,-370.8"/>
<text text-anchor="middle" x="51.5" y="-349.1" font-family="Times,serif" font-size="14.00">アムラム</text>
</g>
<!-- アムラム_ヨケベド -->
<g id="node3" class="node">
<title>アムラム_ヨケベド</title>
<ellipse fill="black" stroke="black" cx="106.5" cy="-352.8" rx="1.8" ry="1.8"/>
</g>
<!-- アムラム&#45;&#45;アムラム_ヨケベド -->
<g id="edge1" class="edge">
<title>アムラム&#45;&#45;アムラム_ヨケベド</title>
<path fill="none" stroke="black" d="M87.16,-352.8C93.01,-352.8 98.85,-352.8 104.69,-352.8"/>
</g>
<!-- ヨケベド -->
<g id="node2" class="node">
<title>ヨケベド</title>
<polygon fill="#fff0f0" stroke="black" points="199,-370.8 126,-370.8 126,-334.8 199,-334.8 199,-370.8"/>
<text text-anchor="middle" x="162.5" y="-349.1" font-family="Times,serif" font-size="14.00">ヨケベド</text>
</g>
<!-- アムラム_ヨケベド&#45;&#45;ヨケベド -->
<g id="edge2" class="edge">
<title>アムラム_ヨケベド&#45;&#45;ヨケベド</title>
<path fill="none" stroke="black" d="M108.69,-352.8C114.43,-352.8 120.18,-352.8 125.92,-352.8"/>
</g>
<!-- アムラム_ヨケベド_pc -->
<g id="node4" class="node">
<title>アムラム_ヨケベド_pc</title>
<ellipse fill="black" stroke="black" cx="106.5" cy="-297" rx="1.8" ry="1.8"/>
</g>
<!-- アムラム_ヨケベド&#45;&#45;アムラム_ヨケベド_pc -->
<g id="edge3" class="edge">
<title>アムラム_ヨケベド&#45;&#45;アムラム_ヨケベド_pc</title>
<path fill="none" stroke="black" d="M106.5,-350.87C106.5,-344.39 106.5,-306.23 106.5,-299.14"/>
</g>
<!-- アロン -->
<g id="node5" class="node">
<title>アロン</title>
<polygon fill="none" stroke="black" points="59,-259.2 0,-259.2 0,-223.2 59,-223.2 59,-259.2"/>
<text text-anchor="middle" x="29.5" y="-237.5" font-family="Times,serif" font-size="14.00">アロン</text>
</g>
<!-- アムラム_ヨケベド_pc&#45;&#45;アロン -->
<g id="edge4" class="edge">
<title>アムラム_ヨケベド_pc&#45;&#45;アロン</title>
<path fill="none" stroke="black" d="M105.64,-295.4C100.58,-291.86 74.37,-273.55 54.1,-259.39"/>
</g>
<!-- モーセ -->
<g id="node6" class="node">
<title>モーセ</title>
<polygon fill="#f0f0ff" stroke="black" points="136,-259.2 77,-259.2 77,-223.2 136,-223.2 136,-259.2"/>
<text text-anchor="middle" x="106.5" y="-237.5" font-family="Times,serif" font-size="14.00">モーセ</text>
</g>
<!-- アムラム_ヨケベド_pc&#45;&#45;モーセ -->
<g id="edge5" class="edge">
<title>アムラム_ヨケベド_pc&#45;&#45;モーセ</title>
<path fill="none" stroke="black" d="M106.5,-295.07C106.5,-290.85 106.5,-273.22 106.5,-259.46"/>
</g>
<!-- ミリアム -->
<g id="node7" class="node">
<title>ミリアム</title>
<polygon fill="none" stroke="black" points="339.5,-259.2 267.5,-259.2 267.5,-223.2 339.5,-223.2 339.5,-259.2"/>
<text text-anchor="middle" x="303.5" y="-237.5" font-family="Times,serif" font-size="14.00">ミリアム</text>
</g>
<!-- アムラム_ヨケベド_pc&#45;&#45;ミリアム -->
<g id="edge6" class="edge">
<title>アムラム_ヨケベド_pc&#45;&#45;ミリアム</title>
<path fill="none" stroke="black" d="M108.02,-295.71C119.76,-293.43 197.27,-278.1 258.5,-259.2 261.37,-258.31 264.33,-257.34 267.28,-256.32"/>
</g>
<!-- モーセ_チッポラ -->
<g id="node9" class="node">
<title>モーセ_チッポラ</title>
<ellipse fill="black" stroke="black" cx="155.5" cy="-241.2" rx="1.8" ry="1.8"/>
</g>
<!-- モーセ&#45;&#45;モーセ_チッポラ -->
<g id="edge7" class="edge">
<title>モーセ&#45;&#45;モーセ_チッポラ</title>
<path fill="none" stroke="black" d="M136.36,-241.2C142.04,-241.2 147.72,-241.2 153.41,-241.2"/>
</g>
<!-- チッポラ -->
<g id="node8" class="node">
<title>チッポラ</title>
<polygon fill="#fff0f0" stroke="black" points="249.5,-259.2 175.5,-259.2 175.5,-223.2 249.5,-223.2 249.5,-259.2"/>
<text text-anchor="middle" x="212.5" y="-237.5" font-family="Times,serif" font-size="14.00">チッポラ</text>
</g>
<!-- モーセ_チッポラ&#45;&#45;チッポラ -->
<g id="edge8" class="edge">
<title>モーセ_チッポラ&#45;&#45;チッポラ</title>
<path fill="none" stroke="black" d="M157.73,-241.2C163.57,-241.2 169.42,-241.2 175.27,-241.2"/>
</g>
<!-- モーセ_チッポラ_pc -->
<g id="node10" class="node">
<title>モーセ_チッポラ_pc</title>
<ellipse fill="black" stroke="black" cx="155.5" cy="-185.4" rx="1.8" ry="1.8"/>
</g>
<!-- モーセ_チッポラ&#45;&#45;モーセ_チッポラ_pc -->
<g id="edge9" class="edge">
<title>モーセ_チッポラ&#45;&#45;モーセ_チッポラ_pc</title>
<path fill="none" stroke="black" d="M155.5,-239.27C155.5,-232.79 155.5,-194.63 155.5,-187.54"/>
</g>
<!-- ゲルショム -->
<g id="node11" class="node">
<title>ゲルショム</title>
<polygon fill="none" stroke="black" points="146.5,-147.6 60.5,-147.6 60.5,-111.6 146.5,-111.6 146.5,-147.6"/>
<text text-anchor="middle" x="103.5" y="-125.9" font-family="Times,serif" font-size="14.00">ゲルショム</text>
</g>
<!-- モーセ_チッポラ_pc&#45;&#45;ゲルショム -->
<g id="edge10" class="edge">
<title>モーセ_チッポラ_pc&#45;&#45;ゲルショム</title>
<path fill="none" stroke="black" d="M154.6,-183.47C150.52,-179.25 133.48,-161.62 120.18,-147.86"/>
</g>
<!-- エリエゼル -->
<g id="node12" class="node">
<title>エリエゼル</title>
<polygon fill="#f0f0ff" stroke="black" points="252,-147.6 165,-147.6 165,-111.6 252,-111.6 252,-147.6"/>
<text text-anchor="middle" x="208.5" y="-125.9" font-family="Times,serif" font-size="14.00">エリエゼル</text>
</g>
<!-- モーセ_チッポラ_pc&#45;&#45;エリエゼル -->
<g id="edge11" class="edge">
<title>モーセ_チッポラ_pc&#45;&#45;エリエゼル</title>
<path fill="none" stroke="black" d="M156.42,-183.47C160.57,-179.25 177.94,-161.62 191.5,-147.86"/>
</g>
<!-- エリエゼル_☆ -->
<g id="node14" class="node">
<title>エリエゼル_☆</title>
<ellipse fill="black" stroke="black" cx="271.5" cy="-129.6" rx="1.8" ry="1.8"/>
</g>
<!-- エリエゼル&#45;&#45;エリエゼル_☆ -->
<g id="edge12" class="edge">
<title>エリエゼル&#45;&#45;エリエゼル_☆</title>
<path fill="none" stroke="black" d="M252.3,-129.6C258,-129.6 263.7,-129.6 269.4,-129.6"/>
</g>
<!-- ☆ -->
<g id="node13" class="node">
<title>☆</title>
<polygon fill="#fff0f0" stroke="black" points="345.5,-147.6 291.5,-147.6 291.5,-111.6 345.5,-111.6 345.5,-147.6"/>
<text text-anchor="middle" x="318.5" y="-125.9" font-family="Times,serif" font-size="14.00">☆</text>
</g>
<!-- エリエゼル_☆&#45;&#45;☆ -->
<g id="edge13" class="edge">
<title>エリエゼル_☆&#45;&#45;☆</title>
<path fill="none" stroke="black" d="M273.34,-129.6C279.33,-129.6 285.33,-129.6 291.33,-129.6"/>
</g>
<!-- エリエゼル_☆_pc -->
<g id="node15" class="node">
<title>エリエゼル_☆_pc</title>
<ellipse fill="black" stroke="black" cx="271.5" cy="-73.8" rx="1.8" ry="1.8"/>
</g>
<!-- エリエゼル_☆&#45;&#45;エリエゼル_☆_pc -->
<g id="edge14" class="edge">
<title>エリエゼル_☆&#45;&#45;エリエゼル_☆_pc</title>
<path fill="none" stroke="black" d="M271.5,-127.67C271.5,-121.19 271.5,-83.03 271.5,-75.94"/>
</g>
<!-- レハブヤ -->
<g id="node16" class="node">
<title>レハブヤ</title>
<polygon fill="none" stroke="black" points="307.5,-36 235.5,-36 235.5,0 307.5,0 307.5,-36"/>
<text text-anchor="middle" x="271.5" y="-14.3" font-family="Times,serif" font-size="14.00">レハブヤ</text>
</g>
<!-- エリエゼル_☆_pc&#45;&#45;レハブヤ -->
<g id="edge15" class="edge">
<title>エリエゼル_☆_pc&#45;&#45;レハブヤ</title>
<path fill="none" stroke="black" d="M271.5,-71.87C271.5,-67.65 271.5,-50.02 271.5,-36.26"/>
</g>
</g>
</svg>
