<?xml version="1.0" encoding="UTF-8" standalone="no"?>
<!DOCTYPE svg PUBLIC "-//W3C//DTD SVG 1.1//EN"
 "http://www.w3.org/Graphics/SVG/1.1/DTD/svg11.dtd">
<!-- Generated by graphviz version 5.0.0 (20220707.1540)
 -->
<!-- Title: family Pages: 1 -->
<svg width="683pt" height="318pt"
 viewBox="0.00 0.00 682.69 318.00" xmlns="http://www.w3.org/2000/svg" xmlns:xlink="http://www.w3.org/1999/xlink">
<g id="graph0" class="graph" transform="scale(1 1) rotate(0) translate(4 314)">
<title>family</title>
<polygon fill="white" stroke="transparent" points="-4,4 -4,-314 678.69,-314 678.69,4 -4,4"/>
<!-- 木下弥右衛門 -->
<g id="node1" class="node">
<title>木下弥右衛門</title>
<polygon fill="#f0f0ff" stroke="black" points="102,-257 0,-257 0,-221 102,-221 102,-257"/>
<text text-anchor="middle" x="51" y="-235.3" font-family="Times,serif" font-size="14.00">木下弥右衛門</text>
</g>
<!-- 木下弥右衛門_なか -->
<g id="node2" class="node">
<title>木下弥右衛門_なか</title>
<ellipse fill="black" stroke="black" cx="154.8" cy="-239" rx="1.8" ry="1.8"/>
</g>
<!-- 木下弥右衛門&#45;&#45;木下弥右衛門_なか -->
<g id="edge1" class="edge">
<title>木下弥右衛門&#45;&#45;木下弥右衛門_なか</title>
<path fill="none" stroke="black" d="M102.01,-239C124.53,-239 147.29,-239 152.63,-239"/>
<text text-anchor="middle" x="127.5" y="-242.8" font-family="Times,serif" font-size="14.00">父</text>
</g>
<!-- なか -->
<g id="node3" class="node">
<title>なか</title>
<ellipse fill="#fff0e0" stroke="black" cx="244.6" cy="-292" rx="29.5" ry="18"/>
<text text-anchor="middle" x="244.6" y="-288.3" font-family="Times,serif" font-size="14.00">なか</text>
</g>
<!-- 木下弥右衛門_なか&#45;&#45;なか -->
<g id="edge2" class="edge">
<title>木下弥右衛門_なか&#45;&#45;なか</title>
<path fill="none" stroke="black" d="M156.45,-239.77C158.73,-242.42 166.64,-251.36 174.6,-257 188.74,-267.02 206.15,-275.83 219.94,-282.1"/>
<text text-anchor="middle" x="182.1" y="-269.8" font-family="Times,serif" font-size="14.00">母</text>
</g>
<!-- 豊臣秀吉 -->
<g id="node4" class="node">
<title>豊臣秀吉</title>
<polygon fill="#f0f0ff" stroke="black" points="281.6,-256 207.6,-256 207.6,-220 281.6,-220 281.6,-256"/>
<text text-anchor="middle" x="244.6" y="-234.3" font-family="Times,serif" font-size="14.00">豊臣秀吉</text>
</g>
<!-- 木下弥右衛門_なか&#45;&#45;豊臣秀吉 -->
<g id="edge3" class="edge">
<title>木下弥右衛門_なか&#45;&#45;豊臣秀吉</title>
<path fill="none" stroke="black" d="M156.79,-238.99C161.08,-238.94 178.74,-238.74 197.02,-238.53"/>
<polygon fill="black" stroke="black" points="197.2,-242.03 207.16,-238.42 197.12,-235.03 197.2,-242.03"/>
<text text-anchor="middle" x="182.1" y="-241.8" font-family="Times,serif" font-size="14.00">子</text>
</g>
<!-- とも -->
<g id="node5" class="node">
<title>とも</title>
<polygon fill="#fff0e0" stroke="black" points="271.6,-201 217.6,-201 217.6,-165 271.6,-165 271.6,-201"/>
<text text-anchor="middle" x="244.6" y="-179.3" font-family="Times,serif" font-size="14.00">とも</text>
</g>
<!-- 木下弥右衛門_なか&#45;&#45;とも -->
<g id="edge4" class="edge">
<title>木下弥右衛門_なか&#45;&#45;とも</title>
<path fill="none" stroke="black" d="M156.43,-238.14C158.65,-235.18 166.4,-225.22 174.6,-219 184.86,-211.22 197.05,-204.24 208.3,-198.55"/>
<polygon fill="black" stroke="black" points="210.02,-201.61 217.47,-194.08 206.95,-195.32 210.02,-201.61"/>
<text text-anchor="middle" x="182.1" y="-222.8" font-family="Times,serif" font-size="14.00">子</text>
</g>
<!-- 豊臣秀吉_おね(正室) -->
<g id="node6" class="node">
<title>豊臣秀吉_おね(正室)</title>
<ellipse fill="black" stroke="black" cx="334.4" cy="-269" rx="1.8" ry="1.8"/>
</g>
<!-- 豊臣秀吉&#45;&#45;豊臣秀吉_おね(正室) -->
<g id="edge5" class="edge">
<title>豊臣秀吉&#45;&#45;豊臣秀吉_おね(正室)</title>
<path fill="none" stroke="black" d="M281.82,-250.79C302.98,-258.26 326.6,-266.6 332.18,-268.57"/>
<text text-anchor="middle" x="307.1" y="-265.8" font-family="Times,serif" font-size="14.00">父</text>
</g>
<!-- 豊臣秀吉_茶々 -->
<g id="node8" class="node">
<title>豊臣秀吉_茶々</title>
<ellipse fill="black" stroke="black" cx="334.4" cy="-175" rx="1.8" ry="1.8"/>
</g>
<!-- 豊臣秀吉&#45;&#45;豊臣秀吉_茶々 -->
<g id="edge7" class="edge">
<title>豊臣秀吉&#45;&#45;豊臣秀吉_茶々</title>
<path fill="none" stroke="black" d="M271,-219.78C294.5,-202.92 326.65,-179.84 332.48,-175.66"/>
<text text-anchor="middle" x="307.1" y="-202.8" font-family="Times,serif" font-size="14.00">父</text>
</g>
<!-- おね(正室) -->
<g id="node7" class="node">
<title>おね(正室)</title>
<ellipse fill="#fff0e0" stroke="black" cx="441.15" cy="-274" rx="53.89" ry="18"/>
<text text-anchor="middle" x="441.15" y="-270.3" font-family="Times,serif" font-size="14.00">おね(正室)</text>
</g>
<!-- 豊臣秀吉_おね(正室)&#45;&#45;おね(正室) -->
<g id="edge6" class="edge">
<title>豊臣秀吉_おね(正室)&#45;&#45;おね(正室)</title>
<path fill="none" stroke="black" d="M336.58,-269.06C341.93,-269.31 364.68,-270.4 387.5,-271.49"/>
<text text-anchor="middle" x="361.7" y="-273.8" font-family="Times,serif" font-size="14.00">母</text>
</g>
<!-- 茶々 -->
<g id="node9" class="node">
<title>茶々</title>
<ellipse fill="#fff0e0" stroke="black" cx="441.15" cy="-166" rx="29.5" ry="18"/>
<text text-anchor="middle" x="441.15" y="-162.3" font-family="Times,serif" font-size="14.00">茶々</text>
</g>
<!-- 豊臣秀吉_茶々&#45;&#45;茶々 -->
<g id="edge8" class="edge">
<title>豊臣秀吉_茶々&#45;&#45;茶々</title>
<path fill="none" stroke="black" d="M336.58,-174.9C343.9,-174.27 383.89,-170.83 411.97,-168.42"/>
<text text-anchor="middle" x="361.7" y="-176.8" font-family="Times,serif" font-size="14.00">母</text>
</g>
<!-- 豊臣鶴松 -->
<g id="node10" class="node">
<title>豊臣鶴松</title>
<polygon fill="#f0f0ff" stroke="black" points="478.15,-130 404.15,-130 404.15,-94 478.15,-94 478.15,-130"/>
<text text-anchor="middle" x="441.15" y="-108.3" font-family="Times,serif" font-size="14.00">豊臣鶴松</text>
</g>
<!-- 豊臣秀吉_茶々&#45;&#45;豊臣鶴松 -->
<g id="edge9" class="edge">
<title>豊臣秀吉_茶々&#45;&#45;豊臣鶴松</title>
<path fill="none" stroke="black" d="M336,-174.04C338.13,-170.73 345.59,-159.61 354.2,-153 366.35,-143.68 380.96,-135.74 394.66,-129.39"/>
<polygon fill="black" stroke="black" points="396.24,-132.52 403.95,-125.26 393.39,-126.13 396.24,-132.52"/>
<text text-anchor="middle" x="361.7" y="-156.8" font-family="Times,serif" font-size="14.00">子</text>
</g>
<!-- 豊臣秀頼 -->
<g id="node11" class="node">
<title>豊臣秀頼</title>
<polygon fill="#f0f0ff" stroke="black" points="478.15,-238 404.15,-238 404.15,-202 478.15,-202 478.15,-238"/>
<text text-anchor="middle" x="441.15" y="-216.3" font-family="Times,serif" font-size="14.00">豊臣秀頼</text>
</g>
<!-- 豊臣秀吉_茶々&#45;&#45;豊臣秀頼 -->
<g id="edge10" class="edge">
<title>豊臣秀吉_茶々&#45;&#45;豊臣秀頼</title>
<path fill="none" stroke="black" d="M336.33,-175.94C338.94,-178.52 346.6,-185.8 354.2,-190 366.67,-196.89 381.01,-202.64 394.36,-207.21"/>
<polygon fill="black" stroke="black" points="393.27,-210.54 403.86,-210.33 395.45,-203.89 393.27,-210.54"/>
<text text-anchor="middle" x="361.7" y="-199.8" font-family="Times,serif" font-size="14.00">子</text>
</g>
<!-- 豊臣秀頼_千姫 -->
<g id="node17" class="node">
<title>豊臣秀頼_千姫</title>
<ellipse fill="black" stroke="black" cx="547.89" cy="-217" rx="1.8" ry="1.8"/>
</g>
<!-- 豊臣秀頼&#45;&#45;豊臣秀頼_千姫 -->
<g id="edge16" class="edge">
<title>豊臣秀頼&#45;&#45;豊臣秀頼_千姫</title>
<path fill="none" stroke="black" d="M478.19,-218.97C505.65,-218.18 539.76,-217.2 545.92,-217.03"/>
<text text-anchor="middle" x="520.59" y="-220.8" font-family="Times,serif" font-size="14.00">父</text>
</g>
<!-- 三好良房 -->
<g id="node12" class="node">
<title>三好良房</title>
<polygon fill="#f0f0ff" stroke="black" points="88,-114 14,-114 14,-78 88,-78 88,-114"/>
<text text-anchor="middle" x="51" y="-92.3" font-family="Times,serif" font-size="14.00">三好良房</text>
</g>
<!-- 三好良房_とも -->
<g id="node13" class="node">
<title>三好良房_とも</title>
<ellipse fill="black" stroke="black" cx="154.8" cy="-96" rx="1.8" ry="1.8"/>
</g>
<!-- 三好良房&#45;&#45;三好良房_とも -->
<g id="edge11" class="edge">
<title>三好良房&#45;&#45;三好良房_とも</title>
<path fill="none" stroke="black" d="M88.18,-96C114.69,-96 147.04,-96 152.88,-96"/>
<text text-anchor="middle" x="127.5" y="-99.8" font-family="Times,serif" font-size="14.00">父</text>
</g>
<!-- 三好良房_とも&#45;&#45;とも -->
<g id="edge12" class="edge">
<title>三好良房_とも&#45;&#45;とも</title>
<path fill="none" stroke="black" d="M156.27,-97.05C158.16,-101.17 165.5,-116.56 174.6,-127 187.17,-141.42 203.75,-155.01 217.51,-165.19"/>
<text text-anchor="middle" x="182.1" y="-143.8" font-family="Times,serif" font-size="14.00">母</text>
</g>
<!-- 豊臣秀次 -->
<g id="node14" class="node">
<title>豊臣秀次</title>
<polygon fill="#f0f0ff" stroke="black" points="281.6,-144 207.6,-144 207.6,-108 281.6,-108 281.6,-144"/>
<text text-anchor="middle" x="244.6" y="-122.3" font-family="Times,serif" font-size="14.00">豊臣秀次</text>
</g>
<!-- 三好良房_とも&#45;&#45;豊臣秀次 -->
<g id="edge13" class="edge">
<title>三好良房_とも&#45;&#45;豊臣秀次</title>
<path fill="none" stroke="black" d="M156.81,-96.39C159.63,-97.48 167.77,-100.59 174.6,-103 182.05,-105.63 189.98,-108.35 197.72,-110.95"/>
<polygon fill="black" stroke="black" points="196.76,-114.32 207.35,-114.18 198.98,-107.68 196.76,-114.32"/>
<text text-anchor="middle" x="182.1" y="-111.8" font-family="Times,serif" font-size="14.00">子</text>
</g>
<!-- 豊臣秀勝 -->
<g id="node15" class="node">
<title>豊臣秀勝</title>
<polygon fill="#f0f0ff" stroke="black" points="281.6,-90 207.6,-90 207.6,-54 281.6,-54 281.6,-90"/>
<text text-anchor="middle" x="244.6" y="-68.3" font-family="Times,serif" font-size="14.00">豊臣秀勝</text>
</g>
<!-- 三好良房_とも&#45;&#45;豊臣秀勝 -->
<g id="edge14" class="edge">
<title>三好良房_とも&#45;&#45;豊臣秀勝</title>
<path fill="none" stroke="black" d="M156.8,-95.5C159.56,-94.14 167.59,-90.29 174.6,-88 181.92,-85.62 189.78,-83.44 197.48,-81.52"/>
<polygon fill="black" stroke="black" points="198.55,-84.86 207.46,-79.13 196.92,-78.05 198.55,-84.86"/>
<text text-anchor="middle" x="182.1" y="-91.8" font-family="Times,serif" font-size="14.00">子</text>
</g>
<!-- 豊臣秀保 -->
<g id="node16" class="node">
<title>豊臣秀保</title>
<polygon fill="#f0f0ff" stroke="black" points="281.6,-36 207.6,-36 207.6,0 281.6,0 281.6,-36"/>
<text text-anchor="middle" x="244.6" y="-14.3" font-family="Times,serif" font-size="14.00">豊臣秀保</text>
</g>
<!-- 三好良房_とも&#45;&#45;豊臣秀保 -->
<g id="edge15" class="edge">
<title>三好良房_とも&#45;&#45;豊臣秀保</title>
<path fill="none" stroke="black" d="M156.35,-94.69C158.29,-90.15 165.24,-74.86 174.6,-65 182.78,-56.38 192.79,-48.46 202.63,-41.68"/>
<polygon fill="black" stroke="black" points="204.78,-44.46 211.18,-36.02 200.91,-38.62 204.78,-44.46"/>
<text text-anchor="middle" x="182.1" y="-68.8" font-family="Times,serif" font-size="14.00">子</text>
</g>
<!-- 千姫 -->
<g id="node18" class="node">
<title>千姫</title>
<polygon fill="#f0f0ff" stroke="black" points="664.69,-178 610.69,-178 610.69,-142 664.69,-142 664.69,-178"/>
<text text-anchor="middle" x="637.69" y="-156.3" font-family="Times,serif" font-size="14.00">千姫</text>
</g>
<!-- 豊臣秀頼_千姫&#45;&#45;千姫 -->
<g id="edge17" class="edge">
<title>豊臣秀頼_千姫&#45;&#45;千姫</title>
<path fill="none" stroke="black" d="M549.54,-216.2C551.81,-213.41 559.69,-204.04 567.69,-198 580.89,-188.02 597.03,-178.99 610.38,-172.23"/>
<text text-anchor="middle" x="575.19" y="-201.8" font-family="Times,serif" font-size="14.00">母</text>
</g>
<!-- 豊臣国松 -->
<g id="node19" class="node">
<title>豊臣国松</title>
<polygon fill="#f0f0ff" stroke="black" points="674.69,-235 600.69,-235 600.69,-199 674.69,-199 674.69,-235"/>
<text text-anchor="middle" x="637.69" y="-213.3" font-family="Times,serif" font-size="14.00">豊臣国松</text>
</g>
<!-- 豊臣秀頼_千姫&#45;&#45;豊臣国松 -->
<g id="edge18" class="edge">
<title>豊臣秀頼_千姫&#45;&#45;豊臣国松</title>
<path fill="none" stroke="black" d="M549.88,-217C554.17,-217 571.83,-217 590.11,-217"/>
<polygon fill="black" stroke="black" points="590.25,-220.5 600.25,-217 590.25,-213.5 590.25,-220.5"/>
<text text-anchor="middle" x="575.19" y="-220.8" font-family="Times,serif" font-size="14.00">子</text>
</g>
<!-- 徳川秀忠 -->
<g id="node20" class="node">
<title>徳川秀忠</title>
<polygon fill="#f0f0ff" stroke="black" points="478.15,-76 404.15,-76 404.15,-40 478.15,-40 478.15,-76"/>
<text text-anchor="middle" x="441.15" y="-54.3" font-family="Times,serif" font-size="14.00">徳川秀忠</text>
</g>
<!-- 徳川秀忠_ お江 -->
<g id="node21" class="node">
<title>徳川秀忠_ お江</title>
<ellipse fill="black" stroke="black" cx="547.89" cy="-82" rx="1.8" ry="1.8"/>
</g>
<!-- 徳川秀忠&#45;&#45;徳川秀忠_ お江 -->
<g id="edge19" class="edge">
<title>徳川秀忠&#45;&#45;徳川秀忠_ お江</title>
<path fill="none" stroke="black" d="M478.19,-66.26C505.65,-72.55 539.76,-80.37 545.92,-81.78"/>
<text text-anchor="middle" x="520.59" y="-81.8" font-family="Times,serif" font-size="14.00">父</text>
</g>
<!-- 徳川秀忠_ お江&#45;&#45;千姫 -->
<g id="edge21" class="edge">
<title>徳川秀忠_ お江&#45;&#45;千姫</title>
<path fill="none" stroke="black" d="M549.59,-82.75C552.01,-85.34 560.35,-94.17 567.69,-101 580.19,-112.62 594.46,-124.97 606.77,-135.35"/>
<polygon fill="black" stroke="black" points="604.62,-138.11 614.53,-141.85 609.12,-132.75 604.62,-138.11"/>
<text text-anchor="middle" x="575.19" y="-118.8" font-family="Times,serif" font-size="14.00">子</text>
</g>
<!--  お江 -->
<g id="node22" class="node">
<title> お江</title>
<ellipse fill="#fff0e0" stroke="black" cx="637.69" cy="-82" rx="32.49" ry="18"/>
<text text-anchor="middle" x="637.69" y="-78.3" font-family="Times,serif" font-size="14.00"> お江</text>
</g>
<!-- 徳川秀忠_ お江&#45;&#45; お江 -->
<g id="edge20" class="edge">
<title>徳川秀忠_ お江&#45;&#45; お江</title>
<path fill="none" stroke="black" d="M549.88,-82C555.34,-82 582.47,-82 604.96,-82"/>
<text text-anchor="middle" x="575.19" y="-85.8" font-family="Times,serif" font-size="14.00">母</text>
</g>
</g>
</svg>
