<?xml version="1.0" encoding="UTF-8" standalone="no"?><svg xmlns="http://www.w3.org/2000/svg" xmlns:xlink="http://www.w3.org/1999/xlink" contentStyleType="text/css" height="493px" preserveAspectRatio="none" style="width:342px;height:493px;background:#FFFFFF;" version="1.1" viewBox="0 0 342 493" width="342px" zoomAndPan="magnify"><defs/><g><rect fill="#F1F1F1" height="102.4414" rx="5" ry="5" style="stroke:#F1F1F1;stroke-width:1.5;" width="22" x="10" y="201.5"/><text fill="#000000" font-family="sans-serif" font-size="14" lengthAdjust="spacing" textLength="12" x="15" y="217.0352">   </text><line style="stroke:#000000;stroke-width:1.0;" x1="10" x2="32" y1="221.9883" y2="221.9883"/><text fill="#000000" font-family="sans-serif" font-size="14" lengthAdjust="spacing" textLength="12" x="15" y="237.5234">   </text><line style="stroke:#000000;stroke-width:1.0;" x1="10" x2="32" y1="242.4766" y2="242.4766"/><text fill="#000000" font-family="sans-serif" font-size="14" lengthAdjust="spacing" textLength="12" x="15" y="258.0117">   </text><line style="stroke:#000000;stroke-width:1.0;" x1="10" x2="32" y1="262.9648" y2="262.9648"/><text fill="#000000" font-family="sans-serif" font-size="14" lengthAdjust="spacing" textLength="12" x="15" y="278.5">   </text><line style="stroke:#000000;stroke-width:1.0;" x1="10" x2="32" y1="283.4531" y2="283.4531"/><text fill="#000000" font-family="sans-serif" font-size="14" lengthAdjust="spacing" textLength="12" x="15" y="298.9883">   </text><rect fill="none" height="102.4414" rx="5" ry="5" style="stroke:#000000;stroke-width:1.5;" width="22" x="10" y="201.5"/><rect fill="#F1F1F1" height="40.9766" rx="5" ry="5" style="stroke:#F1F1F1;stroke-width:1.5;" width="90" x="71" y="49"/><text fill="#000000" font-family="sans-serif" font-size="14" font-weight="bold" lengthAdjust="spacing" textLength="54" x="76" y="64.5352">parents</text><text fill="#000000" font-family="sans-serif" font-size="14" lengthAdjust="spacing" textLength="12" x="144" y="64.5352">   </text><line style="stroke:#000000;stroke-width:1.0;" x1="139" x2="139" y1="49" y2="69.4883"/><line style="stroke:#000000;stroke-width:1.0;" x1="71" x2="161" y1="69.4883" y2="69.4883"/><text fill="#000000" font-family="sans-serif" font-size="14" font-weight="bold" lengthAdjust="spacing" textLength="58" x="76" y="85.0234">children</text><text fill="#000000" font-family="sans-serif" font-size="14" lengthAdjust="spacing" textLength="12" x="144" y="85.0234">   </text><line style="stroke:#000000;stroke-width:1.0;" x1="139" x2="139" y1="69.4883" y2="89.9766"/><rect fill="none" height="40.9766" rx="5" ry="5" style="stroke:#000000;stroke-width:1.5;" width="90" x="71" y="49"/><rect fill="#F1F1F1" height="40.9766" rx="5" ry="5" style="stroke:#F1F1F1;stroke-width:1.5;" width="132" x="198" y="10"/><text fill="#000000" font-family="sans-serif" font-size="14" lengthAdjust="spacing" textLength="122" x="203" y="25.5352">徳川家康(初代将軍)</text><line style="stroke:#000000;stroke-width:1.0;" x1="198" x2="330" y1="30.4883" y2="30.4883"/><text fill="#000000" font-family="sans-serif" font-size="14" lengthAdjust="spacing" textLength="42" x="203" y="46.0234">西郷局</text><rect fill="none" height="40.9766" rx="5" ry="5" style="stroke:#000000;stroke-width:1.5;" width="132" x="198" y="10"/><rect fill="#F1F1F1" height="20.4883" rx="5" ry="5" style="stroke:#F1F1F1;stroke-width:1.5;" width="99" x="214.5" y="69.5"/><text fill="#000000" font-family="sans-serif" font-size="14" lengthAdjust="spacing" textLength="89" x="219.5" y="85.0352">秀忠(2代将軍)</text><rect fill="none" height="20.4883" rx="5" ry="5" style="stroke:#000000;stroke-width:1.5;" width="99" x="214.5" y="69.5"/><rect fill="#F1F1F1" height="40.9766" rx="5" ry="5" style="stroke:#F1F1F1;stroke-width:1.5;" width="90" x="71" y="147"/><text fill="#000000" font-family="sans-serif" font-size="14" font-weight="bold" lengthAdjust="spacing" textLength="54" x="76" y="162.5352">parents</text><text fill="#000000" font-family="sans-serif" font-size="14" lengthAdjust="spacing" textLength="12" x="144" y="162.5352">   </text><line style="stroke:#000000;stroke-width:1.0;" x1="139" x2="139" y1="147" y2="167.4883"/><line style="stroke:#000000;stroke-width:1.0;" x1="71" x2="161" y1="167.4883" y2="167.4883"/><text fill="#000000" font-family="sans-serif" font-size="14" font-weight="bold" lengthAdjust="spacing" textLength="58" x="76" y="183.0234">children</text><text fill="#000000" font-family="sans-serif" font-size="14" lengthAdjust="spacing" textLength="12" x="144" y="183.0234">   </text><line style="stroke:#000000;stroke-width:1.0;" x1="139" x2="139" y1="167.4883" y2="187.9766"/><rect fill="none" height="40.9766" rx="5" ry="5" style="stroke:#000000;stroke-width:1.5;" width="90" x="71" y="147"/><rect fill="#F1F1F1" height="40.9766" rx="5" ry="5" style="stroke:#F1F1F1;stroke-width:1.5;" width="99" x="214.5" y="108"/><text fill="#000000" font-family="sans-serif" font-size="14" lengthAdjust="spacing" textLength="89" x="219.5" y="123.5352">秀忠(2代将軍)</text><line style="stroke:#000000;stroke-width:1.0;" x1="214.5" x2="313.5" y1="128.4883" y2="128.4883"/><text fill="#000000" font-family="sans-serif" font-size="14" lengthAdjust="spacing" textLength="28" x="219.5" y="144.0234">お江</text><rect fill="none" height="40.9766" rx="5" ry="5" style="stroke:#000000;stroke-width:1.5;" width="99" x="214.5" y="108"/><rect fill="#F1F1F1" height="20.4883" rx="5" ry="5" style="stroke:#F1F1F1;stroke-width:1.5;" width="99" x="214.5" y="167.5"/><text fill="#000000" font-family="sans-serif" font-size="14" lengthAdjust="spacing" textLength="89" x="219.5" y="183.0352">家光(3代将軍)</text><rect fill="none" height="20.4883" rx="5" ry="5" style="stroke:#000000;stroke-width:1.5;" width="99" x="214.5" y="167.5"/><rect fill="#F1F1F1" height="40.9766" rx="5" ry="5" style="stroke:#F1F1F1;stroke-width:1.5;" width="90" x="71" y="231"/><text fill="#000000" font-family="sans-serif" font-size="14" font-weight="bold" lengthAdjust="spacing" textLength="54" x="76" y="246.5352">parents</text><text fill="#000000" font-family="sans-serif" font-size="14" lengthAdjust="spacing" textLength="12" x="144" y="246.5352">   </text><line style="stroke:#000000;stroke-width:1.0;" x1="139" x2="139" y1="231" y2="251.4883"/><line style="stroke:#000000;stroke-width:1.0;" x1="71" x2="161" y1="251.4883" y2="251.4883"/><text fill="#000000" font-family="sans-serif" font-size="14" font-weight="bold" lengthAdjust="spacing" textLength="58" x="76" y="267.0234">children</text><text fill="#000000" font-family="sans-serif" font-size="14" lengthAdjust="spacing" textLength="12" x="144" y="267.0234">   </text><line style="stroke:#000000;stroke-width:1.0;" x1="139" x2="139" y1="251.4883" y2="271.9766"/><rect fill="none" height="40.9766" rx="5" ry="5" style="stroke:#000000;stroke-width:1.5;" width="90" x="71" y="231"/><rect fill="#F1F1F1" height="40.9766" rx="5" ry="5" style="stroke:#F1F1F1;stroke-width:1.5;" width="99" x="214.5" y="206"/><text fill="#000000" font-family="sans-serif" font-size="14" lengthAdjust="spacing" textLength="89" x="219.5" y="221.5352">家光(3代将軍)</text><line style="stroke:#000000;stroke-width:1.0;" x1="214.5" x2="313.5" y1="226.4883" y2="226.4883"/><text fill="#000000" font-family="sans-serif" font-size="14" lengthAdjust="spacing" textLength="56" x="219.5" y="242.0234">お楽の方</text><rect fill="none" height="40.9766" rx="5" ry="5" style="stroke:#000000;stroke-width:1.5;" width="99" x="214.5" y="206"/><rect fill="#F1F1F1" height="20.4883" rx="5" ry="5" style="stroke:#F1F1F1;stroke-width:1.5;" width="99" x="214.5" y="265.5"/><text fill="#000000" font-family="sans-serif" font-size="14" lengthAdjust="spacing" textLength="89" x="219.5" y="281.0352">家綱(4代将軍)</text><rect fill="none" height="20.4883" rx="5" ry="5" style="stroke:#000000;stroke-width:1.5;" width="99" x="214.5" y="265.5"/><rect fill="#F1F1F1" height="40.9766" rx="5" ry="5" style="stroke:#F1F1F1;stroke-width:1.5;" width="90" x="71" y="315"/><text fill="#000000" font-family="sans-serif" font-size="14" font-weight="bold" lengthAdjust="spacing" textLength="54" x="76" y="330.5352">parents</text><text fill="#000000" font-family="sans-serif" font-size="14" lengthAdjust="spacing" textLength="12" x="144" y="330.5352">   </text><line style="stroke:#000000;stroke-width:1.0;" x1="139" x2="139" y1="315" y2="335.4883"/><line style="stroke:#000000;stroke-width:1.0;" x1="71" x2="161" y1="335.4883" y2="335.4883"/><text fill="#000000" font-family="sans-serif" font-size="14" font-weight="bold" lengthAdjust="spacing" textLength="58" x="76" y="351.0234">children</text><text fill="#000000" font-family="sans-serif" font-size="14" lengthAdjust="spacing" textLength="12" x="144" y="351.0234">   </text><line style="stroke:#000000;stroke-width:1.0;" x1="139" x2="139" y1="335.4883" y2="355.9766"/><rect fill="none" height="40.9766" rx="5" ry="5" style="stroke:#000000;stroke-width:1.5;" width="90" x="71" y="315"/><rect fill="#F1F1F1" height="40.9766" rx="5" ry="5" style="stroke:#F1F1F1;stroke-width:1.5;" width="99" x="214.5" y="304"/><text fill="#000000" font-family="sans-serif" font-size="14" lengthAdjust="spacing" textLength="89" x="219.5" y="319.5352">家光(3代将軍)</text><line style="stroke:#000000;stroke-width:1.0;" x1="214.5" x2="313.5" y1="324.4883" y2="324.4883"/><text fill="#000000" font-family="sans-serif" font-size="14" lengthAdjust="spacing" textLength="28" x="219.5" y="340.0234">お玉</text><rect fill="none" height="40.9766" rx="5" ry="5" style="stroke:#000000;stroke-width:1.5;" width="99" x="214.5" y="304"/><rect fill="#F1F1F1" height="20.4883" rx="5" ry="5" style="stroke:#F1F1F1;stroke-width:1.5;" width="99" x="214.5" y="363.5"/><text fill="#000000" font-family="sans-serif" font-size="14" lengthAdjust="spacing" textLength="89" x="219.5" y="379.0352">綱吉(5代将軍)</text><rect fill="none" height="20.4883" rx="5" ry="5" style="stroke:#000000;stroke-width:1.5;" width="99" x="214.5" y="363.5"/><rect fill="#F1F1F1" height="40.9766" rx="5" ry="5" style="stroke:#F1F1F1;stroke-width:1.5;" width="90" x="71" y="413"/><text fill="#000000" font-family="sans-serif" font-size="14" font-weight="bold" lengthAdjust="spacing" textLength="54" x="76" y="428.5352">parents</text><text fill="#000000" font-family="sans-serif" font-size="14" lengthAdjust="spacing" textLength="12" x="144" y="428.5352">   </text><line style="stroke:#000000;stroke-width:1.0;" x1="139" x2="139" y1="413" y2="433.4883"/><line style="stroke:#000000;stroke-width:1.0;" x1="71" x2="161" y1="433.4883" y2="433.4883"/><text fill="#000000" font-family="sans-serif" font-size="14" font-weight="bold" lengthAdjust="spacing" textLength="58" x="76" y="449.0234">children</text><text fill="#000000" font-family="sans-serif" font-size="14" lengthAdjust="spacing" textLength="12" x="144" y="449.0234">   </text><line style="stroke:#000000;stroke-width:1.0;" x1="139" x2="139" y1="433.4883" y2="453.9766"/><rect fill="none" height="40.9766" rx="5" ry="5" style="stroke:#000000;stroke-width:1.5;" width="90" x="71" y="413"/><rect fill="#F1F1F1" height="40.9766" rx="5" ry="5" style="stroke:#F1F1F1;stroke-width:1.5;" width="99" x="214.5" y="402"/><text fill="#000000" font-family="sans-serif" font-size="14" lengthAdjust="spacing" textLength="89" x="219.5" y="417.5352">家光(3代将軍)</text><line style="stroke:#000000;stroke-width:1.0;" x1="214.5" x2="313.5" y1="422.4883" y2="422.4883"/><text fill="#000000" font-family="sans-serif" font-size="14" lengthAdjust="spacing" textLength="28" x="219.5" y="438.0234">お夏</text><rect fill="none" height="40.9766" rx="5" ry="5" style="stroke:#000000;stroke-width:1.5;" width="99" x="214.5" y="402"/><rect fill="#F1F1F1" height="20.4883" rx="5" ry="5" style="stroke:#F1F1F1;stroke-width:1.5;" width="38" x="245" y="461.5"/><text fill="#000000" font-family="sans-serif" font-size="14" lengthAdjust="spacing" textLength="28" x="250" y="477.0352">綱重</text><rect fill="none" height="20.4883" rx="5" ry="5" style="stroke:#000000;stroke-width:1.5;" width="38" x="245" y="461.5"/><path d="M149,58.5 L162,58.5 C175.2178,58.5 189.0665,56.2661 202.1352,53.0603 " fill="none" style="stroke:#000000;stroke-width:1.0;stroke-dasharray:3.0,3.0;"/><path d="M202.9313,56.0979 L204.4133,52.4632 L201.3391,50.0228 L209.729,51.07 L202.9313,56.0979 " fill="#000000" style="stroke:#000000;stroke-width:1.0;"/><ellipse cx="149" cy="58.5" fill="#000000" rx="3" ry="3" style="stroke:#000000;stroke-width:1.0;"/><path d="M149,79.5 L162,79.5 C176.7057,79.5 192.6099,79.5 207.3684,79.5 " fill="none" style="stroke:#000000;stroke-width:1.0;stroke-dasharray:3.0,3.0;"/><path d="M207.3684,82.5404 L209.6487,79.5 L207.3684,76.4596 L214.9694,79.5 L207.3684,82.5404 " fill="#000000" style="stroke:#000000;stroke-width:1.0;"/><ellipse cx="149" cy="79.5" fill="#000000" rx="3" ry="3" style="stroke:#000000;stroke-width:1.0;"/><path d="M22.5,213.5 L22.5,200.5 C22.5,157.9742 55.4887,119.6356 82.1711,95.5812 " fill="none" style="stroke:#000000;stroke-width:1.0;stroke-dasharray:3.0,3.0;"/><path d="M84.2544,97.9527 L83.9498,94.0188 L80.0878,93.2097 L88.0999,90.373 L84.2544,97.9527 " fill="#000000" style="stroke:#000000;stroke-width:1.0;"/><ellipse cx="22.5" cy="213.5" fill="#000000" rx="3" ry="3" style="stroke:#000000;stroke-width:1.0;"/><path d="M149,156.5 L162,156.5 C177.0215,156.5 192.8578,153.6149 207.4381,149.6969 " fill="none" style="stroke:#000000;stroke-width:1.0;stroke-dasharray:3.0,3.0;"/><path d="M208.2913,152.6965 L209.6878,149.0569 L206.5848,146.6972 L214.9371,147.5636 L208.2913,152.6965 " fill="#000000" style="stroke:#000000;stroke-width:1.0;"/><ellipse cx="149" cy="156.5" fill="#000000" rx="3" ry="3" style="stroke:#000000;stroke-width:1.0;"/><path d="M149,177.5 L162,177.5 C176.7057,177.5 192.6099,177.5 207.3684,177.5 " fill="none" style="stroke:#000000;stroke-width:1.0;stroke-dasharray:3.0,3.0;"/><path d="M207.3684,180.5404 L209.6487,177.5 L207.3684,174.4596 L214.9694,177.5 L207.3684,180.5404 " fill="#000000" style="stroke:#000000;stroke-width:1.0;"/><ellipse cx="149" cy="177.5" fill="#000000" rx="3" ry="3" style="stroke:#000000;stroke-width:1.0;"/><path d="M22,231.5 L35,231.5 C60.2834,231.5 82.2272,211.9168 96.7897,194.4157 " fill="none" style="stroke:#000000;stroke-width:1.0;stroke-dasharray:3.0,3.0;"/><path d="M99.315,196.4252 L98.2968,192.5217 L94.2643,192.4062 L101.8133,188.1023 L99.315,196.4252 " fill="#000000" style="stroke:#000000;stroke-width:1.0;"/><ellipse cx="22" cy="231.5" fill="#000000" rx="3" ry="3" style="stroke:#000000;stroke-width:1.0;"/><path d="M149,240.5 L162,240.5 C176.7692,240.5 192.6348,239.0274 207.3322,237.0374 " fill="none" style="stroke:#000000;stroke-width:1.0;stroke-dasharray:3.0,3.0;"/><path d="M207.7653,240.0643 L209.6023,236.7125 L206.8991,234.0105 L214.8994,235.9546 L207.7653,240.0643 " fill="#000000" style="stroke:#000000;stroke-width:1.0;"/><ellipse cx="149" cy="240.5" fill="#000000" rx="3" ry="3" style="stroke:#000000;stroke-width:1.0;"/><path d="M149,261.5 L162,261.5 C176.7692,261.5 192.6348,262.9726 207.3322,264.9626 " fill="none" style="stroke:#000000;stroke-width:1.0;stroke-dasharray:3.0,3.0;"/><path d="M206.8991,267.9895 L209.6023,265.2875 L207.7653,261.9357 L214.8994,266.0454 L206.8991,267.9895 " fill="#000000" style="stroke:#000000;stroke-width:1.0;"/><ellipse cx="149" cy="261.5" fill="#000000" rx="3" ry="3" style="stroke:#000000;stroke-width:1.0;"/><path d="M22,251.5 L35,251.5 C44.2633,251.5 54.1261,251.5 63.6571,251.5 " fill="none" style="stroke:#000000;stroke-width:1.0;stroke-dasharray:3.0,3.0;"/><path d="M63.6571,254.5219 L65.9235,251.5 L63.6571,248.4781 L71.2119,251.5 L63.6571,254.5219 " fill="#000000" style="stroke:#000000;stroke-width:1.0;"/><ellipse cx="22" cy="251.5" fill="#000000" rx="3" ry="3" style="stroke:#000000;stroke-width:1.0;"/><path d="M149,324.5 L162,324.5 C176.7057,324.5 192.6099,324.5 207.3684,324.5 " fill="none" style="stroke:#000000;stroke-width:1.0;stroke-dasharray:3.0,3.0;"/><path d="M207.3684,327.5404 L209.6487,324.5 L207.3684,321.4596 L214.9694,324.5 L207.3684,327.5404 " fill="#000000" style="stroke:#000000;stroke-width:1.0;"/><ellipse cx="149" cy="324.5" fill="#000000" rx="3" ry="3" style="stroke:#000000;stroke-width:1.0;"/><path d="M149,345.5 L162,345.5 C168.343,345.5 197.6451,353.7309 223.1455,361.2675 " fill="none" style="stroke:#000000;stroke-width:1.0;stroke-dasharray:3.0,3.0;"/><path d="M222.2643,364.2334 L225.37,361.9284 L224.0267,358.3016 L230.5603,363.4704 L222.2643,364.2334 " fill="#000000" style="stroke:#000000;stroke-width:1.0;"/><ellipse cx="149" cy="345.5" fill="#000000" rx="3" ry="3" style="stroke:#000000;stroke-width:1.0;"/><path d="M22,272.5 L35,272.5 C59.9731,272.5 81.8148,291.5355 96.422,308.6796 " fill="none" style="stroke:#000000;stroke-width:1.0;stroke-dasharray:3.0,3.0;"/><path d="M93.9452,310.6982 L97.936,310.5371 L98.8987,306.6609 L101.4687,314.8714 L93.9452,310.6982 " fill="#000000" style="stroke:#000000;stroke-width:1.0;"/><ellipse cx="22" cy="272.5" fill="#000000" rx="3" ry="3" style="stroke:#000000;stroke-width:1.0;"/><path d="M149,422.5 L162,422.5 C176.7057,422.5 192.6099,422.5 207.3684,422.5 " fill="none" style="stroke:#000000;stroke-width:1.0;stroke-dasharray:3.0,3.0;"/><path d="M207.3684,425.5404 L209.6487,422.5 L207.3684,419.4596 L214.9694,422.5 L207.3684,425.5404 " fill="#000000" style="stroke:#000000;stroke-width:1.0;"/><ellipse cx="149" cy="422.5" fill="#000000" rx="3" ry="3" style="stroke:#000000;stroke-width:1.0;"/><path d="M149,443.5 L162,443.5 C165.8804,443.5 209.2793,455.8219 238.0579,464.1176 " fill="none" style="stroke:#000000;stroke-width:1.0;stroke-dasharray:3.0,3.0;"/><path d="M237.2115,467.0481 L240.2557,464.7523 L238.9042,461.1871 L245.3841,466.2334 L237.2115,467.0481 " fill="#000000" style="stroke:#000000;stroke-width:1.0;"/><ellipse cx="149" cy="443.5" fill="#000000" rx="3" ry="3" style="stroke:#000000;stroke-width:1.0;"/><path d="M22.5,291.5 L22.5,304.5 C22.5,346.4669 55.2878,384.0767 81.9269,407.7079 " fill="none" style="stroke:#000000;stroke-width:1.0;stroke-dasharray:3.0,3.0;"/><path d="M79.8799,410.0766 L83.7035,409.2431 L83.974,405.3391 L87.8487,412.8255 L79.8799,410.0766 " fill="#000000" style="stroke:#000000;stroke-width:1.0;"/><ellipse cx="22.5" cy="291.5" fill="#000000" rx="3" ry="3" style="stroke:#000000;stroke-width:1.0;"/><!--MD5=[a5793c7c1d3e6e5836c24d1df4ff37bf]
@startjson
[
  {
    "parents": ["徳川家康(初代将軍)", "西郷局"],
    "children": ["秀忠(2代将軍)"]
  },
  {
    "parents": ["秀忠(2代将軍)", "お江"],
    "children": ["家光(3代将軍)"]
  },
  {
    "parents": ["家光(3代将軍)", "お楽の方"],
    "children": ["家綱(4代将軍)"]
  },
  {
    "parents": ["家光(3代将軍)", "お玉"],
    "children": ["綱吉(5代将軍)"]
  },
  {
    "parents": ["家光(3代将軍)", "お夏"],
    "children": ["綱重"]
  }
]
@endjson

PlantUML version 1.2022.6(Wed Jun 22 02:34:49 JST 2022)
(GPL source distribution)
Java Runtime: OpenJDK Runtime Environment
JVM: OpenJDK 64-Bit Server VM
Default Encoding: UTF-8
Language: ja
Country: JP
--></g></svg>