<?xml version="1.0" encoding="UTF-8" standalone="no"?>
<!DOCTYPE svg PUBLIC "-//W3C//DTD SVG 1.1//EN"
 "http://www.w3.org/Graphics/SVG/1.1/DTD/svg11.dtd">
<!-- Generated by graphviz version 5.0.0 (20220707.1540)
 -->
<!-- Title: family Pages: 1 -->
<svg width="777pt" height="314pt"
 viewBox="0.00 0.00 776.80 314.00" xmlns="http://www.w3.org/2000/svg" xmlns:xlink="http://www.w3.org/1999/xlink">
<g id="graph0" class="graph" transform="scale(1 1) rotate(0) translate(4 310)">
<title>family</title>
<polygon fill="white" stroke="transparent" points="-4,4 -4,-310 772.8,-310 772.8,4 -4,4"/>
<!-- 徳川家康(初代将軍) -->
<g id="node1" class="node">
<title>徳川家康(初代将軍)</title>
<polygon fill="#f0f0ff" stroke="black" points="140,-215 0,-215 0,-179 140,-179 140,-215"/>
<text text-anchor="middle" x="70" y="-193.3" font-family="Times,serif" font-size="14.00">徳川家康(初代将軍)</text>
</g>
<!-- 徳川家康(初代将軍)_西郷局 -->
<g id="node2" class="node">
<title>徳川家康(初代将軍)_西郷局</title>
<ellipse fill="black" stroke="black" cx="192.8" cy="-197" rx="1.8" ry="1.8"/>
</g>
<!-- 徳川家康(初代将軍)&#45;&#45;徳川家康(初代将軍)_西郷局 -->
<g id="edge1" class="edge">
<title>徳川家康(初代将軍)&#45;&#45;徳川家康(初代将軍)_西郷局</title>
<path fill="none" stroke="black" d="M140.22,-197C163.84,-197 185.62,-197 190.69,-197"/>
<text text-anchor="middle" x="165.5" y="-200.8" font-family="Times,serif" font-size="14.00">父</text>
</g>
<!-- 西郷局 -->
<g id="node3" class="node">
<title>西郷局</title>
<ellipse fill="#fff0e0" stroke="black" cx="297.6" cy="-224" rx="38.19" ry="18"/>
<text text-anchor="middle" x="297.6" y="-220.3" font-family="Times,serif" font-size="14.00">西郷局</text>
</g>
<!-- 徳川家康(初代将軍)_西郷局&#45;&#45;西郷局 -->
<g id="edge2" class="edge">
<title>徳川家康(初代将軍)_西郷局&#45;&#45;西郷局</title>
<path fill="none" stroke="black" d="M194.95,-197.3C201.7,-199.08 236.69,-208.27 263.76,-215.37"/>
<text text-anchor="middle" x="220.1" y="-208.8" font-family="Times,serif" font-size="14.00">母</text>
</g>
<!-- 秀忠(2代将軍) -->
<g id="node4" class="node">
<title>秀忠(2代将軍)</title>
<polygon fill="#f0f0ff" stroke="black" points="349.6,-188 245.6,-188 245.6,-152 349.6,-152 349.6,-188"/>
<text text-anchor="middle" x="297.6" y="-166.3" font-family="Times,serif" font-size="14.00">秀忠(2代将軍)</text>
</g>
<!-- 徳川家康(初代将軍)_西郷局&#45;&#45;秀忠(2代将軍) -->
<g id="edge3" class="edge">
<title>徳川家康(初代将軍)_西郷局&#45;&#45;秀忠(2代将軍)</title>
<path fill="none" stroke="black" d="M194.71,-196.05C197.26,-193.47 204.79,-186.27 212.6,-183 219.78,-179.99 227.56,-177.67 235.4,-175.88"/>
<polygon fill="black" stroke="black" points="236.2,-179.29 245.31,-173.89 234.82,-172.43 236.2,-179.29"/>
<text text-anchor="middle" x="220.1" y="-186.8" font-family="Times,serif" font-size="14.00">子</text>
</g>
<!-- 秀忠(2代将軍)_お江 -->
<g id="node5" class="node">
<title>秀忠(2代将軍)_お江</title>
<ellipse fill="black" stroke="black" cx="402.4" cy="-170" rx="1.8" ry="1.8"/>
</g>
<!-- 秀忠(2代将軍)&#45;&#45;秀忠(2代将軍)_お江 -->
<g id="edge4" class="edge">
<title>秀忠(2代将軍)&#45;&#45;秀忠(2代将軍)_お江</title>
<path fill="none" stroke="black" d="M349.7,-170C372.27,-170 394.93,-170 400.24,-170"/>
<text text-anchor="middle" x="375.1" y="-173.8" font-family="Times,serif" font-size="14.00">父</text>
</g>
<!-- お江 -->
<g id="node6" class="node">
<title>お江</title>
<ellipse fill="#fff0e0" stroke="black" cx="507.2" cy="-197" rx="29.5" ry="18"/>
<text text-anchor="middle" x="507.2" y="-193.3" font-family="Times,serif" font-size="14.00">お江</text>
</g>
<!-- 秀忠(2代将軍)_お江&#45;&#45;お江 -->
<g id="edge5" class="edge">
<title>秀忠(2代将軍)_お江&#45;&#45;お江</title>
<path fill="none" stroke="black" d="M404.55,-170.3C411.88,-172.23 452.44,-182.88 480.06,-190.13"/>
<text text-anchor="middle" x="429.7" y="-181.8" font-family="Times,serif" font-size="14.00">母</text>
</g>
<!-- 家光(3代将軍) -->
<g id="node7" class="node">
<title>家光(3代将軍)</title>
<polygon fill="#f0f0ff" stroke="black" points="559.2,-161 455.2,-161 455.2,-125 559.2,-125 559.2,-161"/>
<text text-anchor="middle" x="507.2" y="-139.3" font-family="Times,serif" font-size="14.00">家光(3代将軍)</text>
</g>
<!-- 秀忠(2代将軍)_お江&#45;&#45;家光(3代将軍) -->
<g id="edge6" class="edge">
<title>秀忠(2代将軍)_お江&#45;&#45;家光(3代将軍)</title>
<path fill="none" stroke="black" d="M404.31,-169.05C406.86,-166.47 414.39,-159.27 422.2,-156 429.38,-152.99 437.16,-150.67 445,-148.88"/>
<polygon fill="black" stroke="black" points="445.8,-152.29 454.91,-146.89 444.42,-145.43 445.8,-152.29"/>
<text text-anchor="middle" x="429.7" y="-159.8" font-family="Times,serif" font-size="14.00">子</text>
</g>
<!-- 家光(3代将軍)_お楽の方 -->
<g id="node8" class="node">
<title>家光(3代将軍)_お楽の方</title>
<ellipse fill="black" stroke="black" cx="612" cy="-234" rx="1.8" ry="1.8"/>
</g>
<!-- 家光(3代将軍)&#45;&#45;家光(3代将軍)_お楽の方 -->
<g id="edge7" class="edge">
<title>家光(3代将軍)&#45;&#45;家光(3代将軍)_お楽の方</title>
<path fill="none" stroke="black" d="M546.61,-161.13C551.03,-163.85 555.33,-166.82 559.2,-170 584.81,-191.07 606.54,-226.51 610.39,-232.97"/>
<text text-anchor="middle" x="584.7" y="-208.8" font-family="Times,serif" font-size="14.00">父</text>
</g>
<!-- 家光(3代将軍)_お玉 -->
<g id="node11" class="node">
<title>家光(3代将軍)_お玉</title>
<ellipse fill="black" stroke="black" cx="612" cy="-143" rx="1.8" ry="1.8"/>
</g>
<!-- 家光(3代将軍)&#45;&#45;家光(3代将軍)_お玉 -->
<g id="edge10" class="edge">
<title>家光(3代将軍)&#45;&#45;家光(3代将軍)_お玉</title>
<path fill="none" stroke="black" d="M559.3,-143C581.87,-143 604.53,-143 609.84,-143"/>
<text text-anchor="middle" x="584.7" y="-146.8" font-family="Times,serif" font-size="14.00">父</text>
</g>
<!-- 家光(3代将軍)_お夏 -->
<g id="node14" class="node">
<title>家光(3代将軍)_お夏</title>
<ellipse fill="black" stroke="black" cx="612" cy="-72" rx="1.8" ry="1.8"/>
</g>
<!-- 家光(3代将軍)&#45;&#45;家光(3代将軍)_お夏 -->
<g id="edge13" class="edge">
<title>家光(3代将軍)&#45;&#45;家光(3代将軍)_お夏</title>
<path fill="none" stroke="black" d="M534.41,-124.9C562.48,-105.51 603.89,-76.91 610.18,-72.56"/>
<text text-anchor="middle" x="584.7" y="-97.8" font-family="Times,serif" font-size="14.00">父</text>
</g>
<!-- お楽の方 -->
<g id="node9" class="node">
<title>お楽の方</title>
<ellipse fill="#fff0e0" stroke="black" cx="716.8" cy="-288" rx="48.19" ry="18"/>
<text text-anchor="middle" x="716.8" y="-284.3" font-family="Times,serif" font-size="14.00">お楽の方</text>
</g>
<!-- 家光(3代将軍)_お楽の方&#45;&#45;お楽の方 -->
<g id="edge8" class="edge">
<title>家光(3代将軍)_お楽の方&#45;&#45;お楽の方</title>
<path fill="none" stroke="black" d="M613.62,-234.84C615.82,-237.72 623.49,-247.4 631.8,-253 646.34,-262.8 664.07,-270.68 679.48,-276.46"/>
<text text-anchor="middle" x="639.3" y="-264.8" font-family="Times,serif" font-size="14.00">母</text>
</g>
<!-- 家綱(4代将軍) -->
<g id="node10" class="node">
<title>家綱(4代将軍)</title>
<polygon fill="#f0f0ff" stroke="black" points="768.8,-252 664.8,-252 664.8,-216 768.8,-216 768.8,-252"/>
<text text-anchor="middle" x="716.8" y="-230.3" font-family="Times,serif" font-size="14.00">家綱(4代将軍)</text>
</g>
<!-- 家光(3代将軍)_お楽の方&#45;&#45;家綱(4代将軍) -->
<g id="edge9" class="edge">
<title>家光(3代将軍)_お楽の方&#45;&#45;家綱(4代将軍)</title>
<path fill="none" stroke="black" d="M614.15,-234C618.66,-234 635.77,-234 654.69,-234"/>
<polygon fill="black" stroke="black" points="654.7,-237.5 664.7,-234 654.7,-230.5 654.7,-237.5"/>
<text text-anchor="middle" x="639.3" y="-237.8" font-family="Times,serif" font-size="14.00">子</text>
</g>
<!-- お玉 -->
<g id="node12" class="node">
<title>お玉</title>
<ellipse fill="#fff0e0" stroke="black" cx="716.8" cy="-180" rx="29.5" ry="18"/>
<text text-anchor="middle" x="716.8" y="-176.3" font-family="Times,serif" font-size="14.00">お玉</text>
</g>
<!-- 家光(3代将軍)_お玉&#45;&#45;お玉 -->
<g id="edge11" class="edge">
<title>家光(3代将軍)_お玉&#45;&#45;お玉</title>
<path fill="none" stroke="black" d="M613.92,-143.97C616.48,-146.64 624.04,-154.11 631.8,-158 649.59,-166.92 671.37,-172.49 688.29,-175.79"/>
<text text-anchor="middle" x="639.3" y="-166.8" font-family="Times,serif" font-size="14.00">母</text>
</g>
<!-- 綱吉(5代将軍) -->
<g id="node13" class="node">
<title>綱吉(5代将軍)</title>
<polygon fill="#f0f0ff" stroke="black" points="768.8,-144 664.8,-144 664.8,-108 768.8,-108 768.8,-144"/>
<text text-anchor="middle" x="716.8" y="-122.3" font-family="Times,serif" font-size="14.00">綱吉(5代将軍)</text>
</g>
<!-- 家光(3代将軍)_お玉&#45;&#45;綱吉(5代将軍) -->
<g id="edge12" class="edge">
<title>家光(3代将軍)_お玉&#45;&#45;綱吉(5代将軍)</title>
<path fill="none" stroke="black" d="M614.15,-142.81C618.66,-142.06 635.77,-139.23 654.69,-136.1"/>
<polygon fill="black" stroke="black" points="655.41,-139.53 664.7,-134.45 654.26,-132.63 655.41,-139.53"/>
<text text-anchor="middle" x="639.3" y="-142.8" font-family="Times,serif" font-size="14.00">子</text>
</g>
<!-- お夏 -->
<g id="node15" class="node">
<title>お夏</title>
<ellipse fill="#fff0e0" stroke="black" cx="716.8" cy="-72" rx="29.5" ry="18"/>
<text text-anchor="middle" x="716.8" y="-68.3" font-family="Times,serif" font-size="14.00">お夏</text>
</g>
<!-- 家光(3代将軍)_お夏&#45;&#45;お夏 -->
<g id="edge14" class="edge">
<title>家光(3代将軍)_お夏&#45;&#45;お夏</title>
<path fill="none" stroke="black" d="M614.15,-72C621.28,-72 659.87,-72 687.39,-72"/>
<text text-anchor="middle" x="639.3" y="-75.8" font-family="Times,serif" font-size="14.00">母</text>
</g>
<!-- 綱重 -->
<g id="node16" class="node">
<title>綱重</title>
<polygon fill="#f0f0ff" stroke="black" points="743.8,-36 689.8,-36 689.8,0 743.8,0 743.8,-36"/>
<text text-anchor="middle" x="716.8" y="-14.3" font-family="Times,serif" font-size="14.00">綱重</text>
</g>
<!-- 家光(3代将軍)_お夏&#45;&#45;綱重 -->
<g id="edge15" class="edge">
<title>家光(3代将軍)_お夏&#45;&#45;綱重</title>
<path fill="none" stroke="black" d="M613.62,-71.16C615.82,-68.28 623.49,-58.6 631.8,-53 646.42,-43.15 664.25,-35.24 679.71,-29.45"/>
<polygon fill="black" stroke="black" points="681.25,-32.62 689.48,-25.95 678.88,-26.03 681.25,-32.62"/>
<text text-anchor="middle" x="639.3" y="-56.8" font-family="Times,serif" font-size="14.00">子</text>
</g>
</g>
</svg>
