<?xml version="1.0" encoding="UTF-8" standalone="no"?><svg xmlns="http://www.w3.org/2000/svg" xmlns:xlink="http://www.w3.org/1999/xlink" contentStyleType="text/css" height="172px" preserveAspectRatio="none" style="width:756px;height:172px;background:#FFFFFF;" version="1.1" viewBox="0 0 756 172" width="756px" zoomAndPan="magnify"><defs/><g><rect fill="#F1F1F1" height="61.4648" rx="5" ry="5" style="stroke:#F1F1F1;stroke-width:1.5;" width="156" x="10" y="10"/><text fill="#000000" font-family="sans-serif" font-size="14" font-weight="bold" lengthAdjust="spacing" textLength="14" x="15" y="25.5352">父</text><text fill="#000000" font-family="sans-serif" font-size="14" lengthAdjust="spacing" textLength="122" x="39" y="25.5352">徳川家康(初代将軍)</text><line style="stroke:#000000;stroke-width:1.0;" x1="34" x2="34" y1="10" y2="30.4883"/><line style="stroke:#000000;stroke-width:1.0;" x1="10" x2="166" y1="30.4883" y2="30.4883"/><text fill="#000000" font-family="sans-serif" font-size="14" font-weight="bold" lengthAdjust="spacing" textLength="14" x="15" y="46.0234">母</text><text fill="#000000" font-family="sans-serif" font-size="14" lengthAdjust="spacing" textLength="42" x="39" y="46.0234">西郷局</text><line style="stroke:#000000;stroke-width:1.0;" x1="34" x2="34" y1="30.4883" y2="50.9766"/><line style="stroke:#000000;stroke-width:1.0;" x1="10" x2="166" y1="50.9766" y2="50.9766"/><text fill="#000000" font-family="sans-serif" font-size="14" font-weight="bold" lengthAdjust="spacing" textLength="14" x="15" y="66.5117">子</text><text fill="#000000" font-family="sans-serif" font-size="14" lengthAdjust="spacing" textLength="12" x="39" y="66.5117">   </text><line style="stroke:#000000;stroke-width:1.0;" x1="34" x2="34" y1="50.9766" y2="71.4648"/><rect fill="none" height="61.4648" rx="5" ry="5" style="stroke:#000000;stroke-width:1.5;" width="156" x="10" y="10"/><rect fill="#F1F1F1" height="20.4883" rx="5" ry="5" style="stroke:#F1F1F1;stroke-width:1.5;" width="22" x="203" y="50.5"/><text fill="#000000" font-family="sans-serif" font-size="14" lengthAdjust="spacing" textLength="12" x="208" y="66.0352">   </text><rect fill="none" height="20.4883" rx="5" ry="5" style="stroke:#000000;stroke-width:1.5;" width="22" x="203" y="50.5"/><rect fill="#F1F1F1" height="61.4648" rx="5" ry="5" style="stroke:#F1F1F1;stroke-width:1.5;" width="123" x="264" y="30"/><text fill="#000000" font-family="sans-serif" font-size="14" font-weight="bold" lengthAdjust="spacing" textLength="14" x="269" y="45.5352">父</text><text fill="#000000" font-family="sans-serif" font-size="14" lengthAdjust="spacing" textLength="89" x="293" y="45.5352">秀忠(2代将軍)</text><line style="stroke:#000000;stroke-width:1.0;" x1="288" x2="288" y1="30" y2="50.4883"/><line style="stroke:#000000;stroke-width:1.0;" x1="264" x2="387" y1="50.4883" y2="50.4883"/><text fill="#000000" font-family="sans-serif" font-size="14" font-weight="bold" lengthAdjust="spacing" textLength="14" x="269" y="66.0234">母</text><text fill="#000000" font-family="sans-serif" font-size="14" lengthAdjust="spacing" textLength="28" x="293" y="66.0234">お江</text><line style="stroke:#000000;stroke-width:1.0;" x1="288" x2="288" y1="50.4883" y2="70.9766"/><line style="stroke:#000000;stroke-width:1.0;" x1="264" x2="387" y1="70.9766" y2="70.9766"/><text fill="#000000" font-family="sans-serif" font-size="14" font-weight="bold" lengthAdjust="spacing" textLength="14" x="269" y="86.5117">子</text><text fill="#000000" font-family="sans-serif" font-size="14" lengthAdjust="spacing" textLength="12" x="293" y="86.5117">   </text><line style="stroke:#000000;stroke-width:1.0;" x1="288" x2="288" y1="70.9766" y2="91.4648"/><rect fill="none" height="61.4648" rx="5" ry="5" style="stroke:#000000;stroke-width:1.5;" width="123" x="264" y="30"/><rect fill="#F1F1F1" height="20.4883" rx="5" ry="5" style="stroke:#F1F1F1;stroke-width:1.5;" width="22" x="424" y="70.5"/><text fill="#000000" font-family="sans-serif" font-size="14" lengthAdjust="spacing" textLength="12" x="429" y="86.0352">   </text><rect fill="none" height="20.4883" rx="5" ry="5" style="stroke:#000000;stroke-width:1.5;" width="22" x="424" y="70.5"/><rect fill="#F1F1F1" height="61.4648" rx="5" ry="5" style="stroke:#F1F1F1;stroke-width:1.5;" width="123" x="485" y="50"/><text fill="#000000" font-family="sans-serif" font-size="14" font-weight="bold" lengthAdjust="spacing" textLength="14" x="490" y="65.5352">父</text><text fill="#000000" font-family="sans-serif" font-size="14" lengthAdjust="spacing" textLength="89" x="514" y="65.5352">家光(3代将軍)</text><line style="stroke:#000000;stroke-width:1.0;" x1="509" x2="509" y1="50" y2="70.4883"/><line style="stroke:#000000;stroke-width:1.0;" x1="485" x2="608" y1="70.4883" y2="70.4883"/><text fill="#000000" font-family="sans-serif" font-size="14" font-weight="bold" lengthAdjust="spacing" textLength="14" x="490" y="86.0234">母</text><text fill="#000000" font-family="sans-serif" font-size="14" lengthAdjust="spacing" textLength="12" x="514" y="86.0234">   </text><line style="stroke:#000000;stroke-width:1.0;" x1="509" x2="509" y1="70.4883" y2="90.9766"/><line style="stroke:#000000;stroke-width:1.0;" x1="485" x2="608" y1="90.9766" y2="90.9766"/><text fill="#000000" font-family="sans-serif" font-size="14" font-weight="bold" lengthAdjust="spacing" textLength="14" x="490" y="106.5117">子</text><text fill="#000000" font-family="sans-serif" font-size="14" lengthAdjust="spacing" textLength="12" x="514" y="106.5117">   </text><line style="stroke:#000000;stroke-width:1.0;" x1="509" x2="509" y1="90.9766" y2="111.4648"/><rect fill="none" height="61.4648" rx="5" ry="5" style="stroke:#000000;stroke-width:1.5;" width="123" x="485" y="50"/><rect fill="#F1F1F1" height="61.4648" rx="5" ry="5" style="stroke:#F1F1F1;stroke-width:1.5;" width="66" x="661.5" y="20"/><text fill="#000000" font-family="sans-serif" font-size="14" lengthAdjust="spacing" textLength="56" x="666.5" y="35.5352">お楽の方</text><line style="stroke:#000000;stroke-width:1.0;" x1="661.5" x2="727.5" y1="40.4883" y2="40.4883"/><text fill="#000000" font-family="sans-serif" font-size="14" lengthAdjust="spacing" textLength="28" x="666.5" y="56.0234">お玉</text><line style="stroke:#000000;stroke-width:1.0;" x1="661.5" x2="727.5" y1="60.9766" y2="60.9766"/><text fill="#000000" font-family="sans-serif" font-size="14" lengthAdjust="spacing" textLength="28" x="666.5" y="76.5117">お夏</text><rect fill="none" height="61.4648" rx="5" ry="5" style="stroke:#000000;stroke-width:1.5;" width="66" x="661.5" y="20"/><rect fill="#F1F1F1" height="61.4648" rx="5" ry="5" style="stroke:#F1F1F1;stroke-width:1.5;" width="99" x="645" y="99"/><text fill="#000000" font-family="sans-serif" font-size="14" lengthAdjust="spacing" textLength="89" x="650" y="114.5352">家綱(4代将軍)</text><line style="stroke:#000000;stroke-width:1.0;" x1="645" x2="744" y1="119.4883" y2="119.4883"/><text fill="#000000" font-family="sans-serif" font-size="14" lengthAdjust="spacing" textLength="89" x="650" y="135.0234">綱吉(5代将軍)</text><line style="stroke:#000000;stroke-width:1.0;" x1="645" x2="744" y1="139.9766" y2="139.9766"/><text fill="#000000" font-family="sans-serif" font-size="14" lengthAdjust="spacing" textLength="28" x="650" y="155.5117">綱重</text><rect fill="none" height="61.4648" rx="5" ry="5" style="stroke:#000000;stroke-width:1.5;" width="99" x="645" y="99"/><path d="M596,79.5 L609,79.5 C624.4021,79.5 640.5738,75.1822 654.6278,69.8787 " fill="none" style="stroke:#000000;stroke-width:1.0;stroke-dasharray:3.0,3.0;"/><path d="M655.766,72.7351 L656.7701,69.025 L653.4896,67.0223 L661.7688,67.0331 L655.766,72.7351 " fill="#000000" style="stroke:#000000;stroke-width:1.0;"/><ellipse cx="596" cy="79.5" fill="#000000" rx="3" ry="3" style="stroke:#000000;stroke-width:1.0;"/><path d="M596,100.5 L609,100.5 C618.4735,100.5 628.238,102.1335 637.6219,104.6252 " fill="none" style="stroke:#000000;stroke-width:1.0;stroke-dasharray:3.0,3.0;"/><path d="M636.7549,107.5976 L639.8513,105.2754 L638.4889,101.6527 L645.0531,106.7926 L636.7549,107.5976 " fill="#000000" style="stroke:#000000;stroke-width:1.0;"/><ellipse cx="596" cy="100.5" fill="#000000" rx="3" ry="3" style="stroke:#000000;stroke-width:1.0;"/><path d="M435.6368,80.5 L448.6368,80.5 C456.147,80.5 466.4569,80.5 477.5702,80.5 " fill="none" style="stroke:#000000;stroke-width:1.0;stroke-dasharray:3.0,3.0;"/><path d="M477.5702,83.6191 L479.9095,80.5 L477.5702,77.3809 L485.3679,80.5 L477.5702,83.6191 " fill="#000000" style="stroke:#000000;stroke-width:1.0;"/><ellipse cx="435.6368" cy="80.5" fill="#000000" rx="3" ry="3" style="stroke:#000000;stroke-width:1.0;"/><path d="M375,80.5 L388,80.5 C397.374,80.5 407.7885,80.5 416.4714,80.5 " fill="none" style="stroke:#000000;stroke-width:1.0;stroke-dasharray:3.0,3.0;"/><path d="M416.4714,83.5815 L418.7825,80.5 L416.4714,77.4185 L424.1751,80.5 L416.4714,83.5815 " fill="#000000" style="stroke:#000000;stroke-width:1.0;"/><ellipse cx="375" cy="80.5" fill="#000000" rx="3" ry="3" style="stroke:#000000;stroke-width:1.0;"/><path d="M214.6368,60.5 L227.6368,60.5 C235.147,60.5 245.4569,60.5 256.5702,60.5 " fill="none" style="stroke:#000000;stroke-width:1.0;stroke-dasharray:3.0,3.0;"/><path d="M256.5702,63.6191 L258.9095,60.5 L256.5702,57.3809 L264.3679,60.5 L256.5702,63.6191 " fill="#000000" style="stroke:#000000;stroke-width:1.0;"/><ellipse cx="214.6368" cy="60.5" fill="#000000" rx="3" ry="3" style="stroke:#000000;stroke-width:1.0;"/><path d="M154,60.5 L167,60.5 C176.374,60.5 186.7885,60.5 195.4714,60.5 " fill="none" style="stroke:#000000;stroke-width:1.0;stroke-dasharray:3.0,3.0;"/><path d="M195.4714,63.5815 L197.7825,60.5 L195.4714,57.4185 L203.1751,60.5 L195.4714,63.5815 " fill="#000000" style="stroke:#000000;stroke-width:1.0;"/><ellipse cx="154" cy="60.5" fill="#000000" rx="3" ry="3" style="stroke:#000000;stroke-width:1.0;"/><!--MD5=[d2578074b1ee86c5b9f48e515da9dc4b]
@startjson
{
  "父": "徳川家康(初代将軍)",
  "母": "西郷局",
  "子": [
    {
      "父": "秀忠(2代将軍)",
      "母": "お江",
      "子": [
        {
          "父": "家光(3代将軍)",
          "母": [
            "お楽の方",
            "お玉",
            "お夏"
          ],
          "子": [
            "家綱(4代将軍)",
            "綱吉(5代将軍)",
            "綱重"
          ]
        }
      ]
    }
  ]
}
@endjson

PlantUML version 1.2022.6(Wed Jun 22 02:34:49 JST 2022)
(GPL source distribution)
Java Runtime: OpenJDK Runtime Environment
JVM: OpenJDK 64-Bit Server VM
Default Encoding: UTF-8
Language: ja
Country: JP
--></g></svg>