<?xml version="1.0" encoding="UTF-8" standalone="no"?>
<!DOCTYPE svg PUBLIC "-//W3C//DTD SVG 1.1//EN"
 "http://www.w3.org/Graphics/SVG/1.1/DTD/svg11.dtd">
<!-- Generated by graphviz version 5.0.0 (20220707.1540)
 -->
<!-- Title: family Pages: 1 -->
<svg width="726pt" height="379pt"
 viewBox="0.00 0.00 726.00 378.80" xmlns="http://www.w3.org/2000/svg" xmlns:xlink="http://www.w3.org/1999/xlink">
<g id="graph0" class="graph" transform="scale(1 1) rotate(0) translate(4 374.8)">
<title>family</title>
<polygon fill="white" stroke="transparent" points="-4,4 -4,-374.8 722,-374.8 722,4 -4,4"/>
<!-- 木下弥右衛門 -->
<g id="node1" class="node">
<title>木下弥右衛門</title>
<polygon fill="#f0f0ff" stroke="black" points="316,-370.8 214,-370.8 214,-334.8 316,-334.8 316,-370.8"/>
<text text-anchor="middle" x="265" y="-349.1" font-family="Times,serif" font-size="14.00">木下弥右衛門</text>
</g>
<!-- 木下弥右衛門_なか -->
<g id="node3" class="node">
<title>木下弥右衛門_なか</title>
<ellipse fill="black" stroke="black" cx="336" cy="-352.8" rx="1.8" ry="1.8"/>
</g>
<!-- 木下弥右衛門&#45;&#45;木下弥右衛門_なか -->
<g id="edge1" class="edge">
<title>木下弥右衛門&#45;&#45;木下弥右衛門_なか</title>
<path fill="none" stroke="black" d="M316.03,-352.8C322.06,-352.8 328.1,-352.8 334.13,-352.8"/>
</g>
<!-- なか -->
<g id="node2" class="node">
<title>なか</title>
<polygon fill="#fff0f0" stroke="black" points="410,-370.8 356,-370.8 356,-334.8 410,-334.8 410,-370.8"/>
<text text-anchor="middle" x="383" y="-349.1" font-family="Times,serif" font-size="14.00">なか</text>
</g>
<!-- 木下弥右衛門_なか&#45;&#45;なか -->
<g id="edge2" class="edge">
<title>木下弥右衛門_なか&#45;&#45;なか</title>
<path fill="none" stroke="black" d="M337.84,-352.8C343.83,-352.8 349.83,-352.8 355.83,-352.8"/>
</g>
<!-- 木下弥右衛門_なか_pc -->
<g id="node4" class="node">
<title>木下弥右衛門_なか_pc</title>
<ellipse fill="black" stroke="black" cx="336" cy="-297" rx="1.8" ry="1.8"/>
</g>
<!-- 木下弥右衛門_なか&#45;&#45;木下弥右衛門_なか_pc -->
<g id="edge3" class="edge">
<title>木下弥右衛門_なか&#45;&#45;木下弥右衛門_なか_pc</title>
<path fill="none" stroke="black" d="M336,-350.87C336,-344.39 336,-306.23 336,-299.14"/>
</g>
<!-- 豊臣秀吉 -->
<g id="node5" class="node">
<title>豊臣秀吉</title>
<polygon fill="#f0f0ff" stroke="black" points="74,-259.2 0,-259.2 0,-223.2 74,-223.2 74,-259.2"/>
<text text-anchor="middle" x="37" y="-237.5" font-family="Times,serif" font-size="14.00">豊臣秀吉</text>
</g>
<!-- 木下弥右衛門_なか_pc&#45;&#45;豊臣秀吉 -->
<g id="edge4" class="edge">
<title>木下弥右衛門_なか_pc&#45;&#45;豊臣秀吉</title>
<path fill="none" stroke="black" d="M334.37,-295.89C318.27,-294.83 186.23,-285.47 83,-259.2 80.11,-258.47 77.15,-257.61 74.2,-256.69"/>
</g>
<!-- とも -->
<g id="node6" class="node">
<title>とも</title>
<polygon fill="#fff0f0" stroke="black" points="663,-259.2 609,-259.2 609,-223.2 663,-223.2 663,-259.2"/>
<text text-anchor="middle" x="636" y="-237.5" font-family="Times,serif" font-size="14.00">とも</text>
</g>
<!-- 木下弥右衛門_なか_pc&#45;&#45;とも -->
<g id="edge5" class="edge">
<title>木下弥右衛門_なか_pc&#45;&#45;とも</title>
<path fill="none" stroke="black" d="M337.72,-295.96C354.66,-295.51 493.57,-290.94 600,-259.2 602.91,-258.33 605.89,-257.26 608.82,-256.08"/>
</g>
<!-- 豊臣秀吉_おね(正室) -->
<g id="node8" class="node">
<title>豊臣秀吉_おね(正室)</title>
<ellipse fill="black" stroke="black" cx="188" cy="-241.2" rx="1.8" ry="1.8"/>
</g>
<!-- 豊臣秀吉&#45;&#45;豊臣秀吉_おね(正室) -->
<g id="edge6" class="edge">
<title>豊臣秀吉&#45;&#45;豊臣秀吉_おね(正室)</title>
<path fill="none" stroke="black" d="M58.26,-259.28C67.91,-266.33 79.86,-273.58 92,-277.2 124.37,-286.85 138.89,-294.33 168,-277.2 181.31,-269.37 186.4,-249.12 187.66,-242.99"/>
</g>
<!-- 豊臣秀吉_茶々 -->
<g id="node10" class="node">
<title>豊臣秀吉_茶々</title>
<ellipse fill="black" stroke="black" cx="94" cy="-241.2" rx="1.8" ry="1.8"/>
</g>
<!-- 豊臣秀吉&#45;&#45;豊臣秀吉_茶々 -->
<g id="edge8" class="edge">
<title>豊臣秀吉&#45;&#45;豊臣秀吉_茶々</title>
<path fill="none" stroke="black" d="M74.41,-241.2C80.33,-241.2 86.24,-241.2 92.16,-241.2"/>
</g>
<!-- おね(正室) -->
<g id="node7" class="node">
<title>おね(正室)</title>
<polygon fill="#fff0f0" stroke="black" points="290.5,-259.2 207.5,-259.2 207.5,-223.2 290.5,-223.2 290.5,-259.2"/>
<text text-anchor="middle" x="249" y="-237.5" font-family="Times,serif" font-size="14.00">おね(正室)</text>
</g>
<!-- 豊臣秀吉_おね(正室)&#45;&#45;おね(正室) -->
<g id="edge7" class="edge">
<title>豊臣秀吉_おね(正室)&#45;&#45;おね(正室)</title>
<path fill="none" stroke="black" d="M189.91,-241.2C195.75,-241.2 201.6,-241.2 207.45,-241.2"/>
</g>
<!-- 茶々 -->
<g id="node9" class="node">
<title>茶々</title>
<polygon fill="#fff0f0" stroke="black" points="168,-259.2 114,-259.2 114,-223.2 168,-223.2 168,-259.2"/>
<text text-anchor="middle" x="141" y="-237.5" font-family="Times,serif" font-size="14.00">茶々</text>
</g>
<!-- 豊臣秀吉_茶々&#45;&#45;茶々 -->
<g id="edge9" class="edge">
<title>豊臣秀吉_茶々&#45;&#45;茶々</title>
<path fill="none" stroke="black" d="M95.84,-241.2C101.83,-241.2 107.83,-241.2 113.83,-241.2"/>
</g>
<!-- 豊臣秀吉_茶々_pc -->
<g id="node11" class="node">
<title>豊臣秀吉_茶々_pc</title>
<ellipse fill="black" stroke="black" cx="98" cy="-185.4" rx="1.8" ry="1.8"/>
</g>
<!-- 豊臣秀吉_茶々&#45;&#45;豊臣秀吉_茶々_pc -->
<g id="edge10" class="edge">
<title>豊臣秀吉_茶々&#45;&#45;豊臣秀吉_茶々_pc</title>
<path fill="none" stroke="black" d="M94.07,-239.27C94.55,-232.79 97.39,-194.63 97.92,-187.54"/>
</g>
<!-- 豊臣鶴松 -->
<g id="node12" class="node">
<title>豊臣鶴松</title>
<polygon fill="none" stroke="black" points="135,-147.6 61,-147.6 61,-111.6 135,-111.6 135,-147.6"/>
<text text-anchor="middle" x="98" y="-125.9" font-family="Times,serif" font-size="14.00">豊臣鶴松</text>
</g>
<!-- 豊臣秀吉_茶々_pc&#45;&#45;豊臣鶴松 -->
<g id="edge11" class="edge">
<title>豊臣秀吉_茶々_pc&#45;&#45;豊臣鶴松</title>
<path fill="none" stroke="black" d="M98,-183.47C98,-179.25 98,-161.62 98,-147.86"/>
</g>
<!-- 豊臣秀頼 -->
<g id="node13" class="node">
<title>豊臣秀頼</title>
<polygon fill="#f0f0ff" stroke="black" points="255,-147.6 181,-147.6 181,-111.6 255,-111.6 255,-147.6"/>
<text text-anchor="middle" x="218" y="-125.9" font-family="Times,serif" font-size="14.00">豊臣秀頼</text>
</g>
<!-- 豊臣秀吉_茶々_pc&#45;&#45;豊臣秀頼 -->
<g id="edge12" class="edge">
<title>豊臣秀吉_茶々_pc&#45;&#45;豊臣秀頼</title>
<path fill="none" stroke="black" d="M99.35,-183.8C107.33,-180.22 149.14,-161.47 180.89,-147.24"/>
</g>
<!-- 豊臣秀頼_千姫 -->
<g id="node21" class="node">
<title>豊臣秀頼_千姫</title>
<ellipse fill="black" stroke="black" cx="289" cy="-129.6" rx="1.8" ry="1.8"/>
</g>
<!-- 豊臣秀頼&#45;&#45;豊臣秀頼_千姫 -->
<g id="edge19" class="edge">
<title>豊臣秀頼&#45;&#45;豊臣秀頼_千姫</title>
<path fill="none" stroke="black" d="M255.16,-129.6C265.83,-129.6 276.49,-129.6 287.15,-129.6"/>
</g>
<!-- 三好良房 -->
<g id="node14" class="node">
<title>三好良房</title>
<polygon fill="#f0f0ff" stroke="black" points="569,-259.2 495,-259.2 495,-223.2 569,-223.2 569,-259.2"/>
<text text-anchor="middle" x="532" y="-237.5" font-family="Times,serif" font-size="14.00">三好良房</text>
</g>
<!-- 三好良房_とも -->
<g id="node15" class="node">
<title>三好良房_とも</title>
<ellipse fill="black" stroke="black" cx="589" cy="-241.2" rx="1.8" ry="1.8"/>
</g>
<!-- 三好良房&#45;&#45;三好良房_とも -->
<g id="edge13" class="edge">
<title>三好良房&#45;&#45;三好良房_とも</title>
<path fill="none" stroke="black" d="M569.41,-241.2C575.33,-241.2 581.24,-241.2 587.16,-241.2"/>
</g>
<!-- 三好良房_とも&#45;&#45;とも -->
<g id="edge14" class="edge">
<title>三好良房_とも&#45;&#45;とも</title>
<path fill="none" stroke="black" d="M590.84,-241.2C596.83,-241.2 602.83,-241.2 608.83,-241.2"/>
</g>
<!-- 三好良房_とも_pc -->
<g id="node16" class="node">
<title>三好良房_とも_pc</title>
<ellipse fill="black" stroke="black" cx="589" cy="-185.4" rx="1.8" ry="1.8"/>
</g>
<!-- 三好良房_とも&#45;&#45;三好良房_とも_pc -->
<g id="edge15" class="edge">
<title>三好良房_とも&#45;&#45;三好良房_とも_pc</title>
<path fill="none" stroke="black" d="M589,-239.27C589,-232.79 589,-194.63 589,-187.54"/>
</g>
<!-- 豊臣秀次 -->
<g id="node17" class="node">
<title>豊臣秀次</title>
<polygon fill="none" stroke="black" points="534,-147.6 460,-147.6 460,-111.6 534,-111.6 534,-147.6"/>
<text text-anchor="middle" x="497" y="-125.9" font-family="Times,serif" font-size="14.00">豊臣秀次</text>
</g>
<!-- 三好良房_とも_pc&#45;&#45;豊臣秀次 -->
<g id="edge16" class="edge">
<title>三好良房_とも_pc&#45;&#45;豊臣秀次</title>
<path fill="none" stroke="black" d="M587.97,-183.8C581.93,-180.26 550.61,-161.95 526.39,-147.79"/>
</g>
<!-- 豊臣秀勝 -->
<g id="node18" class="node">
<title>豊臣秀勝</title>
<polygon fill="none" stroke="black" points="626,-147.6 552,-147.6 552,-111.6 626,-111.6 626,-147.6"/>
<text text-anchor="middle" x="589" y="-125.9" font-family="Times,serif" font-size="14.00">豊臣秀勝</text>
</g>
<!-- 三好良房_とも_pc&#45;&#45;豊臣秀勝 -->
<g id="edge17" class="edge">
<title>三好良房_とも_pc&#45;&#45;豊臣秀勝</title>
<path fill="none" stroke="black" d="M589,-183.47C589,-179.25 589,-161.62 589,-147.86"/>
</g>
<!-- 豊臣秀保 -->
<g id="node19" class="node">
<title>豊臣秀保</title>
<polygon fill="none" stroke="black" points="718,-147.6 644,-147.6 644,-111.6 718,-111.6 718,-147.6"/>
<text text-anchor="middle" x="681" y="-125.9" font-family="Times,serif" font-size="14.00">豊臣秀保</text>
</g>
<!-- 三好良房_とも_pc&#45;&#45;豊臣秀保 -->
<g id="edge18" class="edge">
<title>三好良房_とも_pc&#45;&#45;豊臣秀保</title>
<path fill="none" stroke="black" d="M590.03,-183.8C596.07,-180.26 627.39,-161.95 651.61,-147.79"/>
</g>
<!-- 千姫 -->
<g id="node20" class="node">
<title>千姫</title>
<polygon fill="#fff0f0" stroke="black" points="370,-147.6 316,-147.6 316,-111.6 370,-111.6 370,-147.6"/>
<text text-anchor="middle" x="343" y="-125.9" font-family="Times,serif" font-size="14.00">千姫</text>
</g>
<!-- 豊臣秀頼_千姫&#45;&#45;千姫 -->
<g id="edge20" class="edge">
<title>豊臣秀頼_千姫&#45;&#45;千姫</title>
<path fill="none" stroke="black" d="M291.11,-129.6C299.35,-129.6 307.6,-129.6 315.84,-129.6"/>
</g>
<!-- 豊臣秀頼_千姫_pc -->
<g id="node22" class="node">
<title>豊臣秀頼_千姫_pc</title>
<ellipse fill="black" stroke="black" cx="289" cy="-73.8" rx="1.8" ry="1.8"/>
</g>
<!-- 豊臣秀頼_千姫&#45;&#45;豊臣秀頼_千姫_pc -->
<g id="edge21" class="edge">
<title>豊臣秀頼_千姫&#45;&#45;豊臣秀頼_千姫_pc</title>
<path fill="none" stroke="black" d="M289,-127.67C289,-121.19 289,-83.03 289,-75.94"/>
</g>
<!-- 豊臣国松 -->
<g id="node23" class="node">
<title>豊臣国松</title>
<polygon fill="none" stroke="black" points="326,-36 252,-36 252,0 326,0 326,-36"/>
<text text-anchor="middle" x="289" y="-14.3" font-family="Times,serif" font-size="14.00">豊臣国松</text>
</g>
<!-- 豊臣秀頼_千姫_pc&#45;&#45;豊臣国松 -->
<g id="edge22" class="edge">
<title>豊臣秀頼_千姫_pc&#45;&#45;豊臣国松</title>
<path fill="none" stroke="black" d="M289,-71.87C289,-67.65 289,-50.02 289,-36.26"/>
</g>
<!-- 徳川秀忠 -->
<g id="node24" class="node">
<title>徳川秀忠</title>
<polygon fill="#f0f0ff" stroke="black" points="383,-259.2 309,-259.2 309,-223.2 383,-223.2 383,-259.2"/>
<text text-anchor="middle" x="346" y="-237.5" font-family="Times,serif" font-size="14.00">徳川秀忠</text>
</g>
<!-- 徳川秀忠_ お江 -->
<g id="node26" class="node">
<title>徳川秀忠_ お江</title>
<ellipse fill="black" stroke="black" cx="403" cy="-241.2" rx="1.8" ry="1.8"/>
</g>
<!-- 徳川秀忠&#45;&#45;徳川秀忠_ お江 -->
<g id="edge23" class="edge">
<title>徳川秀忠&#45;&#45;徳川秀忠_ お江</title>
<path fill="none" stroke="black" d="M383.41,-241.2C389.33,-241.2 395.24,-241.2 401.16,-241.2"/>
</g>
<!--  お江 -->
<g id="node25" class="node">
<title> お江</title>
<polygon fill="#fff0f0" stroke="black" points="477,-259.2 423,-259.2 423,-223.2 477,-223.2 477,-259.2"/>
<text text-anchor="middle" x="450" y="-237.5" font-family="Times,serif" font-size="14.00"> お江</text>
</g>
<!-- 徳川秀忠_ お江&#45;&#45; お江 -->
<g id="edge24" class="edge">
<title>徳川秀忠_ お江&#45;&#45; お江</title>
<path fill="none" stroke="black" d="M404.84,-241.2C410.83,-241.2 416.83,-241.2 422.83,-241.2"/>
</g>
<!-- 徳川秀忠_ お江_pc -->
<g id="node27" class="node">
<title>徳川秀忠_ お江_pc</title>
<ellipse fill="black" stroke="black" cx="347" cy="-185.4" rx="1.8" ry="1.8"/>
</g>
<!-- 徳川秀忠_ お江&#45;&#45;徳川秀忠_ お江_pc -->
<g id="edge25" class="edge">
<title>徳川秀忠_ お江&#45;&#45;徳川秀忠_ お江_pc</title>
<path fill="none" stroke="black" d="M402.5,-239.21C401.09,-236.47 396.88,-228.65 392,-223.2 376.93,-206.35 353.78,-190.81 348.23,-187.19"/>
</g>
<!-- 徳川秀忠_ お江_pc&#45;&#45;千姫 -->
<g id="edge26" class="edge">
<title>徳川秀忠_ お江_pc&#45;&#45;千姫</title>
<path fill="none" stroke="black" d="M346.93,-183.47C346.62,-179.25 345.31,-161.62 344.28,-147.86"/>
</g>
</g>
</svg>
