<?xml version="1.0" encoding="UTF-8" standalone="no"?>
<!DOCTYPE svg PUBLIC "-//W3C//DTD SVG 1.1//EN"
 "http://www.w3.org/Graphics/SVG/1.1/DTD/svg11.dtd">
<!-- Generated by graphviz version 5.0.0 (20220707.1540)
 -->
<!-- Title: family Pages: 1 -->
<svg width="608pt" height="379pt"
 viewBox="0.00 0.00 608.00 378.80" xmlns="http://www.w3.org/2000/svg" xmlns:xlink="http://www.w3.org/1999/xlink">
<g id="graph0" class="graph" transform="scale(1 1) rotate(0) translate(4 374.8)">
<title>family</title>
<polygon fill="white" stroke="transparent" points="-4,4 -4,-374.8 604,-374.8 604,4 -4,4"/>
<!-- 徳川家康(初代将軍) -->
<g id="node1" class="node">
<title>徳川家康(初代将軍)</title>
<polygon fill="#f0f0ff" stroke="black" points="140,-370.8 0,-370.8 0,-334.8 140,-334.8 140,-370.8"/>
<text text-anchor="middle" x="70" y="-349.1" font-family="Times,serif" font-size="14.00">徳川家康(初代将軍)</text>
</g>
<!-- 徳川家康(初代将軍)_西郷局 -->
<g id="node3" class="node">
<title>徳川家康(初代将軍)_西郷局</title>
<ellipse fill="black" stroke="black" cx="160" cy="-352.8" rx="1.8" ry="1.8"/>
</g>
<!-- 徳川家康(初代将軍)&#45;&#45;徳川家康(初代将軍)_西郷局 -->
<g id="edge1" class="edge">
<title>徳川家康(初代将軍)&#45;&#45;徳川家康(初代将軍)_西郷局</title>
<path fill="none" stroke="black" d="M140.31,-352.8C146.26,-352.8 152.21,-352.8 158.15,-352.8"/>
</g>
<!-- 西郷局 -->
<g id="node2" class="node">
<title>西郷局</title>
<polygon fill="#fff0f0" stroke="black" points="238.5,-370.8 179.5,-370.8 179.5,-334.8 238.5,-334.8 238.5,-370.8"/>
<text text-anchor="middle" x="209" y="-349.1" font-family="Times,serif" font-size="14.00">西郷局</text>
</g>
<!-- 徳川家康(初代将軍)_西郷局&#45;&#45;西郷局 -->
<g id="edge2" class="edge">
<title>徳川家康(初代将軍)_西郷局&#45;&#45;西郷局</title>
<path fill="none" stroke="black" d="M161.91,-352.8C167.68,-352.8 173.44,-352.8 179.2,-352.8"/>
</g>
<!-- 徳川家康(初代将軍)_西郷局_pc -->
<g id="node4" class="node">
<title>徳川家康(初代将軍)_西郷局_pc</title>
<ellipse fill="black" stroke="black" cx="160" cy="-297" rx="1.8" ry="1.8"/>
</g>
<!-- 徳川家康(初代将軍)_西郷局&#45;&#45;徳川家康(初代将軍)_西郷局_pc -->
<g id="edge3" class="edge">
<title>徳川家康(初代将軍)_西郷局&#45;&#45;徳川家康(初代将軍)_西郷局_pc</title>
<path fill="none" stroke="black" d="M160,-350.87C160,-344.39 160,-306.23 160,-299.14"/>
</g>
<!-- 秀忠(2代将軍) -->
<g id="node5" class="node">
<title>秀忠(2代将軍)</title>
<polygon fill="#f0f0ff" stroke="black" points="212,-259.2 108,-259.2 108,-223.2 212,-223.2 212,-259.2"/>
<text text-anchor="middle" x="160" y="-237.5" font-family="Times,serif" font-size="14.00">秀忠(2代将軍)</text>
</g>
<!-- 徳川家康(初代将軍)_西郷局_pc&#45;&#45;秀忠(2代将軍) -->
<g id="edge4" class="edge">
<title>徳川家康(初代将軍)_西郷局_pc&#45;&#45;秀忠(2代将軍)</title>
<path fill="none" stroke="black" d="M160,-295.07C160,-290.85 160,-273.22 160,-259.46"/>
</g>
<!-- 秀忠(2代将軍)_お江 -->
<g id="node7" class="node">
<title>秀忠(2代将軍)_お江</title>
<ellipse fill="black" stroke="black" cx="232" cy="-241.2" rx="1.8" ry="1.8"/>
</g>
<!-- 秀忠(2代将軍)&#45;&#45;秀忠(2代将軍)_お江 -->
<g id="edge5" class="edge">
<title>秀忠(2代将軍)&#45;&#45;秀忠(2代将軍)_お江</title>
<path fill="none" stroke="black" d="M212.03,-241.2C218.06,-241.2 224.1,-241.2 230.13,-241.2"/>
</g>
<!-- お江 -->
<g id="node6" class="node">
<title>お江</title>
<polygon fill="#fff0f0" stroke="black" points="306,-259.2 252,-259.2 252,-223.2 306,-223.2 306,-259.2"/>
<text text-anchor="middle" x="279" y="-237.5" font-family="Times,serif" font-size="14.00">お江</text>
</g>
<!-- 秀忠(2代将軍)_お江&#45;&#45;お江 -->
<g id="edge6" class="edge">
<title>秀忠(2代将軍)_お江&#45;&#45;お江</title>
<path fill="none" stroke="black" d="M233.84,-241.2C239.83,-241.2 245.83,-241.2 251.83,-241.2"/>
</g>
<!-- 秀忠(2代将軍)_お江_pc -->
<g id="node8" class="node">
<title>秀忠(2代将軍)_お江_pc</title>
<ellipse fill="black" stroke="black" cx="232" cy="-185.4" rx="1.8" ry="1.8"/>
</g>
<!-- 秀忠(2代将軍)_お江&#45;&#45;秀忠(2代将軍)_お江_pc -->
<g id="edge7" class="edge">
<title>秀忠(2代将軍)_お江&#45;&#45;秀忠(2代将軍)_お江_pc</title>
<path fill="none" stroke="black" d="M232,-239.27C232,-232.79 232,-194.63 232,-187.54"/>
</g>
<!-- 家光(3代将軍) -->
<g id="node9" class="node">
<title>家光(3代将軍)</title>
<polygon fill="#f0f0ff" stroke="black" points="284,-147.6 180,-147.6 180,-111.6 284,-111.6 284,-147.6"/>
<text text-anchor="middle" x="232" y="-125.9" font-family="Times,serif" font-size="14.00">家光(3代将軍)</text>
</g>
<!-- 秀忠(2代将軍)_お江_pc&#45;&#45;家光(3代将軍) -->
<g id="edge8" class="edge">
<title>秀忠(2代将軍)_お江_pc&#45;&#45;家光(3代将軍)</title>
<path fill="none" stroke="black" d="M232,-183.47C232,-179.25 232,-161.62 232,-147.86"/>
</g>
<!-- 家光(3代将軍)_お楽の方 -->
<g id="node11" class="node">
<title>家光(3代将軍)_お楽の方</title>
<ellipse fill="black" stroke="black" cx="506" cy="-129.6" rx="1.8" ry="1.8"/>
</g>
<!-- 家光(3代将軍)&#45;&#45;家光(3代将軍)_お楽の方 -->
<g id="edge9" class="edge">
<title>家光(3代将軍)&#45;&#45;家光(3代将軍)_お楽の方</title>
<path fill="none" stroke="black" d="M259.74,-147.73C272.14,-154.79 287.26,-162.03 302,-165.6 338.72,-174.49 437.31,-180.55 472,-165.6 489.05,-158.25 501.53,-137.67 505.02,-131.42"/>
</g>
<!-- 家光(3代将軍)_お玉 -->
<g id="node15" class="node">
<title>家光(3代将軍)_お玉</title>
<ellipse fill="black" stroke="black" cx="398" cy="-129.6" rx="1.8" ry="1.8"/>
</g>
<!-- 家光(3代将軍)&#45;&#45;家光(3代将軍)_お玉 -->
<g id="edge13" class="edge">
<title>家光(3代将軍)&#45;&#45;家光(3代将軍)_お玉</title>
<path fill="none" stroke="black" d="M259.74,-147.73C272.14,-154.79 287.26,-162.03 302,-165.6 334.83,-173.55 348.89,-182.73 378,-165.6 391.31,-157.77 396.4,-137.52 397.66,-131.39"/>
</g>
<!-- 家光(3代将軍)_お夏 -->
<g id="node19" class="node">
<title>家光(3代将軍)_お夏</title>
<ellipse fill="black" stroke="black" cx="304" cy="-129.6" rx="1.8" ry="1.8"/>
</g>
<!-- 家光(3代将軍)&#45;&#45;家光(3代将軍)_お夏 -->
<g id="edge17" class="edge">
<title>家光(3代将軍)&#45;&#45;家光(3代将軍)_お夏</title>
<path fill="none" stroke="black" d="M284.03,-129.6C290.06,-129.6 296.1,-129.6 302.13,-129.6"/>
</g>
<!-- お楽の方 -->
<g id="node10" class="node">
<title>お楽の方</title>
<polygon fill="#fff0f0" stroke="black" points="600,-147.6 526,-147.6 526,-111.6 600,-111.6 600,-147.6"/>
<text text-anchor="middle" x="563" y="-125.9" font-family="Times,serif" font-size="14.00">お楽の方</text>
</g>
<!-- 家光(3代将軍)_お楽の方&#45;&#45;お楽の方 -->
<g id="edge10" class="edge">
<title>家光(3代将軍)_お楽の方&#45;&#45;お楽の方</title>
<path fill="none" stroke="black" d="M508.23,-129.6C514.07,-129.6 519.92,-129.6 525.77,-129.6"/>
</g>
<!-- 家光(3代将軍)_お楽の方_pc -->
<g id="node12" class="node">
<title>家光(3代将軍)_お楽の方_pc</title>
<ellipse fill="black" stroke="black" cx="513" cy="-73.8" rx="1.8" ry="1.8"/>
</g>
<!-- 家光(3代将軍)_お楽の方&#45;&#45;家光(3代将軍)_お楽の方_pc -->
<g id="edge11" class="edge">
<title>家光(3代将軍)_お楽の方&#45;&#45;家光(3代将軍)_お楽の方_pc</title>
<path fill="none" stroke="black" d="M506.12,-127.67C506.96,-121.19 511.93,-83.03 512.85,-75.94"/>
</g>
<!-- 家綱(4代将軍) -->
<g id="node13" class="node">
<title>家綱(4代将軍)</title>
<polygon fill="none" stroke="black" points="572,-36 468,-36 468,0 572,0 572,-36"/>
<text text-anchor="middle" x="520" y="-14.3" font-family="Times,serif" font-size="14.00">家綱(4代将軍)</text>
</g>
<!-- 家光(3代将軍)_お楽の方_pc&#45;&#45;家綱(4代将軍) -->
<g id="edge12" class="edge">
<title>家光(3代将軍)_お楽の方_pc&#45;&#45;家綱(4代将軍)</title>
<path fill="none" stroke="black" d="M513.12,-71.87C513.67,-67.65 515.96,-50.02 517.75,-36.26"/>
</g>
<!-- お玉 -->
<g id="node14" class="node">
<title>お玉</title>
<polygon fill="#fff0f0" stroke="black" points="472,-147.6 418,-147.6 418,-111.6 472,-111.6 472,-147.6"/>
<text text-anchor="middle" x="445" y="-125.9" font-family="Times,serif" font-size="14.00">お玉</text>
</g>
<!-- 家光(3代将軍)_お玉&#45;&#45;お玉 -->
<g id="edge14" class="edge">
<title>家光(3代将軍)_お玉&#45;&#45;お玉</title>
<path fill="none" stroke="black" d="M399.84,-129.6C405.83,-129.6 411.83,-129.6 417.83,-129.6"/>
</g>
<!-- 家光(3代将軍)_お玉_pc -->
<g id="node16" class="node">
<title>家光(3代将軍)_お玉_pc</title>
<ellipse fill="black" stroke="black" cx="398" cy="-73.8" rx="1.8" ry="1.8"/>
</g>
<!-- 家光(3代将軍)_お玉&#45;&#45;家光(3代将軍)_お玉_pc -->
<g id="edge15" class="edge">
<title>家光(3代将軍)_お玉&#45;&#45;家光(3代将軍)_お玉_pc</title>
<path fill="none" stroke="black" d="M398,-127.67C398,-121.19 398,-83.03 398,-75.94"/>
</g>
<!-- 綱吉(5代将軍) -->
<g id="node17" class="node">
<title>綱吉(5代将軍)</title>
<polygon fill="none" stroke="black" points="450,-36 346,-36 346,0 450,0 450,-36"/>
<text text-anchor="middle" x="398" y="-14.3" font-family="Times,serif" font-size="14.00">綱吉(5代将軍)</text>
</g>
<!-- 家光(3代将軍)_お玉_pc&#45;&#45;綱吉(5代将軍) -->
<g id="edge16" class="edge">
<title>家光(3代将軍)_お玉_pc&#45;&#45;綱吉(5代将軍)</title>
<path fill="none" stroke="black" d="M398,-71.87C398,-67.65 398,-50.02 398,-36.26"/>
</g>
<!-- お夏 -->
<g id="node18" class="node">
<title>お夏</title>
<polygon fill="#fff0f0" stroke="black" points="378,-147.6 324,-147.6 324,-111.6 378,-111.6 378,-147.6"/>
<text text-anchor="middle" x="351" y="-125.9" font-family="Times,serif" font-size="14.00">お夏</text>
</g>
<!-- 家光(3代将軍)_お夏&#45;&#45;お夏 -->
<g id="edge18" class="edge">
<title>家光(3代将軍)_お夏&#45;&#45;お夏</title>
<path fill="none" stroke="black" d="M305.84,-129.6C311.83,-129.6 317.83,-129.6 323.83,-129.6"/>
</g>
<!-- 家光(3代将軍)_お夏_pc -->
<g id="node20" class="node">
<title>家光(3代将軍)_お夏_pc</title>
<ellipse fill="black" stroke="black" cx="303" cy="-73.8" rx="1.8" ry="1.8"/>
</g>
<!-- 家光(3代将軍)_お夏&#45;&#45;家光(3代将軍)_お夏_pc -->
<g id="edge19" class="edge">
<title>家光(3代将軍)_お夏&#45;&#45;家光(3代将軍)_お夏_pc</title>
<path fill="none" stroke="black" d="M303.98,-127.67C303.86,-121.19 303.15,-83.03 303.02,-75.94"/>
</g>
<!-- 綱重 -->
<g id="node21" class="node">
<title>綱重</title>
<polygon fill="none" stroke="black" points="328,-36 274,-36 274,0 328,0 328,-36"/>
<text text-anchor="middle" x="301" y="-14.3" font-family="Times,serif" font-size="14.00">綱重</text>
</g>
<!-- 家光(3代将軍)_お夏_pc&#45;&#45;綱重 -->
<g id="edge20" class="edge">
<title>家光(3代将軍)_お夏_pc&#45;&#45;綱重</title>
<path fill="none" stroke="black" d="M302.97,-71.87C302.81,-67.65 302.15,-50.02 301.64,-36.26"/>
</g>
</g>
</svg>
