<?xml version="1.0" encoding="UTF-8" standalone="no"?><svg xmlns="http://www.w3.org/2000/svg" xmlns:xlink="http://www.w3.org/1999/xlink" contentStyleType="text/css" height="416px" preserveAspectRatio="none" style="width:176px;height:416px;background:#FFFFFF;" version="1.1" viewBox="0 0 176 416" width="176px" zoomAndPan="magnify"><defs/><g><rect fill="#F1F1F1" height="143.418" rx="5" ry="5" style="stroke:#F1F1F1;stroke-width:1.5;" width="22" x="10" y="137"/><text fill="#000000" font-family="sans-serif" font-size="14" lengthAdjust="spacing" textLength="12" x="15" y="152.5352">   </text><line style="stroke:#000000;stroke-width:1.0;" x1="10" x2="32" y1="157.4883" y2="157.4883"/><text fill="#000000" font-family="sans-serif" font-size="14" lengthAdjust="spacing" textLength="12" x="15" y="173.0234">   </text><line style="stroke:#000000;stroke-width:1.0;" x1="10" x2="32" y1="177.9766" y2="177.9766"/><text fill="#000000" font-family="sans-serif" font-size="14" lengthAdjust="spacing" textLength="12" x="15" y="193.5117">   </text><line style="stroke:#000000;stroke-width:1.0;" x1="10" x2="32" y1="198.4648" y2="198.4648"/><text fill="#000000" font-family="sans-serif" font-size="14" lengthAdjust="spacing" textLength="12" x="15" y="214">   </text><line style="stroke:#000000;stroke-width:1.0;" x1="10" x2="32" y1="218.9531" y2="218.9531"/><text fill="#000000" font-family="sans-serif" font-size="14" lengthAdjust="spacing" textLength="12" x="15" y="234.4883">   </text><line style="stroke:#000000;stroke-width:1.0;" x1="10" x2="32" y1="239.4414" y2="239.4414"/><text fill="#000000" font-family="sans-serif" font-size="14" lengthAdjust="spacing" textLength="12" x="15" y="254.9766">   </text><line style="stroke:#000000;stroke-width:1.0;" x1="10" x2="32" y1="259.9297" y2="259.9297"/><text fill="#000000" font-family="sans-serif" font-size="14" lengthAdjust="spacing" textLength="12" x="15" y="275.4648">   </text><rect fill="none" height="143.418" rx="5" ry="5" style="stroke:#000000;stroke-width:1.5;" width="22" x="10" y="137"/><rect fill="#F1F1F1" height="40.9766" rx="5" ry="5" style="stroke:#F1F1F1;stroke-width:1.5;" width="93" x="71" y="10"/><text fill="#000000" font-family="sans-serif" font-size="14" font-weight="bold" lengthAdjust="spacing" textLength="32" x="76" y="25.5352">note</text><text fill="#000000" font-family="sans-serif" font-size="14" lengthAdjust="spacing" textLength="18" x="132" y="25.5352">60</text><line style="stroke:#000000;stroke-width:1.0;" x1="127" x2="127" y1="10" y2="30.4883"/><line style="stroke:#000000;stroke-width:1.0;" x1="71" x2="164" y1="30.4883" y2="30.4883"/><text fill="#000000" font-family="sans-serif" font-size="14" font-weight="bold" lengthAdjust="spacing" textLength="46" x="76" y="46.0234">length</text><text fill="#000000" font-family="sans-serif" font-size="14" lengthAdjust="spacing" textLength="27" x="132" y="46.0234">240</text><line style="stroke:#000000;stroke-width:1.0;" x1="127" x2="127" y1="30.4883" y2="50.9766"/><rect fill="none" height="40.9766" rx="5" ry="5" style="stroke:#000000;stroke-width:1.5;" width="93" x="71" y="10"/><rect fill="#F1F1F1" height="40.9766" rx="5" ry="5" style="stroke:#F1F1F1;stroke-width:1.5;" width="93" x="71" y="69"/><text fill="#000000" font-family="sans-serif" font-size="14" font-weight="bold" lengthAdjust="spacing" textLength="32" x="76" y="84.5352">note</text><text fill="#000000" font-family="sans-serif" font-size="14" lengthAdjust="spacing" textLength="18" x="132" y="84.5352">62</text><line style="stroke:#000000;stroke-width:1.0;" x1="127" x2="127" y1="69" y2="89.4883"/><line style="stroke:#000000;stroke-width:1.0;" x1="71" x2="164" y1="89.4883" y2="89.4883"/><text fill="#000000" font-family="sans-serif" font-size="14" font-weight="bold" lengthAdjust="spacing" textLength="46" x="76" y="105.0234">length</text><text fill="#000000" font-family="sans-serif" font-size="14" lengthAdjust="spacing" textLength="27" x="132" y="105.0234">240</text><line style="stroke:#000000;stroke-width:1.0;" x1="127" x2="127" y1="89.4883" y2="109.9766"/><rect fill="none" height="40.9766" rx="5" ry="5" style="stroke:#000000;stroke-width:1.5;" width="93" x="71" y="69"/><rect fill="#F1F1F1" height="40.9766" rx="5" ry="5" style="stroke:#F1F1F1;stroke-width:1.5;" width="93" x="71" y="128"/><text fill="#000000" font-family="sans-serif" font-size="14" font-weight="bold" lengthAdjust="spacing" textLength="32" x="76" y="143.5352">note</text><text fill="#000000" font-family="sans-serif" font-size="14" lengthAdjust="spacing" textLength="18" x="132" y="143.5352">64</text><line style="stroke:#000000;stroke-width:1.0;" x1="127" x2="127" y1="128" y2="148.4883"/><line style="stroke:#000000;stroke-width:1.0;" x1="71" x2="164" y1="148.4883" y2="148.4883"/><text fill="#000000" font-family="sans-serif" font-size="14" font-weight="bold" lengthAdjust="spacing" textLength="46" x="76" y="164.0234">length</text><text fill="#000000" font-family="sans-serif" font-size="14" lengthAdjust="spacing" textLength="27" x="132" y="164.0234">240</text><line style="stroke:#000000;stroke-width:1.0;" x1="127" x2="127" y1="148.4883" y2="168.9766"/><rect fill="none" height="40.9766" rx="5" ry="5" style="stroke:#000000;stroke-width:1.5;" width="93" x="71" y="128"/><rect fill="#F1F1F1" height="40.9766" rx="5" ry="5" style="stroke:#F1F1F1;stroke-width:1.5;" width="93" x="71" y="187"/><text fill="#000000" font-family="sans-serif" font-size="14" font-weight="bold" lengthAdjust="spacing" textLength="32" x="76" y="202.5352">note</text><text fill="#000000" font-family="sans-serif" font-size="14" lengthAdjust="spacing" textLength="18" x="132" y="202.5352">65</text><line style="stroke:#000000;stroke-width:1.0;" x1="127" x2="127" y1="187" y2="207.4883"/><line style="stroke:#000000;stroke-width:1.0;" x1="71" x2="164" y1="207.4883" y2="207.4883"/><text fill="#000000" font-family="sans-serif" font-size="14" font-weight="bold" lengthAdjust="spacing" textLength="46" x="76" y="223.0234">length</text><text fill="#000000" font-family="sans-serif" font-size="14" lengthAdjust="spacing" textLength="27" x="132" y="223.0234">240</text><line style="stroke:#000000;stroke-width:1.0;" x1="127" x2="127" y1="207.4883" y2="227.9766"/><rect fill="none" height="40.9766" rx="5" ry="5" style="stroke:#000000;stroke-width:1.5;" width="93" x="71" y="187"/><rect fill="#F1F1F1" height="40.9766" rx="5" ry="5" style="stroke:#F1F1F1;stroke-width:1.5;" width="93" x="71" y="246"/><text fill="#000000" font-family="sans-serif" font-size="14" font-weight="bold" lengthAdjust="spacing" textLength="32" x="76" y="261.5352">note</text><text fill="#000000" font-family="sans-serif" font-size="14" lengthAdjust="spacing" textLength="18" x="132" y="261.5352">64</text><line style="stroke:#000000;stroke-width:1.0;" x1="127" x2="127" y1="246" y2="266.4883"/><line style="stroke:#000000;stroke-width:1.0;" x1="71" x2="164" y1="266.4883" y2="266.4883"/><text fill="#000000" font-family="sans-serif" font-size="14" font-weight="bold" lengthAdjust="spacing" textLength="46" x="76" y="282.0234">length</text><text fill="#000000" font-family="sans-serif" font-size="14" lengthAdjust="spacing" textLength="27" x="132" y="282.0234">240</text><line style="stroke:#000000;stroke-width:1.0;" x1="127" x2="127" y1="266.4883" y2="286.9766"/><rect fill="none" height="40.9766" rx="5" ry="5" style="stroke:#000000;stroke-width:1.5;" width="93" x="71" y="246"/><rect fill="#F1F1F1" height="40.9766" rx="5" ry="5" style="stroke:#F1F1F1;stroke-width:1.5;" width="93" x="71" y="305"/><text fill="#000000" font-family="sans-serif" font-size="14" font-weight="bold" lengthAdjust="spacing" textLength="32" x="76" y="320.5352">note</text><text fill="#000000" font-family="sans-serif" font-size="14" lengthAdjust="spacing" textLength="18" x="132" y="320.5352">62</text><line style="stroke:#000000;stroke-width:1.0;" x1="127" x2="127" y1="305" y2="325.4883"/><line style="stroke:#000000;stroke-width:1.0;" x1="71" x2="164" y1="325.4883" y2="325.4883"/><text fill="#000000" font-family="sans-serif" font-size="14" font-weight="bold" lengthAdjust="spacing" textLength="46" x="76" y="341.0234">length</text><text fill="#000000" font-family="sans-serif" font-size="14" lengthAdjust="spacing" textLength="27" x="132" y="341.0234">240</text><line style="stroke:#000000;stroke-width:1.0;" x1="127" x2="127" y1="325.4883" y2="345.9766"/><rect fill="none" height="40.9766" rx="5" ry="5" style="stroke:#000000;stroke-width:1.5;" width="93" x="71" y="305"/><rect fill="#F1F1F1" height="40.9766" rx="5" ry="5" style="stroke:#F1F1F1;stroke-width:1.5;" width="93" x="71" y="364"/><text fill="#000000" font-family="sans-serif" font-size="14" font-weight="bold" lengthAdjust="spacing" textLength="32" x="76" y="379.5352">note</text><text fill="#000000" font-family="sans-serif" font-size="14" lengthAdjust="spacing" textLength="18" x="132" y="379.5352">64</text><line style="stroke:#000000;stroke-width:1.0;" x1="127" x2="127" y1="364" y2="384.4883"/><line style="stroke:#000000;stroke-width:1.0;" x1="71" x2="164" y1="384.4883" y2="384.4883"/><text fill="#000000" font-family="sans-serif" font-size="14" font-weight="bold" lengthAdjust="spacing" textLength="46" x="76" y="400.0234">length</text><text fill="#000000" font-family="sans-serif" font-size="14" lengthAdjust="spacing" textLength="27" x="132" y="400.0234">480</text><line style="stroke:#000000;stroke-width:1.0;" x1="127" x2="127" y1="384.4883" y2="404.9766"/><rect fill="none" height="40.9766" rx="5" ry="5" style="stroke:#000000;stroke-width:1.5;" width="93" x="71" y="364"/><path d="M22.5,148.5 L22.5,135.5 C22.5,101.8128 49.7062,74.0469 74.9232,55.5464 " fill="none" style="stroke:#000000;stroke-width:1.0;stroke-dasharray:3.0,3.0;"/><path d="M76.7239,58.0866 L76.8283,54.1959 L73.1224,53.0062 L81.2736,51.0446 L76.7239,58.0866 " fill="#000000" style="stroke:#000000;stroke-width:1.0;"/><ellipse cx="22.5" cy="148.5" fill="#000000" rx="3" ry="3" style="stroke:#000000;stroke-width:1.0;"/><path d="M22,166.5 L35,166.5 C61.6667,166.5 51.3958,136.5772 71,118.5 C72.3968,117.212 73.8582,115.9474 75.3655,114.7103 " fill="none" style="stroke:#000000;stroke-width:1.0;stroke-dasharray:3.0,3.0;"/><path d="M77.2158,117.1108 L77.1659,113.3225 L73.5152,112.3097 L81.3669,110.0845 L77.2158,117.1108 " fill="#000000" style="stroke:#000000;stroke-width:1.0;"/><ellipse cx="22" cy="166.5" fill="#000000" rx="3" ry="3" style="stroke:#000000;stroke-width:1.0;"/><path d="M22,187.5 L35,187.5 C43.4074,187.5 59.0442,180.7295 74.4265,172.8304 " fill="none" style="stroke:#000000;stroke-width:1.0;stroke-dasharray:3.0,3.0;"/><path d="M75.9019,175.6395 L76.5334,171.7239 L72.9512,170.0213 L81.4493,169.142 L75.9019,175.6395 " fill="#000000" style="stroke:#000000;stroke-width:1.0;"/><ellipse cx="22" cy="187.5" fill="#000000" rx="3" ry="3" style="stroke:#000000;stroke-width:1.0;"/><path d="M22,207.5 L35,207.5 C44.3235,207.5 54.2434,207.5 63.8442,207.5 " fill="none" style="stroke:#000000;stroke-width:1.0;stroke-dasharray:3.0,3.0;"/><path d="M63.8442,210.5455 L66.1284,207.5 L63.8442,204.4545 L71.458,207.5 L63.8442,210.5455 " fill="#000000" style="stroke:#000000;stroke-width:1.0;"/><ellipse cx="22" cy="207.5" fill="#000000" rx="3" ry="3" style="stroke:#000000;stroke-width:1.0;"/><path d="M22,228.5 L35,228.5 C43.232,228.5 58.4919,234.8841 73.6356,242.4189 " fill="none" style="stroke:#000000;stroke-width:1.0;stroke-dasharray:3.0,3.0;"/><path d="M72.2259,245.1885 L75.7128,243.4761 L75.0452,239.6493 L80.5596,245.943 L72.2259,245.1885 " fill="#000000" style="stroke:#000000;stroke-width:1.0;"/><ellipse cx="22" cy="228.5" fill="#000000" rx="3" ry="3" style="stroke:#000000;stroke-width:1.0;"/><path d="M22,249.5 L35,249.5 C61.3125,249.5 51.566,278.7611 71,296.5 C72.4033,297.7809 73.8702,299.0396 75.3821,300.2717 " fill="none" style="stroke:#000000;stroke-width:1.0;stroke-dasharray:3.0,3.0;"/><path d="M73.5376,302.6776 L77.1865,301.655 L77.2265,297.8657 L81.3969,304.8828 L73.5376,302.6776 " fill="#000000" style="stroke:#000000;stroke-width:1.0;"/><ellipse cx="22" cy="249.5" fill="#000000" rx="3" ry="3" style="stroke:#000000;stroke-width:1.0;"/><path d="M22.5,268.5 L22.5,281.5 C22.5,314.4986 49.1612,341.5015 74.161,359.5683 " fill="none" style="stroke:#000000;stroke-width:1.0;stroke-dasharray:3.0,3.0;"/><path d="M72.4014,362.0894 L76.0518,360.8879 L75.9206,357.0471 L80.4638,363.9672 L72.4014,362.0894 " fill="#000000" style="stroke:#000000;stroke-width:1.0;"/><ellipse cx="22.5" cy="268.5" fill="#000000" rx="3" ry="3" style="stroke:#000000;stroke-width:1.0;"/><!--MD5=[4b4147e73cfb63943838cba208db8fe2]
@startjson
[
  {
    "note": 60,
    "length": 240
  },
  {
    "note": 62,
    "length": 240
  },
  {
    "note": 64,
    "length": 240
  },
  {
    "note": 65,
    "length": 240
  },
  {
    "note": 64,
    "length": 240
  },
  {
    "note": 62,
    "length": 240
  },
  {
    "note": 64,
    "length": 480
  }
]
@endjson

PlantUML version 1.2022.6(Wed Jun 22 02:34:49 JST 2022)
(GPL source distribution)
Java Runtime: OpenJDK Runtime Environment
JVM: OpenJDK 64-Bit Server VM
Default Encoding: UTF-8
Language: ja
Country: JP
--></g></svg>