<?xml version="1.0" encoding="UTF-8" standalone="no"?>
<!DOCTYPE svg PUBLIC "-//W3C//DTD SVG 1.1//EN"
 "http://www.w3.org/Graphics/SVG/1.1/DTD/svg11.dtd">
<!-- Generated by graphviz version 5.0.0 (20220707.1540)
 -->
<!-- Title: family Pages: 1 -->
<svg width="621pt" height="379pt"
 viewBox="0.00 0.00 621.00 378.80" xmlns="http://www.w3.org/2000/svg" xmlns:xlink="http://www.w3.org/1999/xlink">
<g id="graph0" class="graph" transform="scale(1 1) rotate(0) translate(4 374.8)">
<title>family</title>
<polygon fill="white" stroke="transparent" points="-4,4 -4,-374.8 617,-374.8 617,4 -4,4"/>
<!-- 徳川家康(初代将軍) -->
<g id="node1" class="node">
<title>徳川家康(初代将軍)</title>
<polygon fill="#f0f0ff" stroke="black" points="140,-370.8 0,-370.8 0,-334.8 140,-334.8 140,-370.8"/>
<text text-anchor="middle" x="70" y="-349.1" font-family="Times,serif" font-size="14.00">徳川家康(初代将軍)</text>
</g>
<!-- 徳川家康(初代将軍)_西郷局 -->
<g id="node3" class="node">
<title>徳川家康(初代将軍)_西郷局</title>
<ellipse fill="black" stroke="black" cx="160" cy="-352.8" rx="1.8" ry="1.8"/>
</g>
<!-- 徳川家康(初代将軍)&#45;&gt;徳川家康(初代将軍)_西郷局 -->
<g id="edge1" class="edge">
<title>徳川家康(初代将軍)&#45;&gt;徳川家康(初代将軍)_西郷局</title>
<path fill="none" stroke="black" d="M140.31,-352.8C146.26,-352.8 152.21,-352.8 158.15,-352.8"/>
</g>
<!-- 西郷局 -->
<g id="node2" class="node">
<title>西郷局</title>
<polygon fill="#fff0f0" stroke="black" points="238.5,-370.8 179.5,-370.8 179.5,-334.8 238.5,-334.8 238.5,-370.8"/>
<text text-anchor="middle" x="209" y="-349.1" font-family="Times,serif" font-size="14.00">西郷局</text>
</g>
<!-- 徳川家康(初代将軍)_西郷局&#45;&gt;西郷局 -->
<g id="edge2" class="edge">
<title>徳川家康(初代将軍)_西郷局&#45;&gt;西郷局</title>
<path fill="none" stroke="black" d="M161.91,-352.8C167.68,-352.8 173.44,-352.8 179.2,-352.8"/>
</g>
<!-- 徳川家康(初代将軍)_西郷局_pc -->
<g id="node4" class="node">
<title>徳川家康(初代将軍)_西郷局_pc</title>
<ellipse fill="black" stroke="black" cx="160" cy="-297" rx="1.8" ry="1.8"/>
</g>
<!-- 徳川家康(初代将軍)_西郷局&#45;&gt;徳川家康(初代将軍)_西郷局_pc -->
<g id="edge3" class="edge">
<title>徳川家康(初代将軍)_西郷局&#45;&gt;徳川家康(初代将軍)_西郷局_pc</title>
<path fill="none" stroke="black" d="M160,-350.87C160,-344.39 160,-306.23 160,-299.14"/>
</g>
<!-- 秀忠(2代将軍)_top -->
<g id="node6" class="node">
<title>秀忠(2代将軍)_top</title>
<ellipse fill="black" stroke="black" cx="182" cy="-297" rx="1.8" ry="1.8"/>
</g>
<!-- 徳川家康(初代将軍)_西郷局_pc&#45;&gt;秀忠(2代将軍)_top -->
<g id="edge5" class="edge">
<title>徳川家康(初代将軍)_西郷局_pc&#45;&gt;秀忠(2代将軍)_top</title>
<path fill="none" stroke="black" d="M162.06,-297C168.09,-297 174.11,-297 180.13,-297"/>
</g>
<!-- 秀忠(2代将軍) -->
<g id="node5" class="node">
<title>秀忠(2代将軍)</title>
<polygon fill="#f0f0ff" stroke="black" points="234,-259.2 130,-259.2 130,-223.2 234,-223.2 234,-259.2"/>
<text text-anchor="middle" x="182" y="-237.5" font-family="Times,serif" font-size="14.00">秀忠(2代将軍)</text>
</g>
<!-- 秀忠(2代将軍)_お江 -->
<g id="node8" class="node">
<title>秀忠(2代将軍)_お江</title>
<ellipse fill="black" stroke="black" cx="254" cy="-241.2" rx="1.8" ry="1.8"/>
</g>
<!-- 秀忠(2代将軍)&#45;&gt;秀忠(2代将軍)_お江 -->
<g id="edge6" class="edge">
<title>秀忠(2代将軍)&#45;&gt;秀忠(2代将軍)_お江</title>
<path fill="none" stroke="black" d="M234.03,-241.2C240.06,-241.2 246.1,-241.2 252.13,-241.2"/>
</g>
<!-- 秀忠(2代将軍)_top&#45;&gt;秀忠(2代将軍) -->
<g id="edge4" class="edge">
<title>秀忠(2代将軍)_top&#45;&gt;秀忠(2代将軍)</title>
<path fill="none" stroke="black" d="M182,-295.07C182,-290.85 182,-273.22 182,-259.46"/>
</g>
<!-- お江 -->
<g id="node7" class="node">
<title>お江</title>
<polygon fill="#fff0f0" stroke="black" points="328,-259.2 274,-259.2 274,-223.2 328,-223.2 328,-259.2"/>
<text text-anchor="middle" x="301" y="-237.5" font-family="Times,serif" font-size="14.00">お江</text>
</g>
<!-- 秀忠(2代将軍)_お江&#45;&gt;お江 -->
<g id="edge7" class="edge">
<title>秀忠(2代将軍)_お江&#45;&gt;お江</title>
<path fill="none" stroke="black" d="M255.84,-241.2C261.83,-241.2 267.83,-241.2 273.83,-241.2"/>
</g>
<!-- 秀忠(2代将軍)_お江_pc -->
<g id="node9" class="node">
<title>秀忠(2代将軍)_お江_pc</title>
<ellipse fill="black" stroke="black" cx="254" cy="-185.4" rx="1.8" ry="1.8"/>
</g>
<!-- 秀忠(2代将軍)_お江&#45;&gt;秀忠(2代将軍)_お江_pc -->
<g id="edge8" class="edge">
<title>秀忠(2代将軍)_お江&#45;&gt;秀忠(2代将軍)_お江_pc</title>
<path fill="none" stroke="black" d="M254,-239.27C254,-232.79 254,-194.63 254,-187.54"/>
</g>
<!-- 家光(3代将軍)_top -->
<g id="node11" class="node">
<title>家光(3代将軍)_top</title>
<ellipse fill="black" stroke="black" cx="276" cy="-185.4" rx="1.8" ry="1.8"/>
</g>
<!-- 秀忠(2代将軍)_お江_pc&#45;&gt;家光(3代将軍)_top -->
<g id="edge10" class="edge">
<title>秀忠(2代将軍)_お江_pc&#45;&gt;家光(3代将軍)_top</title>
<path fill="none" stroke="black" d="M256.06,-185.4C262.09,-185.4 268.11,-185.4 274.13,-185.4"/>
</g>
<!-- 家光(3代将軍) -->
<g id="node10" class="node">
<title>家光(3代将軍)</title>
<polygon fill="#f0f0ff" stroke="black" points="328,-147.6 224,-147.6 224,-111.6 328,-111.6 328,-147.6"/>
<text text-anchor="middle" x="276" y="-125.9" font-family="Times,serif" font-size="14.00">家光(3代将軍)</text>
</g>
<!-- 家光(3代将軍)_お楽の方 -->
<g id="node13" class="node">
<title>家光(3代将軍)_お楽の方</title>
<ellipse fill="black" stroke="black" cx="348" cy="-129.6" rx="1.8" ry="1.8"/>
</g>
<!-- 家光(3代将軍)&#45;&gt;家光(3代将軍)_お楽の方 -->
<g id="edge11" class="edge">
<title>家光(3代将軍)&#45;&gt;家光(3代将軍)_お楽の方</title>
<path fill="none" stroke="black" d="M328.03,-129.6C334.06,-129.6 340.1,-129.6 346.13,-129.6"/>
</g>
<!-- 家光(3代将軍)_お玉 -->
<g id="node18" class="node">
<title>家光(3代将軍)_お玉</title>
<ellipse fill="black" stroke="black" cx="466" cy="-129.6" rx="1.8" ry="1.8"/>
</g>
<!-- 家光(3代将軍)&#45;&gt;家光(3代将軍)_お玉 -->
<g id="edge16" class="edge">
<title>家光(3代将軍)&#45;&gt;家光(3代将軍)_お玉</title>
<path fill="none" stroke="black" d="M303.74,-147.73C316.14,-154.79 331.26,-162.03 346,-165.6 387.47,-175.64 404.38,-185.73 442,-165.6 456.31,-157.94 463.56,-137.58 465.47,-131.4"/>
</g>
<!-- 家光(3代将軍)_top&#45;&gt;家光(3代将軍) -->
<g id="edge9" class="edge">
<title>家光(3代将軍)_top&#45;&gt;家光(3代将軍)</title>
<path fill="none" stroke="black" d="M276,-183.47C276,-179.25 276,-161.62 276,-147.86"/>
</g>
<!-- お楽の方 -->
<g id="node12" class="node">
<title>お楽の方</title>
<polygon fill="#fff0f0" stroke="black" points="442,-147.6 368,-147.6 368,-111.6 442,-111.6 442,-147.6"/>
<text text-anchor="middle" x="405" y="-125.9" font-family="Times,serif" font-size="14.00">お楽の方</text>
</g>
<!-- 家光(3代将軍)_お楽の方&#45;&gt;お楽の方 -->
<g id="edge12" class="edge">
<title>家光(3代将軍)_お楽の方&#45;&gt;お楽の方</title>
<path fill="none" stroke="black" d="M350.23,-129.6C356.07,-129.6 361.92,-129.6 367.77,-129.6"/>
</g>
<!-- 家光(3代将軍)_お楽の方_pc -->
<g id="node14" class="node">
<title>家光(3代将軍)_お楽の方_pc</title>
<ellipse fill="black" stroke="black" cx="347" cy="-73.8" rx="1.8" ry="1.8"/>
</g>
<!-- 家光(3代将軍)_お楽の方&#45;&gt;家光(3代将軍)_お楽の方_pc -->
<g id="edge13" class="edge">
<title>家光(3代将軍)_お楽の方&#45;&gt;家光(3代将軍)_お楽の方_pc</title>
<path fill="none" stroke="black" d="M347.98,-127.67C347.86,-121.19 347.15,-83.03 347.02,-75.94"/>
</g>
<!-- 家綱(4代将軍)_top -->
<g id="node16" class="node">
<title>家綱(4代将軍)_top</title>
<ellipse fill="black" stroke="black" cx="369" cy="-73.8" rx="1.8" ry="1.8"/>
</g>
<!-- 家光(3代将軍)_お楽の方_pc&#45;&gt;家綱(4代将軍)_top -->
<g id="edge15" class="edge">
<title>家光(3代将軍)_お楽の方_pc&#45;&gt;家綱(4代将軍)_top</title>
<path fill="none" stroke="black" d="M349.06,-73.8C355.09,-73.8 361.11,-73.8 367.13,-73.8"/>
</g>
<!-- 家綱(4代将軍) -->
<g id="node15" class="node">
<title>家綱(4代将軍)</title>
<polygon fill="none" stroke="black" points="419,-36 315,-36 315,0 419,0 419,-36"/>
<text text-anchor="middle" x="367" y="-14.3" font-family="Times,serif" font-size="14.00">家綱(4代将軍)</text>
</g>
<!-- 家綱(4代将軍)_top&#45;&gt;家綱(4代将軍) -->
<g id="edge14" class="edge">
<title>家綱(4代将軍)_top&#45;&gt;家綱(4代将軍)</title>
<path fill="none" stroke="black" d="M368.97,-71.87C368.81,-67.65 368.15,-50.02 367.64,-36.26"/>
</g>
<!-- お玉 -->
<g id="node17" class="node">
<title>お玉</title>
<polygon fill="#fff0f0" stroke="black" points="540,-147.6 486,-147.6 486,-111.6 540,-111.6 540,-147.6"/>
<text text-anchor="middle" x="513" y="-125.9" font-family="Times,serif" font-size="14.00">お玉</text>
</g>
<!-- 家光(3代将軍)_お玉&#45;&gt;お玉 -->
<g id="edge17" class="edge">
<title>家光(3代将軍)_お玉&#45;&gt;お玉</title>
<path fill="none" stroke="black" d="M467.84,-129.6C473.83,-129.6 479.83,-129.6 485.83,-129.6"/>
</g>
<!-- 家光(3代将軍)_お玉_pc -->
<g id="node19" class="node">
<title>家光(3代将軍)_お玉_pc</title>
<ellipse fill="black" stroke="black" cx="466" cy="-73.8" rx="1.8" ry="1.8"/>
</g>
<!-- 家光(3代将軍)_お玉&#45;&gt;家光(3代将軍)_お玉_pc -->
<g id="edge18" class="edge">
<title>家光(3代将軍)_お玉&#45;&gt;家光(3代将軍)_お玉_pc</title>
<path fill="none" stroke="black" d="M466,-127.67C466,-121.19 466,-83.03 466,-75.94"/>
</g>
<!-- 綱吉(5代将軍)_top -->
<g id="node21" class="node">
<title>綱吉(5代将軍)_top</title>
<ellipse fill="black" stroke="black" cx="489" cy="-73.8" rx="1.8" ry="1.8"/>
</g>
<!-- 家光(3代将軍)_お玉_pc&#45;&gt;綱吉(5代将軍)_top -->
<g id="edge21" class="edge">
<title>家光(3代将軍)_お玉_pc&#45;&gt;綱吉(5代将軍)_top</title>
<path fill="none" stroke="black" d="M468.16,-73.8C474.45,-73.8 480.75,-73.8 487.05,-73.8"/>
</g>
<!-- 綱吉(5代将軍) -->
<g id="node20" class="node">
<title>綱吉(5代将軍)</title>
<polygon fill="none" stroke="black" points="541,-36 437,-36 437,0 541,0 541,-36"/>
<text text-anchor="middle" x="489" y="-14.3" font-family="Times,serif" font-size="14.00">綱吉(5代将軍)</text>
</g>
<!-- 綱吉(5代将軍)_top&#45;&gt;綱吉(5代将軍) -->
<g id="edge19" class="edge">
<title>綱吉(5代将軍)_top&#45;&gt;綱吉(5代将軍)</title>
<path fill="none" stroke="black" d="M489,-71.87C489,-67.65 489,-50.02 489,-36.26"/>
</g>
<!-- 亀松_top -->
<g id="node23" class="node">
<title>亀松_top</title>
<ellipse fill="black" stroke="black" cx="548" cy="-73.8" rx="1.8" ry="1.8"/>
</g>
<!-- 綱吉(5代将軍)_top&#45;&gt;亀松_top -->
<g id="edge22" class="edge">
<title>綱吉(5代将軍)_top&#45;&gt;亀松_top</title>
<path fill="none" stroke="black" d="M490.84,-73.8C509.15,-73.8 527.46,-73.8 545.77,-73.8"/>
</g>
<!-- 亀松 -->
<g id="node22" class="node">
<title>亀松</title>
<polygon fill="none" stroke="black" points="613,-36 559,-36 559,0 613,0 613,-36"/>
<text text-anchor="middle" x="586" y="-14.3" font-family="Times,serif" font-size="14.00">亀松</text>
</g>
<!-- 亀松_top&#45;&gt;亀松 -->
<g id="edge20" class="edge">
<title>亀松_top&#45;&gt;亀松</title>
<path fill="none" stroke="black" d="M548.66,-71.87C551.64,-67.65 564.09,-50.02 573.81,-36.26"/>
</g>
</g>
</svg>
