<?xml version="1.0" encoding="UTF-8" standalone="no"?>
<!DOCTYPE svg PUBLIC "-//W3C//DTD SVG 1.1//EN"
 "http://www.w3.org/Graphics/SVG/1.1/DTD/svg11.dtd">
<!-- Generated by graphviz version 3.0.0 (20220226.1711)
 -->
<!-- Title: G Pages: 1 -->
<svg width="621pt" height="485pt"
 viewBox="0.00 0.00 621.00 485.00" xmlns="http://www.w3.org/2000/svg" xmlns:xlink="http://www.w3.org/1999/xlink">
<g id="graph0" class="graph" transform="scale(1 1) rotate(0) translate(4 481)">
<title>G</title>
<polygon fill="white" stroke="transparent" points="-4,4 -4,-481 617,-481 617,4 -4,4"/>
<!-- メニュー -->
<g id="node1" class="node">
<title>メニュー</title>
<polygon fill="none" stroke="black" points="0,-275.5 0,-311.5 73,-311.5 73,-275.5 0,-275.5"/>
<text text-anchor="middle" x="36.5" y="-289.8" font-family="Times,serif" font-size="14.00">メニュー</text>
</g>
<!-- 本日のお勧め -->
<g id="node2" class="node">
<title>本日のお勧め</title>
<polygon fill="none" stroke="black" points="109,-385.5 109,-421.5 211,-421.5 211,-385.5 109,-385.5"/>
<text text-anchor="middle" x="160" y="-399.8" font-family="Times,serif" font-size="14.00">本日のお勧め</text>
</g>
<!-- メニュー&#45;&gt;本日のお勧め -->
<g id="edge1" class="edge">
<title>メニュー&#45;&gt;本日のお勧め</title>
<path fill="none" stroke="black" d="M57.56,-311.66C77.7,-329.9 108.88,-358.12 131.35,-378.47"/>
<polygon fill="black" stroke="black" points="129.14,-381.19 138.91,-385.31 133.84,-376 129.14,-381.19"/>
</g>
<!-- 通常 -->
<g id="node7" class="node">
<title>通常</title>
<polygon fill="none" stroke="black" points="133,-193.5 133,-229.5 187,-229.5 187,-193.5 133,-193.5"/>
<text text-anchor="middle" x="160" y="-207.8" font-family="Times,serif" font-size="14.00">通常</text>
</g>
<!-- メニュー&#45;&gt;通常 -->
<g id="edge6" class="edge">
<title>メニュー&#45;&gt;通常</title>
<path fill="none" stroke="black" d="M64.46,-275.3C82.17,-263.35 105.48,-247.62 124.53,-234.76"/>
<polygon fill="black" stroke="black" points="126.61,-237.58 132.94,-229.08 122.7,-231.78 126.61,-237.58"/>
</g>
<!-- ナスとベーコンの熱々パスタセット -->
<g id="node3" class="node">
<title>ナスとベーコンの熱々パスタセット</title>
<polygon fill="none" stroke="black" points="262.5,-440.5 262.5,-476.5 503.5,-476.5 503.5,-440.5 262.5,-440.5"/>
<text text-anchor="middle" x="383" y="-454.8" font-family="Times,serif" font-size="14.00">ナスとベーコンの熱々パスタセット</text>
</g>
<!-- 本日のお勧め&#45;&gt;ナスとベーコンの熱々パスタセット -->
<g id="edge2" class="edge">
<title>本日のお勧め&#45;&gt;ナスとベーコンの熱々パスタセット</title>
<path fill="none" stroke="black" d="M211.18,-420.93C222.86,-424.68 235.3,-428.44 247,-431.5 256.01,-433.86 265.4,-436.13 274.86,-438.27"/>
<polygon fill="black" stroke="black" points="274.2,-441.71 284.72,-440.47 275.72,-434.88 274.2,-441.71"/>
</g>
<!-- 絶品カニのトマトクリームパスタセット -->
<g id="node5" class="node">
<title>絶品カニのトマトクリームパスタセット</title>
<polygon fill="none" stroke="black" points="247,-385.5 247,-421.5 519,-421.5 519,-385.5 247,-385.5"/>
<text text-anchor="middle" x="383" y="-399.8" font-family="Times,serif" font-size="14.00">絶品カニのトマトクリームパスタセット</text>
</g>
<!-- 本日のお勧め&#45;&gt;絶品カニのトマトクリームパスタセット -->
<g id="edge4" class="edge">
<title>本日のお勧め&#45;&gt;絶品カニのトマトクリームパスタセット</title>
<path fill="none" stroke="black" d="M211.15,-403.5C219.11,-403.5 227.67,-403.5 236.56,-403.5"/>
<polygon fill="black" stroke="black" points="236.74,-407 246.74,-403.5 236.74,-400 236.74,-407"/>
</g>
<!-- 1200円 -->
<g id="node4" class="node">
<title>1200円</title>
<polygon fill="none" stroke="black" points="555,-440.5 555,-476.5 613,-476.5 613,-440.5 555,-440.5"/>
<text text-anchor="middle" x="584" y="-454.8" font-family="Times,serif" font-size="14.00">1200円</text>
</g>
<!-- ナスとベーコンの熱々パスタセット&#45;&gt;1200円 -->
<g id="edge3" class="edge">
<title>ナスとベーコンの熱々パスタセット&#45;&gt;1200円</title>
<path fill="none" stroke="black" d="M503.78,-458.5C518.55,-458.5 532.7,-458.5 544.84,-458.5"/>
<polygon fill="black" stroke="black" points="544.97,-462 554.97,-458.5 544.97,-455 544.97,-462"/>
</g>
<!-- 1520円 -->
<g id="node6" class="node">
<title>1520円</title>
<polygon fill="none" stroke="black" points="555,-385.5 555,-421.5 613,-421.5 613,-385.5 555,-385.5"/>
<text text-anchor="middle" x="584" y="-399.8" font-family="Times,serif" font-size="14.00">1520円</text>
</g>
<!-- 絶品カニのトマトクリームパスタセット&#45;&gt;1520円 -->
<g id="edge5" class="edge">
<title>絶品カニのトマトクリームパスタセット&#45;&gt;1520円</title>
<path fill="none" stroke="black" d="M519.21,-403.5C528.33,-403.5 536.99,-403.5 544.81,-403.5"/>
<polygon fill="black" stroke="black" points="544.94,-407 554.94,-403.5 544.94,-400 544.94,-407"/>
</g>
<!-- フライドポテト -->
<g id="node8" class="node">
<title>フライドポテト</title>
<polygon fill="none" stroke="black" points="325,-330.5 325,-366.5 441,-366.5 441,-330.5 325,-330.5"/>
<text text-anchor="middle" x="383" y="-344.8" font-family="Times,serif" font-size="14.00">フライドポテト</text>
</g>
<!-- 通常&#45;&gt;フライドポテト -->
<g id="edge7" class="edge">
<title>通常&#45;&gt;フライドポテト</title>
<path fill="none" stroke="black" d="M169.86,-229.61C183.04,-254.52 210.27,-298.86 247,-321.5 267.21,-333.95 292.05,-340.81 314.89,-344.53"/>
<polygon fill="black" stroke="black" points="314.48,-348.01 324.88,-345.99 315.49,-341.08 314.48,-348.01"/>
</g>
<!-- 絶品ハンバーグ -->
<g id="node10" class="node">
<title>絶品ハンバーグ</title>
<polygon fill="none" stroke="black" points="325.5,-275.5 325.5,-311.5 440.5,-311.5 440.5,-275.5 325.5,-275.5"/>
<text text-anchor="middle" x="383" y="-289.8" font-family="Times,serif" font-size="14.00">絶品ハンバーグ</text>
</g>
<!-- 通常&#45;&gt;絶品ハンバーグ -->
<g id="edge9" class="edge">
<title>通常&#45;&gt;絶品ハンバーグ</title>
<path fill="none" stroke="black" d="M184.15,-229.69C200.76,-241.87 224.15,-257.29 247,-266.5 268.53,-275.18 293.16,-281.16 315.43,-285.24"/>
<polygon fill="black" stroke="black" points="315.03,-288.72 325.48,-286.98 316.22,-281.82 315.03,-288.72"/>
</g>
<!-- 和風おろしハンバーグ -->
<g id="node12" class="node">
<title>和風おろしハンバーグ</title>
<polygon fill="none" stroke="black" points="304,-220.5 304,-256.5 462,-256.5 462,-220.5 304,-220.5"/>
<text text-anchor="middle" x="383" y="-234.8" font-family="Times,serif" font-size="14.00">和風おろしハンバーグ</text>
</g>
<!-- 通常&#45;&gt;和風おろしハンバーグ -->
<g id="edge11" class="edge">
<title>通常&#45;&gt;和風おろしハンバーグ</title>
<path fill="none" stroke="black" d="M187.22,-214.7C213.46,-217.91 255.31,-223.02 293.5,-227.69"/>
<polygon fill="black" stroke="black" points="293.29,-231.19 303.64,-228.93 294.14,-224.24 293.29,-231.19"/>
</g>
<!-- 懐かしいチーズピザ -->
<g id="node14" class="node">
<title>懐かしいチーズピザ</title>
<polygon fill="none" stroke="black" points="311.5,-165.5 311.5,-201.5 454.5,-201.5 454.5,-165.5 311.5,-165.5"/>
<text text-anchor="middle" x="383" y="-179.8" font-family="Times,serif" font-size="14.00">懐かしいチーズピザ</text>
</g>
<!-- 通常&#45;&gt;懐かしいチーズピザ -->
<g id="edge13" class="edge">
<title>通常&#45;&gt;懐かしいチーズピザ</title>
<path fill="none" stroke="black" d="M187.22,-208.18C215.26,-204.63 261.12,-198.82 301.3,-193.72"/>
<polygon fill="black" stroke="black" points="301.9,-197.18 311.38,-192.45 301.02,-190.23 301.9,-197.18"/>
</g>
<!-- ゴロゴロじゃがいもカレー -->
<g id="node16" class="node">
<title>ゴロゴロじゃがいもカレー</title>
<polygon fill="none" stroke="black" points="289,-110.5 289,-146.5 477,-146.5 477,-110.5 289,-110.5"/>
<text text-anchor="middle" x="383" y="-124.8" font-family="Times,serif" font-size="14.00">ゴロゴロじゃがいもカレー</text>
</g>
<!-- 通常&#45;&gt;ゴロゴロじゃがいもカレー -->
<g id="edge15" class="edge">
<title>通常&#45;&gt;ゴロゴロじゃがいもカレー</title>
<path fill="none" stroke="black" d="M184.17,-193.36C200.79,-181.21 224.18,-165.79 247,-156.5 257.2,-152.35 268.1,-148.78 279.11,-145.73"/>
<polygon fill="black" stroke="black" points="280.02,-149.1 288.8,-143.17 278.24,-142.33 280.02,-149.1"/>
</g>
<!-- 和牛の贅沢カレー -->
<g id="node18" class="node">
<title>和牛の贅沢カレー</title>
<polygon fill="none" stroke="black" points="317.5,-55.5 317.5,-91.5 448.5,-91.5 448.5,-55.5 317.5,-55.5"/>
<text text-anchor="middle" x="383" y="-69.8" font-family="Times,serif" font-size="14.00">和牛の贅沢カレー</text>
</g>
<!-- 通常&#45;&gt;和牛の贅沢カレー -->
<g id="edge17" class="edge">
<title>通常&#45;&gt;和牛の贅沢カレー</title>
<path fill="none" stroke="black" d="M169.88,-193.43C183.09,-168.56 210.35,-124.27 247,-101.5 265,-90.32 286.69,-83.52 307.37,-79.42"/>
<polygon fill="black" stroke="black" points="308.2,-82.82 317.42,-77.61 306.96,-75.93 308.2,-82.82"/>
</g>
<!-- シェフ自慢のカルボナーラ -->
<g id="node20" class="node">
<title>シェフ自慢のカルボナーラ</title>
<polygon fill="none" stroke="black" points="290,-0.5 290,-36.5 476,-36.5 476,-0.5 290,-0.5"/>
<text text-anchor="middle" x="383" y="-14.8" font-family="Times,serif" font-size="14.00">シェフ自慢のカルボナーラ</text>
</g>
<!-- 通常&#45;&gt;シェフ自慢のカルボナーラ -->
<g id="edge19" class="edge">
<title>通常&#45;&gt;シェフ自慢のカルボナーラ</title>
<path fill="none" stroke="black" d="M165.03,-193.27C173.64,-158.79 197.27,-84.1 247,-46.5 256.87,-39.04 268.25,-33.45 280.14,-29.28"/>
<polygon fill="black" stroke="black" points="281.29,-32.59 289.77,-26.23 279.18,-25.91 281.29,-32.59"/>
</g>
<!-- 300円 -->
<g id="node9" class="node">
<title>300円</title>
<polygon fill="none" stroke="black" points="557,-330.5 557,-366.5 611,-366.5 611,-330.5 557,-330.5"/>
<text text-anchor="middle" x="584" y="-344.8" font-family="Times,serif" font-size="14.00">300円</text>
</g>
<!-- フライドポテト&#45;&gt;300円 -->
<g id="edge8" class="edge">
<title>フライドポテト&#45;&gt;300円</title>
<path fill="none" stroke="black" d="M441.03,-348.5C474.99,-348.5 517.07,-348.5 546.57,-348.5"/>
<polygon fill="black" stroke="black" points="546.83,-352 556.83,-348.5 546.83,-345 546.83,-352"/>
</g>
<!-- 800円 -->
<g id="node11" class="node">
<title>800円</title>
<polygon fill="none" stroke="black" points="557,-275.5 557,-311.5 611,-311.5 611,-275.5 557,-275.5"/>
<text text-anchor="middle" x="584" y="-289.8" font-family="Times,serif" font-size="14.00">800円</text>
</g>
<!-- 絶品ハンバーグ&#45;&gt;800円 -->
<g id="edge10" class="edge">
<title>絶品ハンバーグ&#45;&gt;800円</title>
<path fill="none" stroke="black" d="M440.76,-293.5C474.73,-293.5 516.9,-293.5 546.48,-293.5"/>
<polygon fill="black" stroke="black" points="546.76,-297 556.76,-293.5 546.76,-290 546.76,-297"/>
</g>
<!-- 830円 -->
<g id="node13" class="node">
<title>830円</title>
<polygon fill="none" stroke="black" points="557,-220.5 557,-256.5 611,-256.5 611,-220.5 557,-220.5"/>
<text text-anchor="middle" x="584" y="-234.8" font-family="Times,serif" font-size="14.00">830円</text>
</g>
<!-- 和風おろしハンバーグ&#45;&gt;830円 -->
<g id="edge12" class="edge">
<title>和風おろしハンバーグ&#45;&gt;830円</title>
<path fill="none" stroke="black" d="M462.08,-238.5C491.16,-238.5 522.81,-238.5 546.43,-238.5"/>
<polygon fill="black" stroke="black" points="546.68,-242 556.68,-238.5 546.68,-235 546.68,-242"/>
</g>
<!-- 700円 -->
<g id="node15" class="node">
<title>700円</title>
<polygon fill="none" stroke="black" points="557,-165.5 557,-201.5 611,-201.5 611,-165.5 557,-165.5"/>
<text text-anchor="middle" x="584" y="-179.8" font-family="Times,serif" font-size="14.00">700円</text>
</g>
<!-- 懐かしいチーズピザ&#45;&gt;700円 -->
<g id="edge14" class="edge">
<title>懐かしいチーズピザ&#45;&gt;700円</title>
<path fill="none" stroke="black" d="M454.72,-183.5C485.75,-183.5 520.86,-183.5 546.5,-183.5"/>
<polygon fill="black" stroke="black" points="546.52,-187 556.52,-183.5 546.52,-180 546.52,-187"/>
</g>
<!-- 950円 -->
<g id="node17" class="node">
<title>950円</title>
<polygon fill="none" stroke="black" points="557,-110.5 557,-146.5 611,-146.5 611,-110.5 557,-110.5"/>
<text text-anchor="middle" x="584" y="-124.8" font-family="Times,serif" font-size="14.00">950円</text>
</g>
<!-- ゴロゴロじゃがいもカレー&#45;&gt;950円 -->
<g id="edge16" class="edge">
<title>ゴロゴロじゃがいもカレー&#45;&gt;950円</title>
<path fill="none" stroke="black" d="M477.09,-128.5C501.79,-128.5 527.01,-128.5 546.64,-128.5"/>
<polygon fill="black" stroke="black" points="546.65,-132 556.65,-128.5 546.65,-125 546.65,-132"/>
</g>
<!-- 1300円 -->
<g id="node19" class="node">
<title>1300円</title>
<polygon fill="none" stroke="black" points="555,-55.5 555,-91.5 613,-91.5 613,-55.5 555,-55.5"/>
<text text-anchor="middle" x="584" y="-69.8" font-family="Times,serif" font-size="14.00">1300円</text>
</g>
<!-- 和牛の贅沢カレー&#45;&gt;1300円 -->
<g id="edge18" class="edge">
<title>和牛の贅沢カレー&#45;&gt;1300円</title>
<path fill="none" stroke="black" d="M448.61,-73.5C480.27,-73.5 517.33,-73.5 544.5,-73.5"/>
<polygon fill="black" stroke="black" points="544.76,-77 554.76,-73.5 544.76,-70 544.76,-77"/>
</g>
<!-- 1100円 -->
<g id="node21" class="node">
<title>1100円</title>
<polygon fill="none" stroke="black" points="555,-0.5 555,-36.5 613,-36.5 613,-0.5 555,-0.5"/>
<text text-anchor="middle" x="584" y="-14.8" font-family="Times,serif" font-size="14.00">1100円</text>
</g>
<!-- シェフ自慢のカルボナーラ&#45;&gt;1100円 -->
<g id="edge20" class="edge">
<title>シェフ自慢のカルボナーラ&#45;&gt;1100円</title>
<path fill="none" stroke="black" d="M476.22,-18.5C500.35,-18.5 525.05,-18.5 544.61,-18.5"/>
<polygon fill="black" stroke="black" points="544.63,-22 554.63,-18.5 544.63,-15 544.63,-22"/>
</g>
</g>
</svg>
