<?xml version="1.0" encoding="UTF-8" standalone="no"?>
<!DOCTYPE svg PUBLIC "-//W3C//DTD SVG 1.1//EN"
 "http://www.w3.org/Graphics/SVG/1.1/DTD/svg11.dtd">
<!-- Generated by graphviz version 5.0.0 (20220707.1540)
 -->
<!-- Title: idea Pages: 1 -->
<svg width="1363pt" height="990pt"
 viewBox="0.00 0.00 1363.00 990.00" xmlns="http://www.w3.org/2000/svg" xmlns:xlink="http://www.w3.org/1999/xlink">
<g id="graph0" class="graph" transform="scale(1 1) rotate(0) translate(4 986)">
<title>idea</title>
<polygon fill="white" stroke="transparent" points="-4,4 -4,-986 1359,-986 1359,4 -4,4"/>
<!-- プログラマーのためのカフェ -->
<g id="node1" class="node">
<title>プログラマーのためのカフェ</title>
<ellipse fill="none" stroke="black" cx="643.28" cy="-446.28" rx="130.77" ry="130.77"/>
<ellipse fill="none" stroke="black" cx="643.28" cy="-446.28" rx="134.78" ry="134.78"/>
<text text-anchor="middle" x="643.28" y="-442.58" font-family="Times,serif" font-size="14.00">プログラマーのためのカフェ</text>
</g>
<!-- 無料Wi&#45;Fiが高速 -->
<g id="node2" class="node">
<title>無料Wi&#45;Fiが高速</title>
<ellipse fill="none" stroke="black" cx="957.37" cy="-385.16" rx="77.99" ry="18"/>
<text text-anchor="middle" x="957.37" y="-381.46" font-family="Times,serif" font-size="14.00">無料Wi&#45;Fiが高速</text>
</g>
<!-- プログラマーのためのカフェ&#45;&gt;無料Wi&#45;Fiが高速 -->
<g id="edge1" class="edge">
<title>プログラマーのためのカフェ&#45;&gt;無料Wi&#45;Fiが高速</title>
<path fill="none" stroke="black" d="M775.57,-420.54C814.01,-413.05 854.48,-405.18 887.45,-398.76"/>
<polygon fill="black" stroke="black" points="888.29,-402.17 897.43,-396.82 886.95,-395.29 888.29,-402.17"/>
</g>
<!-- 技術書の本棚がある -->
<g id="node3" class="node">
<title>技術書の本棚がある</title>
<ellipse fill="none" stroke="black" cx="508.01" cy="-97.98" rx="94.48" ry="18"/>
<text text-anchor="middle" x="508.01" y="-94.28" font-family="Times,serif" font-size="14.00">技術書の本棚がある</text>
</g>
<!-- プログラマーのためのカフェ&#45;&gt;技術書の本棚がある -->
<g id="edge2" class="edge">
<title>プログラマーのためのカフェ&#45;&gt;技術書の本棚がある</title>
<path fill="none" stroke="black" d="M594.44,-320.53C566.97,-249.79 534.99,-167.47 518.72,-125.56"/>
<polygon fill="black" stroke="black" points="521.91,-124.1 515.02,-116.05 515.38,-126.63 521.91,-124.1"/>
</g>
<!-- ドリンク -->
<g id="node4" class="node">
<title>ドリンク</title>
<ellipse fill="none" stroke="black" cx="526.54" cy="-788.02" rx="47.39" ry="18"/>
<text text-anchor="middle" x="526.54" y="-784.32" font-family="Times,serif" font-size="14.00">ドリンク</text>
</g>
<!-- プログラマーのためのカフェ&#45;&gt;ドリンク -->
<g id="edge3" class="edge">
<title>プログラマーのためのカフェ&#45;&gt;ドリンク</title>
<path fill="none" stroke="black" d="M599.64,-574.02C576.41,-642.04 549.84,-719.81 536.02,-760.27"/>
<polygon fill="black" stroke="black" points="532.63,-759.36 532.71,-769.96 539.26,-761.62 532.63,-759.36"/>
</g>
<!-- 電源使いたい放題 -->
<g id="node9" class="node">
<title>電源使いたい放題</title>
<ellipse fill="none" stroke="black" cx="726.93" cy="-168.22" rx="85.29" ry="18"/>
<text text-anchor="middle" x="726.93" y="-164.52" font-family="Times,serif" font-size="14.00">電源使いたい放題</text>
</g>
<!-- プログラマーのためのカフェ&#45;&gt;電源使いたい放題 -->
<g id="edge8" class="edge">
<title>プログラマーのためのカフェ&#45;&gt;電源使いたい放題</title>
<path fill="none" stroke="black" d="M682.17,-317.02C695.85,-271.55 709.95,-224.67 718.58,-195.99"/>
<polygon fill="black" stroke="black" points="721.97,-196.86 721.5,-186.28 715.27,-194.85 721.97,-196.86"/>
</g>
<!-- プリントサービス -->
<g id="node15" class="node">
<title>プリントサービス</title>
<ellipse fill="none" stroke="black" cx="1051.21" cy="-434.61" rx="85.29" ry="18"/>
<text text-anchor="middle" x="1051.21" y="-430.91" font-family="Times,serif" font-size="14.00">プリントサービス</text>
</g>
<!-- プログラマーのためのカフェ&#45;&gt;プリントサービス -->
<g id="edge14" class="edge">
<title>プログラマーのためのカフェ&#45;&gt;プリントサービス</title>
<path fill="none" stroke="black" d="M777.98,-442.42C836.41,-440.75 903.45,-438.83 956.5,-437.32"/>
<polygon fill="black" stroke="black" points="956.68,-440.81 966.57,-437.03 956.48,-433.82 956.68,-440.81"/>
</g>
<!-- 会議室サービス -->
<g id="node19" class="node">
<title>会議室サービス</title>
<ellipse fill="none" stroke="black" cx="289.83" cy="-282.62" rx="75.29" ry="18"/>
<text text-anchor="middle" x="289.83" y="-278.92" font-family="Times,serif" font-size="14.00">会議室サービス</text>
</g>
<!-- プログラマーのためのカフェ&#45;&gt;会議室サービス -->
<g id="edge18" class="edge">
<title>プログラマーのためのカフェ&#45;&gt;会議室サービス</title>
<path fill="none" stroke="black" d="M520.65,-389.5C455.93,-359.53 380.48,-324.6 333.94,-303.04"/>
<polygon fill="black" stroke="black" points="335.29,-299.81 324.74,-298.78 332.34,-306.16 335.29,-299.81"/>
</g>
<!-- おかわり自由 -->
<g id="node5" class="node">
<title>おかわり自由</title>
<polygon fill="none" stroke="black" points="419.3,-808.5 317.3,-808.5 317.3,-772.5 419.3,-772.5 419.3,-808.5"/>
<text text-anchor="middle" x="368.3" y="-786.8" font-family="Times,serif" font-size="14.00">おかわり自由</text>
</g>
<!-- ドリンク&#45;&gt;おかわり自由 -->
<g id="edge4" class="edge">
<title>ドリンク&#45;&gt;おかわり自由</title>
<path fill="none" stroke="black" d="M479.06,-788.77C463.45,-789.01 445.88,-789.29 429.41,-789.54"/>
<polygon fill="black" stroke="black" points="429.27,-786.05 419.32,-789.7 429.38,-793.04 429.27,-786.05"/>
</g>
<!-- エナジードリンクがある -->
<g id="node6" class="node">
<title>エナジードリンクがある</title>
<polygon fill="none" stroke="black" points="765.42,-935.42 593.42,-935.42 593.42,-899.42 765.42,-899.42 765.42,-935.42"/>
<text text-anchor="middle" x="679.42" y="-913.72" font-family="Times,serif" font-size="14.00">エナジードリンクがある</text>
</g>
<!-- ドリンク&#45;&gt;エナジードリンクがある -->
<g id="edge5" class="edge">
<title>ドリンク&#45;&gt;エナジードリンクがある</title>
<path fill="none" stroke="black" d="M546.21,-804.68C572.57,-826.98 619.55,-866.75 650.09,-892.6"/>
<polygon fill="black" stroke="black" points="647.96,-895.38 657.86,-899.17 652.48,-890.04 647.96,-895.38"/>
</g>
<!-- コーヒーの豆を選べる -->
<g id="node7" class="node">
<title>コーヒーの豆を選べる</title>
<polygon fill="none" stroke="black" points="459.59,-935.53 300.59,-935.53 300.59,-899.53 459.59,-899.53 459.59,-935.53"/>
<text text-anchor="middle" x="380.09" y="-913.83" font-family="Times,serif" font-size="14.00">コーヒーの豆を選べる</text>
</g>
<!-- ドリンク&#45;&gt;コーヒーの豆を選べる -->
<g id="edge6" class="edge">
<title>ドリンク&#45;&gt;コーヒーの豆を選べる</title>
<path fill="none" stroke="black" d="M507.69,-804.69C482.55,-826.92 437.83,-866.47 408.56,-892.35"/>
<polygon fill="black" stroke="black" points="405.92,-890.02 400.75,-899.26 410.56,-895.26 405.92,-890.02"/>
</g>
<!-- 豊富な紅茶パック -->
<g id="node8" class="node">
<title>豊富な紅茶パック</title>
<polygon fill="none" stroke="black" points="609.73,-982.42 478.73,-982.42 478.73,-946.42 609.73,-946.42 609.73,-982.42"/>
<text text-anchor="middle" x="544.23" y="-960.72" font-family="Times,serif" font-size="14.00">豊富な紅茶パック</text>
</g>
<!-- ドリンク&#45;&gt;豊富な紅茶パック -->
<g id="edge7" class="edge">
<title>ドリンク&#45;&gt;豊富な紅茶パック</title>
<path fill="none" stroke="black" d="M528.37,-806.24C531.46,-837.08 537.75,-899.8 541.41,-936.31"/>
<polygon fill="black" stroke="black" points="537.94,-936.71 542.42,-946.31 544.9,-936.01 537.94,-936.71"/>
</g>
<!-- 主要PCの充電器無料貸し出し -->
<g id="node10" class="node">
<title>主要PCの充電器無料貸し出し</title>
<polygon fill="none" stroke="black" points="821.63,-124.68 617.63,-124.68 617.63,-88.68 821.63,-88.68 821.63,-124.68"/>
<text text-anchor="middle" x="719.63" y="-102.98" font-family="Times,serif" font-size="14.00">主要PCの充電器無料貸し出し</text>
</g>
<!-- 電源使いたい放題&#45;&gt;主要PCの充電器無料貸し出し -->
<g id="edge9" class="edge">
<title>電源使いたい放題&#45;&gt;主要PCの充電器無料貸し出し</title>
<path fill="none" stroke="black" d="M724.78,-150.09C724.22,-145.38 723.61,-140.18 723,-135.07"/>
<polygon fill="black" stroke="black" points="726.45,-134.41 721.79,-124.9 719.5,-135.24 726.45,-134.41"/>
</g>
<!-- USB充電ポートがある -->
<g id="node11" class="node">
<title>USB充電ポートがある</title>
<polygon fill="none" stroke="black" points="1012.99,-228.16 855.99,-228.16 855.99,-192.16 1012.99,-192.16 1012.99,-228.16"/>
<text text-anchor="middle" x="934.49" y="-206.46" font-family="Times,serif" font-size="14.00">USB充電ポートがある</text>
</g>
<!-- 電源使いたい放題&#45;&gt;USB充電ポートがある -->
<g id="edge10" class="edge">
<title>電源使いたい放題&#45;&gt;USB充電ポートがある</title>
<path fill="none" stroke="black" d="M788.65,-180.69C806.56,-184.31 826.48,-188.33 845.7,-192.22"/>
<polygon fill="black" stroke="black" points="845.18,-195.68 855.67,-194.23 846.56,-188.82 845.18,-195.68"/>
</g>
<!-- 急速充電対応 -->
<g id="node12" class="node">
<title>急速充電対応</title>
<polygon fill="none" stroke="black" points="1046.89,-36.02 944.89,-36.02 944.89,-0.02 1046.89,-0.02 1046.89,-36.02"/>
<text text-anchor="middle" x="995.89" y="-14.32" font-family="Times,serif" font-size="14.00">急速充電対応</text>
</g>
<!-- USB充電ポートがある&#45;&gt;急速充電対応 -->
<g id="edge11" class="edge">
<title>USB充電ポートがある&#45;&gt;急速充電対応</title>
<path fill="none" stroke="black" d="M940.27,-192.08C951.03,-158.39 974.22,-85.81 987,-45.84"/>
<polygon fill="black" stroke="black" points="990.37,-46.78 990.08,-36.19 983.7,-44.65 990.37,-46.78"/>
</g>
<!-- PDに対応している -->
<g id="node13" class="node">
<title>PDに対応している</title>
<polygon fill="none" stroke="black" points="1180.79,-102.97 1048.79,-102.97 1048.79,-66.97 1180.79,-66.97 1180.79,-102.97"/>
<text text-anchor="middle" x="1114.79" y="-81.27" font-family="Times,serif" font-size="14.00">PDに対応している</text>
</g>
<!-- USB充電ポートがある&#45;&gt;PDに対応している -->
<g id="edge12" class="edge">
<title>USB充電ポートがある&#45;&gt;PDに対応している</title>
<path fill="none" stroke="black" d="M960.71,-191.95C992.31,-170.01 1045.51,-133.07 1080.39,-108.86"/>
<polygon fill="black" stroke="black" points="1082.62,-111.57 1088.84,-102.99 1078.62,-105.82 1082.62,-111.57"/>
</g>
<!-- 大量のUSBポートがある -->
<g id="node14" class="node">
<title>大量のUSBポートがある</title>
<polygon fill="none" stroke="black" points="992.69,-281.43 821.69,-281.43 821.69,-245.43 992.69,-245.43 992.69,-281.43"/>
<text text-anchor="middle" x="907.19" y="-259.73" font-family="Times,serif" font-size="14.00">大量のUSBポートがある</text>
</g>
<!-- USB充電ポートがある&#45;&gt;大量のUSBポートがある -->
<g id="edge13" class="edge">
<title>USB充電ポートがある&#45;&gt;大量のUSBポートがある</title>
<path fill="none" stroke="black" d="M925.25,-228.19C923.91,-230.8 922.52,-233.52 921.12,-236.26"/>
<polygon fill="black" stroke="black" points="917.87,-234.92 916.42,-245.41 924.1,-238.11 917.87,-234.92"/>
</g>
<!-- 名刺印刷も対応 -->
<g id="node16" class="node">
<title>名刺印刷も対応</title>
<polygon fill="none" stroke="black" points="1281.28,-605.13 1165.28,-605.13 1165.28,-569.13 1281.28,-569.13 1281.28,-605.13"/>
<text text-anchor="middle" x="1223.28" y="-583.43" font-family="Times,serif" font-size="14.00">名刺印刷も対応</text>
</g>
<!-- プリントサービス&#45;&gt;名刺印刷も対応 -->
<g id="edge15" class="edge">
<title>プリントサービス&#45;&gt;名刺印刷も対応</title>
<path fill="none" stroke="black" d="M1071.29,-452.4C1101.82,-479.46 1160.04,-531.07 1194.89,-561.97"/>
<polygon fill="black" stroke="black" points="1192.99,-564.96 1202.8,-568.97 1197.64,-559.72 1192.99,-564.96"/>
</g>
<!-- 気軽に印刷できる -->
<g id="node17" class="node">
<title>気軽に印刷できる</title>
<polygon fill="none" stroke="black" points="1355.21,-460.24 1224.21,-460.24 1224.21,-424.24 1355.21,-424.24 1355.21,-460.24"/>
<text text-anchor="middle" x="1289.71" y="-438.54" font-family="Times,serif" font-size="14.00">気軽に印刷できる</text>
</g>
<!-- プリントサービス&#45;&gt;気軽に印刷できる -->
<g id="edge16" class="edge">
<title>プリントサービス&#45;&gt;気軽に印刷できる</title>
<path fill="none" stroke="black" d="M1135.64,-437.31C1161.19,-438.13 1189.09,-439.02 1214.04,-439.82"/>
<polygon fill="black" stroke="black" points="1214.06,-443.32 1224.17,-440.14 1214.28,-436.32 1214.06,-443.32"/>
</g>
<!-- 郵送サービスあり -->
<g id="node18" class="node">
<title>郵送サービスあり</title>
<polygon fill="none" stroke="black" points="1166.49,-498.27 1035.49,-498.27 1035.49,-462.27 1166.49,-462.27 1166.49,-498.27"/>
<text text-anchor="middle" x="1100.99" y="-476.57" font-family="Times,serif" font-size="14.00">郵送サービスあり</text>
</g>
<!-- プリントサービス&#45;&gt;郵送サービスあり -->
<g id="edge17" class="edge">
<title>プリントサービス&#45;&gt;郵送サービスあり</title>
<path fill="none" stroke="black" d="M1070.6,-452.39C1071.58,-453.29 1072.58,-454.2 1073.58,-455.12"/>
<polygon fill="black" stroke="black" points="1071.51,-457.97 1081.24,-462.16 1076.24,-452.82 1071.51,-457.97"/>
</g>
<!-- ネット予約できる -->
<g id="node20" class="node">
<title>ネット予約できる</title>
<polygon fill="none" stroke="black" points="176.09,-172.81 45.09,-172.81 45.09,-136.81 176.09,-136.81 176.09,-172.81"/>
<text text-anchor="middle" x="110.59" y="-151.11" font-family="Times,serif" font-size="14.00">ネット予約できる</text>
</g>
<!-- 会議室サービス&#45;&gt;ネット予約できる -->
<g id="edge19" class="edge">
<title>会議室サービス&#45;&gt;ネット予約できる</title>
<path fill="none" stroke="black" d="M265.66,-265.38C234.47,-243.15 180.05,-204.33 144.67,-179.11"/>
<polygon fill="black" stroke="black" points="146.29,-175.96 136.12,-173.01 142.23,-181.66 146.29,-175.96"/>
</g>
<!-- プロジェクターあり -->
<g id="node21" class="node">
<title>プロジェクターあり</title>
<polygon fill="none" stroke="black" points="143.32,-332.08 0.32,-332.08 0.32,-296.08 143.32,-296.08 143.32,-332.08"/>
<text text-anchor="middle" x="71.82" y="-310.38" font-family="Times,serif" font-size="14.00">プロジェクターあり</text>
</g>
<!-- 会議室サービス&#45;&gt;プロジェクターあり -->
<g id="edge20" class="edge">
<title>会議室サービス&#45;&gt;プロジェクターあり</title>
<path fill="none" stroke="black" d="M225.3,-291.93C202.78,-295.18 177.2,-298.88 153.47,-302.3"/>
<polygon fill="black" stroke="black" points="152.82,-298.86 143.43,-303.75 153.82,-305.79 152.82,-298.86"/>
</g>
<!-- 勉強会にも使える -->
<g id="node22" class="node">
<title>勉強会にも使える</title>
<polygon fill="none" stroke="black" points="360.76,-254 230.76,-254 230.76,-218 360.76,-218 360.76,-254"/>
<text text-anchor="middle" x="295.76" y="-232.3" font-family="Times,serif" font-size="14.00">勉強会にも使える</text>
</g>
<!-- 会議室サービス&#45;&gt;勉強会にも使える -->
<g id="edge21" class="edge">
<title>会議室サービス&#45;&gt;勉強会にも使える</title>
<path fill="none" stroke="black" d="M292.14,-264.46C292.15,-264.36 292.17,-264.25 292.18,-264.15"/>
<polygon fill="black" stroke="black" points="295.66,-264.55 293.45,-254.19 288.71,-263.66 295.66,-264.55"/>
</g>
</g>
</svg>
