<?xml version="1.0" encoding="UTF-8" standalone="no"?>
<!DOCTYPE svg PUBLIC "-//W3C//DTD SVG 1.1//EN"
 "http://www.w3.org/Graphics/SVG/1.1/DTD/svg11.dtd">
<!-- Generated by graphviz version 5.0.0 (20220707.1540)
 -->
<!-- Title: idea Pages: 1 -->
<svg width="2245pt" height="1930pt"
 viewBox="0.00 0.00 2245.13 1929.50" xmlns="http://www.w3.org/2000/svg" xmlns:xlink="http://www.w3.org/1999/xlink">
<g id="graph0" class="graph" transform="scale(1 1) rotate(0) translate(4 1925.5)">
<title>idea</title>
<polygon fill="white" stroke="transparent" points="-4,4 -4,-1925.5 2241.13,-1925.5 2241.13,4 -4,4"/>
<!-- 中心となるアイデア -->
<g id="node1" class="node">
<title>中心となるアイデア</title>
<ellipse fill="none" stroke="black" cx="878.01" cy="-960.75" rx="299.63" ry="299.63"/>
<ellipse fill="none" stroke="black" cx="878.01" cy="-960.75" rx="303.63" ry="303.63"/>
<text text-anchor="middle" x="878.01" y="-949.45" font-family="Times,serif" font-size="46.00">中心となるアイデア</text>
</g>
<!-- アイデア1 -->
<g id="node2" class="node">
<title>アイデア1</title>
<ellipse fill="none" stroke="black" cx="1745.98" cy="-960.75" rx="154.3" ry="41.94"/>
<text text-anchor="middle" x="1745.98" y="-949.45" font-family="Times,serif" font-size="46.00">アイデア1</text>
</g>
<!-- 中心となるアイデア&#45;&gt;アイデア1 -->
<g id="edge1" class="edge">
<title>中心となるアイデア&#45;&gt;アイデア1</title>
<path fill="none" stroke="black" d="M1181.89,-960.75C1316.28,-960.75 1469,-960.75 1581.61,-960.75"/>
<polygon fill="black" stroke="black" points="1581.7,-964.25 1591.7,-960.75 1581.7,-957.25 1581.7,-964.25"/>
</g>
<!-- アイデア2 -->
<g id="node6" class="node">
<title>アイデア2</title>
<ellipse fill="none" stroke="black" cx="444.03" cy="-1712.43" rx="154.3" ry="41.94"/>
<text text-anchor="middle" x="444.03" y="-1701.13" font-family="Times,serif" font-size="46.00">アイデア2</text>
</g>
<!-- 中心となるアイデア&#45;&gt;アイデア2 -->
<g id="edge5" class="edge">
<title>中心となるアイデア&#45;&gt;アイデア2</title>
<path fill="none" stroke="black" d="M726.08,-1223.92C633.7,-1383.92 523.98,-1573.95 472.89,-1662.45"/>
<polygon fill="black" stroke="black" points="469.8,-1660.79 467.83,-1671.2 475.87,-1664.29 469.8,-1660.79"/>
</g>
<!-- アイデア3 -->
<g id="node9" class="node">
<title>アイデア3</title>
<ellipse fill="none" stroke="black" cx="444.03" cy="-209.07" rx="154.3" ry="41.94"/>
<text text-anchor="middle" x="444.03" y="-197.77" font-family="Times,serif" font-size="46.00">アイデア3</text>
</g>
<!-- 中心となるアイデア&#45;&gt;アイデア3 -->
<g id="edge8" class="edge">
<title>中心となるアイデア&#45;&gt;アイデア3</title>
<path fill="none" stroke="black" d="M726.08,-697.59C633.7,-537.58 523.98,-347.55 472.89,-259.05"/>
<polygon fill="black" stroke="black" points="475.87,-257.21 467.83,-250.3 469.8,-260.71 475.87,-257.21"/>
</g>
<!-- アイデア1&#45;A -->
<g id="node3" class="node">
<title>アイデア1&#45;A</title>
<polygon fill="none" stroke="black" points="1699.55,-679.14 1433.55,-679.14 1433.55,-620.14 1699.55,-620.14 1699.55,-679.14"/>
<text text-anchor="middle" x="1566.55" y="-638.34" font-family="Times,serif" font-size="46.00">アイデア1&#45;A</text>
</g>
<!-- アイデア1&#45;&gt;アイデア1&#45;A -->
<g id="edge2" class="edge">
<title>アイデア1&#45;&gt;アイデア1&#45;A</title>
<path fill="none" stroke="black" d="M1722.15,-919.44C1687.31,-859.03 1622.93,-747.4 1588.93,-688.45"/>
<polygon fill="black" stroke="black" points="1591.77,-686.37 1583.74,-679.46 1585.71,-689.87 1591.77,-686.37"/>
</g>
<!-- アイデア1&#45;B -->
<g id="node4" class="node">
<title>アイデア1&#45;B</title>
<polygon fill="none" stroke="black" points="2237.13,-990.75 1973.13,-990.75 1973.13,-931.75 2237.13,-931.75 2237.13,-990.75"/>
<text text-anchor="middle" x="2105.13" y="-949.95" font-family="Times,serif" font-size="46.00">アイデア1&#45;B</text>
</g>
<!-- アイデア1&#45;&gt;アイデア1&#45;B -->
<g id="edge3" class="edge">
<title>アイデア1&#45;&gt;アイデア1&#45;B</title>
<path fill="none" stroke="black" d="M1900.37,-960.97C1921.12,-961 1942.33,-961.03 1962.86,-961.05"/>
<polygon fill="black" stroke="black" points="1962.87,-964.55 1972.87,-961.07 1962.88,-957.55 1962.87,-964.55"/>
</g>
<!-- アイデア1&#45;C -->
<g id="node5" class="node">
<title>アイデア1&#45;C</title>
<polygon fill="none" stroke="black" points="1698.55,-1301.37 1434.55,-1301.37 1434.55,-1242.37 1698.55,-1242.37 1698.55,-1301.37"/>
<text text-anchor="middle" x="1566.55" y="-1260.57" font-family="Times,serif" font-size="46.00">アイデア1&#45;C</text>
</g>
<!-- アイデア1&#45;&gt;アイデア1&#45;C -->
<g id="edge4" class="edge">
<title>アイデア1&#45;&gt;アイデア1&#45;C</title>
<path fill="none" stroke="black" d="M1722.15,-1002.07C1687.31,-1062.47 1622.93,-1174.1 1588.93,-1233.06"/>
<polygon fill="black" stroke="black" points="1585.71,-1231.64 1583.74,-1242.05 1591.77,-1235.14 1585.71,-1231.64"/>
</g>
<!-- アイデア2&#45;A -->
<g id="node7" class="node">
<title>アイデア2&#45;A</title>
<polygon fill="none" stroke="black" points="888.06,-1921.5 622.06,-1921.5 622.06,-1862.5 888.06,-1862.5 888.06,-1921.5"/>
<text text-anchor="middle" x="755.06" y="-1880.7" font-family="Times,serif" font-size="46.00">アイデア2&#45;A</text>
</g>
<!-- アイデア2&#45;&gt;アイデア2&#45;A -->
<g id="edge6" class="edge">
<title>アイデア2&#45;&gt;アイデア2&#45;A</title>
<path fill="none" stroke="black" d="M509.61,-1750.29C564.37,-1781.91 641.79,-1826.61 694.96,-1857.3"/>
<polygon fill="black" stroke="black" points="693.53,-1860.52 703.94,-1862.49 697.03,-1854.45 693.53,-1860.52"/>
</g>
<!-- アイデア2&#45;B -->
<g id="node8" class="node">
<title>アイデア2&#45;B</title>
<polygon fill="none" stroke="black" points="265,-1562.36 1,-1562.36 1,-1503.36 265,-1503.36 265,-1562.36"/>
<text text-anchor="middle" x="133" y="-1521.56" font-family="Times,serif" font-size="46.00">アイデア2&#45;B</text>
</g>
<!-- アイデア2&#45;&gt;アイデア2&#45;B -->
<g id="edge7" class="edge">
<title>アイデア2&#45;&gt;アイデア2&#45;B</title>
<path fill="none" stroke="black" d="M378.45,-1674.57C323.69,-1642.95 246.27,-1598.25 193.1,-1567.56"/>
<polygon fill="black" stroke="black" points="194.54,-1564.34 184.13,-1562.37 191.04,-1570.41 194.54,-1564.34"/>
</g>
<!-- アイデア3&#45;A -->
<g id="node10" class="node">
<title>アイデア3&#45;A</title>
<polygon fill="none" stroke="black" points="266,-418.15 0,-418.15 0,-359.15 266,-359.15 266,-418.15"/>
<text text-anchor="middle" x="133" y="-377.35" font-family="Times,serif" font-size="46.00">アイデア3&#45;A</text>
</g>
<!-- アイデア3&#45;&gt;アイデア3&#45;A -->
<g id="edge9" class="edge">
<title>アイデア3&#45;&gt;アイデア3&#45;A</title>
<path fill="none" stroke="black" d="M378.45,-246.94C323.69,-278.55 246.27,-323.25 193.1,-353.95"/>
<polygon fill="black" stroke="black" points="191.04,-351.1 184.13,-359.13 194.54,-357.16 191.04,-351.1"/>
</g>
<!-- アイデア3&#45;B -->
<g id="node11" class="node">
<title>アイデア3&#45;B</title>
<polygon fill="none" stroke="black" points="887.06,-59 623.06,-59 623.06,0 887.06,0 887.06,-59"/>
<text text-anchor="middle" x="755.06" y="-18.2" font-family="Times,serif" font-size="46.00">アイデア3&#45;B</text>
</g>
<!-- アイデア3&#45;&gt;アイデア3&#45;B -->
<g id="edge10" class="edge">
<title>アイデア3&#45;&gt;アイデア3&#45;B</title>
<path fill="none" stroke="black" d="M509.61,-171.21C564.37,-139.6 641.79,-94.9 694.96,-64.2"/>
<polygon fill="black" stroke="black" points="697.03,-67.05 703.94,-59.02 693.53,-60.99 697.03,-67.05"/>
</g>
</g>
</svg>
