<?xml version="1.0" encoding="UTF-8" standalone="no"?>
<!DOCTYPE svg PUBLIC "-//W3C//DTD SVG 1.1//EN"
 "http://www.w3.org/Graphics/SVG/1.1/DTD/svg11.dtd">
<!-- Generated by graphviz version 5.0.0 (20220707.1540)
 -->
<!-- Title: idea Pages: 1 -->
<svg width="560pt" height="580pt"
 viewBox="0.00 0.00 560.00 580.00" xmlns="http://www.w3.org/2000/svg" xmlns:xlink="http://www.w3.org/1999/xlink">
<g id="graph0" class="graph" transform="scale(1 1) rotate(0) translate(4 576)">
<title>idea</title>
<polygon fill="white" stroke="transparent" points="-4,4 -4,-576 556,-576 556,4 -4,4"/>
<!-- 中心となるアイデア -->
<g id="node1" class="node">
<title>中心となるアイデア</title>
<ellipse fill="none" stroke="black" cx="357.61" cy="-271.91" rx="92.89" ry="92.89"/>
<ellipse fill="none" stroke="black" cx="357.61" cy="-271.91" rx="96.88" ry="96.88"/>
<text text-anchor="middle" x="357.61" y="-268.21" font-family="Times,serif" font-size="14.00">中心となるアイデア</text>
</g>
<!-- アイデア1 -->
<g id="node2" class="node">
<title>アイデア1</title>
<ellipse fill="none" stroke="black" cx="177.58" cy="-431.36" rx="51.19" ry="18"/>
<text text-anchor="middle" x="177.58" y="-427.66" font-family="Times,serif" font-size="14.00">アイデア1</text>
</g>
<!-- 中心となるアイデア&#45;&gt;アイデア1 -->
<g id="edge1" class="edge">
<title>中心となるアイデア&#45;&gt;アイデア1</title>
<path fill="none" stroke="black" d="M284.91,-336.31C256.52,-361.45 225.76,-388.7 204.47,-407.55"/>
<polygon fill="black" stroke="black" points="201.97,-405.09 196.8,-414.34 206.61,-410.33 201.97,-405.09"/>
</g>
<!-- アイデア2 -->
<g id="node6" class="node">
<title>アイデア2</title>
<ellipse fill="none" stroke="black" cx="387.94" cy="-395.53" rx="51.19" ry="18"/>
<text text-anchor="middle" x="387.94" y="-391.83" font-family="Times,serif" font-size="14.00">アイデア2</text>
</g>
<!-- 中心となるアイデア&#45;&gt;アイデア2 -->
<g id="edge5" class="edge">
<title>中心となるアイデア&#45;&gt;アイデア2</title>
<path fill="none" stroke="black" d="M380.75,-366.23C380.84,-366.6 380.93,-366.97 381.02,-367.34"/>
<polygon fill="black" stroke="black" points="377.68,-368.4 383.46,-377.28 384.48,-366.73 377.68,-368.4"/>
</g>
<!-- アイデア3 -->
<g id="node9" class="node">
<title>アイデア3</title>
<ellipse fill="none" stroke="black" cx="399.16" cy="-147.49" rx="51.19" ry="18"/>
<text text-anchor="middle" x="399.16" y="-143.79" font-family="Times,serif" font-size="14.00">アイデア3</text>
</g>
<!-- 中心となるアイデア&#45;&gt;アイデア3 -->
<g id="edge8" class="edge">
<title>中心となるアイデア&#45;&gt;アイデア3</title>
<path fill="none" stroke="black" d="M388.35,-179.85C388.89,-178.23 389.42,-176.64 389.94,-175.09"/>
<polygon fill="black" stroke="black" points="393.28,-176.15 393.13,-165.55 386.64,-173.93 393.28,-176.15"/>
</g>
<!-- アイデア1&#45;A -->
<g id="node3" class="node">
<title>アイデア1&#45;A</title>
<polygon fill="none" stroke="black" points="92.63,-410.99 -0.37,-410.99 -0.37,-374.99 92.63,-374.99 92.63,-410.99"/>
<text text-anchor="middle" x="46.13" y="-389.29" font-family="Times,serif" font-size="14.00">アイデア1&#45;A</text>
</g>
<!-- アイデア1&#45;&gt;アイデア1&#45;A -->
<g id="edge2" class="edge">
<title>アイデア1&#45;&gt;アイデア1&#45;A</title>
<path fill="none" stroke="black" d="M137.79,-419.74C126.69,-416.5 114.41,-412.92 102.55,-409.46"/>
<polygon fill="black" stroke="black" points="103.3,-406.03 92.72,-406.59 101.34,-412.75 103.3,-406.03"/>
</g>
<!-- アイデア1&#45;B -->
<g id="node4" class="node">
<title>アイデア1&#45;B</title>
<polygon fill="none" stroke="black" points="282.59,-571.75 190.59,-571.75 190.59,-535.75 282.59,-535.75 282.59,-571.75"/>
<text text-anchor="middle" x="236.59" y="-550.05" font-family="Times,serif" font-size="14.00">アイデア1&#45;B</text>
</g>
<!-- アイデア1&#45;&gt;アイデア1&#45;B -->
<g id="edge3" class="edge">
<title>アイデア1&#45;&gt;アイデア1&#45;B</title>
<path fill="none" stroke="black" d="M186.16,-449.16C195.94,-469.44 212.03,-502.81 223.4,-526.4"/>
<polygon fill="black" stroke="black" points="220.31,-528.04 227.81,-535.53 226.62,-525 220.31,-528.04"/>
</g>
<!-- アイデア1&#45;C -->
<g id="node5" class="node">
<title>アイデア1&#45;C</title>
<polygon fill="none" stroke="black" points="155.51,-568.75 63.51,-568.75 63.51,-532.75 155.51,-532.75 155.51,-568.75"/>
<text text-anchor="middle" x="109.51" y="-547.05" font-family="Times,serif" font-size="14.00">アイデア1&#45;C</text>
</g>
<!-- アイデア1&#45;&gt;アイデア1&#45;C -->
<g id="edge4" class="edge">
<title>アイデア1&#45;&gt;アイデア1&#45;C</title>
<path fill="none" stroke="black" d="M167.39,-449.24C156.18,-468.9 138.02,-500.74 125.03,-523.52"/>
<polygon fill="black" stroke="black" points="121.91,-521.94 119.99,-532.36 127.99,-525.41 121.91,-521.94"/>
</g>
<!-- アイデア2&#45;A -->
<g id="node7" class="node">
<title>アイデア2&#45;A</title>
<polygon fill="none" stroke="black" points="347.11,-501.08 254.11,-501.08 254.11,-465.08 347.11,-465.08 347.11,-501.08"/>
<text text-anchor="middle" x="300.61" y="-479.38" font-family="Times,serif" font-size="14.00">アイデア2&#45;A</text>
</g>
<!-- アイデア2&#45;&gt;アイデア2&#45;A -->
<g id="edge6" class="edge">
<title>アイデア2&#45;&gt;アイデア2&#45;A</title>
<path fill="none" stroke="black" d="M370.69,-412.83C357.9,-425.64 340.28,-443.31 325.91,-457.72"/>
<polygon fill="black" stroke="black" points="323.32,-455.36 318.73,-464.92 328.27,-460.31 323.32,-455.36"/>
</g>
<!-- アイデア2&#45;B -->
<g id="node8" class="node">
<title>アイデア2&#45;B</title>
<polygon fill="none" stroke="black" points="552.11,-471.68 460.11,-471.68 460.11,-435.68 552.11,-435.68 552.11,-471.68"/>
<text text-anchor="middle" x="506.11" y="-449.98" font-family="Times,serif" font-size="14.00">アイデア2&#45;B</text>
</g>
<!-- アイデア2&#45;&gt;アイデア2&#45;B -->
<g id="edge7" class="edge">
<title>アイデア2&#45;&gt;アイデア2&#45;B</title>
<path fill="none" stroke="black" d="M417.76,-410.2C430.55,-416.5 445.78,-423.99 459.97,-430.98"/>
<polygon fill="black" stroke="black" points="458.59,-434.2 469.1,-435.47 461.68,-427.92 458.59,-434.2"/>
</g>
<!-- アイデア3&#45;A -->
<g id="node10" class="node">
<title>アイデア3&#45;A</title>
<polygon fill="none" stroke="black" points="409.14,-35.72 316.14,-35.72 316.14,0.28 409.14,0.28 409.14,-35.72"/>
<text text-anchor="middle" x="362.64" y="-14.02" font-family="Times,serif" font-size="14.00">アイデア3&#45;A</text>
</g>
<!-- アイデア3&#45;&gt;アイデア3&#45;A -->
<g id="edge9" class="edge">
<title>アイデア3&#45;&gt;アイデア3&#45;A</title>
<path fill="none" stroke="black" d="M394.08,-129.44C387.98,-107.78 377.69,-71.18 370.55,-45.81"/>
<polygon fill="black" stroke="black" points="373.87,-44.71 367.8,-36.03 367.13,-46.6 373.87,-44.71"/>
</g>
<!-- アイデア3&#45;B -->
<g id="node11" class="node">
<title>アイデア3&#45;B</title>
<polygon fill="none" stroke="black" points="548.56,-79.56 456.56,-79.56 456.56,-43.56 548.56,-43.56 548.56,-79.56"/>
<text text-anchor="middle" x="502.56" y="-57.86" font-family="Times,serif" font-size="14.00">アイデア3&#45;B</text>
</g>
<!-- アイデア3&#45;&gt;アイデア3&#45;B -->
<g id="edge10" class="edge">
<title>アイデア3&#45;&gt;アイデア3&#45;B</title>
<path fill="none" stroke="black" d="M419.59,-130.51C434.76,-117.9 455.69,-100.51 472.74,-86.34"/>
<polygon fill="black" stroke="black" points="475.3,-88.77 480.75,-79.69 470.82,-83.38 475.3,-88.77"/>
</g>
</g>
</svg>
