<?xml version="1.0" encoding="UTF-8" standalone="no"?>
<!DOCTYPE svg PUBLIC "-//W3C//DTD SVG 1.1//EN"
 "http://www.w3.org/Graphics/SVG/1.1/DTD/svg11.dtd">
<!-- Generated by graphviz version 5.0.0 (20220707.1540)
 -->
<!-- Title: idea Pages: 1 -->
<svg width="854pt" height="757pt"
 viewBox="0.00 0.00 854.43 756.74" xmlns="http://www.w3.org/2000/svg" xmlns:xlink="http://www.w3.org/1999/xlink">
<g id="graph0" class="graph" transform="scale(1 1) rotate(0) translate(4 752.74)">
<title>idea</title>
<polygon fill="white" stroke="transparent" points="-4,4 -4,-752.74 850.43,-752.74 850.43,4 -4,4"/>
<!-- 赤い食べ物 -->
<g id="node1" class="node">
<title>赤い食べ物</title>
<ellipse fill="none" stroke="black" cx="314.34" cy="-374" rx="173.48" ry="173.48"/>
<ellipse fill="none" stroke="black" cx="314.34" cy="-374" rx="177.48" ry="177.48"/>
<text text-anchor="middle" x="314.34" y="-362.7" font-family="Times,serif" font-size="46.00">赤い食べ物</text>
</g>
<!-- ニンジン -->
<g id="node2" class="node">
<title>ニンジン</title>
<ellipse fill="none" stroke="black" cx="705" cy="-374" rx="141.34" ry="41.94"/>
<text text-anchor="middle" x="705" y="-362.7" font-family="Times,serif" font-size="46.00">ニンジン</text>
</g>
<!-- 赤い食べ物&#45;&gt;ニンジン -->
<g id="edge1" class="edge">
<title>赤い食べ物&#45;&gt;ニンジン</title>
<path fill="none" stroke="black" d="M491.67,-374C512.2,-374 533.01,-374 553.16,-374"/>
<polygon fill="black" stroke="black" points="553.31,-377.5 563.31,-374 553.31,-370.5 553.31,-377.5"/>
</g>
<!-- イチゴ -->
<g id="node3" class="node">
<title>イチゴ</title>
<ellipse fill="none" stroke="black" cx="110.1" cy="-707.02" rx="107.46" ry="41.94"/>
<text text-anchor="middle" x="110.1" y="-695.72" font-family="Times,serif" font-size="46.00">イチゴ</text>
</g>
<!-- 赤い食べ物&#45;&gt;イチゴ -->
<g id="edge2" class="edge">
<title>赤い食べ物&#45;&gt;イチゴ</title>
<path fill="none" stroke="black" d="M221.48,-525.4C192.24,-573.08 161.98,-622.42 140.39,-657.62"/>
<polygon fill="black" stroke="black" points="137.34,-655.9 135.1,-666.26 143.31,-659.56 137.34,-655.9"/>
</g>
<!-- トマト -->
<g id="node4" class="node">
<title>トマト</title>
<ellipse fill="none" stroke="black" cx="108.89" cy="-41.72" rx="108.79" ry="41.94"/>
<text text-anchor="middle" x="108.89" y="-30.42" font-family="Times,serif" font-size="46.00">トマト</text>
</g>
<!-- 赤い食べ物&#45;&gt;トマト -->
<g id="edge3" class="edge">
<title>赤い食べ物&#45;&gt;トマト</title>
<path fill="none" stroke="black" d="M220.94,-222.93C191.52,-175.36 161.08,-126.12 139.37,-91"/>
<polygon fill="black" stroke="black" points="142.28,-89.05 134.04,-82.39 136.32,-92.73 142.28,-89.05"/>
</g>
</g>
</svg>
