<?xml version="1.0" encoding="UTF-8" standalone="no"?><svg xmlns="http://www.w3.org/2000/svg" xmlns:xlink="http://www.w3.org/1999/xlink" contentStyleType="text/css" height="250px" preserveAspectRatio="none" style="width:1257px;height:250px;background:#FFFFFF;" version="1.1" viewBox="0 0 1257 250" width="1257px" zoomAndPan="magnify"><defs/><g><rect fill="#F1F1F1" height="61.4648" rx="5" ry="5" style="stroke:#F1F1F1;stroke-width:1.5;" width="22" x="10" y="90"/><text fill="#000000" font-family="sans-serif" font-size="14" lengthAdjust="spacing" textLength="12" x="15" y="105.5352">   </text><line style="stroke:#000000;stroke-width:1.0;" x1="10" x2="32" y1="110.4883" y2="110.4883"/><text fill="#000000" font-family="sans-serif" font-size="14" lengthAdjust="spacing" textLength="12" x="15" y="126.0234">   </text><line style="stroke:#000000;stroke-width:1.0;" x1="10" x2="32" y1="130.9766" y2="130.9766"/><text fill="#000000" font-family="sans-serif" font-size="14" lengthAdjust="spacing" textLength="12" x="15" y="146.5117">   </text><rect fill="none" height="61.4648" rx="5" ry="5" style="stroke:#000000;stroke-width:1.5;" width="22" x="10" y="90"/><rect fill="#F1F1F1" height="61.4648" rx="5" ry="5" style="stroke:#F1F1F1;stroke-width:1.5;" width="440" x="71" y="10"/><text fill="#000000" font-family="sans-serif" font-size="14" font-weight="bold" lengthAdjust="spacing" textLength="39" x="76" y="25.5352">name</text><text fill="#000000" font-family="sans-serif" font-size="14" lengthAdjust="spacing" textLength="112" x="161" y="25.5352">この先はオーロラ</text><line style="stroke:#000000;stroke-width:1.0;" x1="156" x2="156" y1="10" y2="30.4883"/><line style="stroke:#000000;stroke-width:1.0;" x1="71" x2="511" y1="30.4883" y2="30.4883"/><text fill="#000000" font-family="sans-serif" font-size="14" font-weight="bold" lengthAdjust="spacing" textLength="28" x="76" y="46.0234">link</text><text fill="#000000" font-family="sans-serif" font-size="14" lengthAdjust="spacing" textLength="345" x="161" y="46.0234">https://uta.pw/sakusibbs/post.php?mml_id=1269</text><line style="stroke:#000000;stroke-width:1.0;" x1="156" x2="156" y1="30.4883" y2="50.9766"/><line style="stroke:#000000;stroke-width:1.0;" x1="71" x2="511" y1="50.9766" y2="50.9766"/><text fill="#000000" font-family="sans-serif" font-size="14" font-weight="bold" lengthAdjust="spacing" textLength="75" x="76" y="66.5117">comments</text><text fill="#000000" font-family="sans-serif" font-size="14" lengthAdjust="spacing" textLength="12" x="161" y="66.5117">   </text><line style="stroke:#000000;stroke-width:1.0;" x1="156" x2="156" y1="50.9766" y2="71.4648"/><rect fill="none" height="61.4648" rx="5" ry="5" style="stroke:#000000;stroke-width:1.5;" width="440" x="71" y="10"/><rect fill="#F1F1F1" height="15" rx="5" ry="5" style="stroke:#F1F1F1;stroke-width:1.5;" width="30" x="884.5" y="52.5"/><rect fill="none" height="15" rx="5" ry="5" style="stroke:#000000;stroke-width:1.5;" width="30" x="884.5" y="52.5"/><rect fill="#F1F1F1" height="61.4648" rx="5" ry="5" style="stroke:#F1F1F1;stroke-width:1.5;" width="440" x="71" y="89"/><text fill="#000000" font-family="sans-serif" font-size="14" font-weight="bold" lengthAdjust="spacing" textLength="39" x="76" y="104.5352">name</text><text fill="#000000" font-family="sans-serif" font-size="14" lengthAdjust="spacing" textLength="112" x="161" y="104.5352">ブームのニュース</text><line style="stroke:#000000;stroke-width:1.0;" x1="156" x2="156" y1="89" y2="109.4883"/><line style="stroke:#000000;stroke-width:1.0;" x1="71" x2="511" y1="109.4883" y2="109.4883"/><text fill="#000000" font-family="sans-serif" font-size="14" font-weight="bold" lengthAdjust="spacing" textLength="28" x="76" y="125.0234">link</text><text fill="#000000" font-family="sans-serif" font-size="14" lengthAdjust="spacing" textLength="345" x="161" y="125.0234">https://uta.pw/sakusibbs/post.php?mml_id=1268</text><line style="stroke:#000000;stroke-width:1.0;" x1="156" x2="156" y1="109.4883" y2="129.9766"/><line style="stroke:#000000;stroke-width:1.0;" x1="71" x2="511" y1="129.9766" y2="129.9766"/><text fill="#000000" font-family="sans-serif" font-size="14" font-weight="bold" lengthAdjust="spacing" textLength="75" x="76" y="145.5117">comments</text><text fill="#000000" font-family="sans-serif" font-size="14" lengthAdjust="spacing" textLength="12" x="161" y="145.5117">   </text><line style="stroke:#000000;stroke-width:1.0;" x1="156" x2="156" y1="129.9766" y2="150.4648"/><rect fill="none" height="61.4648" rx="5" ry="5" style="stroke:#000000;stroke-width:1.5;" width="440" x="71" y="89"/><rect fill="#F1F1F1" height="61.4648" rx="5" ry="5" style="stroke:#F1F1F1;stroke-width:1.5;" width="697" x="548" y="109"/><text fill="#000000" font-family="sans-serif" font-size="14" lengthAdjust="spacing" textLength="636" x="557" y="124.5352">クジラ飛行机 (2022/08/22) 「強すぎる俺はオレンジ」ってところが良いです。素晴らしいですね。</text><line style="stroke:#000000;stroke-width:1.0;" x1="548" x2="1245" y1="129.4883" y2="129.4883"/><text fill="#000000" font-family="sans-serif" font-size="14" lengthAdjust="spacing" textLength="683" x="557" y="145.0234">PAD-BOOK (2022/08/22) 結局、オレンジのロボットに関する歌詞なんですね。美味しそうで良いですね。</text><line style="stroke:#000000;stroke-width:1.0;" x1="548" x2="1245" y1="149.9766" y2="149.9766"/><text fill="#000000" font-family="sans-serif" font-size="14" lengthAdjust="spacing" textLength="459" x="557" y="165.5117">PAD-BOOK (2022/08/22) 突然「秋田で米農家」が出てくるのが良い。</text><rect fill="none" height="61.4648" rx="5" ry="5" style="stroke:#000000;stroke-width:1.5;" width="697" x="548" y="109"/><rect fill="#F1F1F1" height="61.4648" rx="5" ry="5" style="stroke:#F1F1F1;stroke-width:1.5;" width="440" x="71" y="168"/><text fill="#000000" font-family="sans-serif" font-size="14" font-weight="bold" lengthAdjust="spacing" textLength="39" x="76" y="183.5352">name</text><text fill="#000000" font-family="sans-serif" font-size="14" lengthAdjust="spacing" textLength="84" x="161" y="183.5352">ライオンマン</text><line style="stroke:#000000;stroke-width:1.0;" x1="156" x2="156" y1="168" y2="188.4883"/><line style="stroke:#000000;stroke-width:1.0;" x1="71" x2="511" y1="188.4883" y2="188.4883"/><text fill="#000000" font-family="sans-serif" font-size="14" font-weight="bold" lengthAdjust="spacing" textLength="28" x="76" y="204.0234">link</text><text fill="#000000" font-family="sans-serif" font-size="14" lengthAdjust="spacing" textLength="345" x="161" y="204.0234">https://uta.pw/sakusibbs/post.php?mml_id=1267</text><line style="stroke:#000000;stroke-width:1.0;" x1="156" x2="156" y1="188.4883" y2="208.9766"/><line style="stroke:#000000;stroke-width:1.0;" x1="71" x2="511" y1="208.9766" y2="208.9766"/><text fill="#000000" font-family="sans-serif" font-size="14" font-weight="bold" lengthAdjust="spacing" textLength="75" x="76" y="224.5117">comments</text><text fill="#000000" font-family="sans-serif" font-size="14" lengthAdjust="spacing" textLength="12" x="161" y="224.5117">   </text><line style="stroke:#000000;stroke-width:1.0;" x1="156" x2="156" y1="208.9766" y2="229.4648"/><rect fill="none" height="61.4648" rx="5" ry="5" style="stroke:#000000;stroke-width:1.5;" width="440" x="71" y="168"/><rect fill="#F1F1F1" height="40.9766" rx="5" ry="5" style="stroke:#F1F1F1;stroke-width:1.5;" width="669" x="562" y="198"/><text fill="#000000" font-family="sans-serif" font-size="14" lengthAdjust="spacing" textLength="608" x="571" y="213.5352">クジラ飛行机 (2022/08/22) ライオンマン、タイトルが強烈で良いですね。頑張ってください。</text><line style="stroke:#000000;stroke-width:1.0;" x1="562" x2="1231" y1="218.4883" y2="218.4883"/><text fill="#000000" font-family="sans-serif" font-size="14" lengthAdjust="spacing" textLength="655" x="571" y="234.0234">PAD-BOOK (2022/08/22) 広がりのある歌詞が良いです。夢を見ているような唐突な感じが良いです。</text><rect fill="none" height="40.9766" rx="5" ry="5" style="stroke:#000000;stroke-width:1.5;" width="669" x="562" y="198"/><path d="M499,60.5 L512,60.5 C652.1393,60.5 821.0468,60.5 876.9883,60.5 " fill="none" style="stroke:#000000;stroke-width:1.0;stroke-dasharray:3.0,3.0;"/><path d="M876.9883,63.5812 L879.2992,60.5 L876.9883,57.4188 L884.6913,60.5 L876.9883,63.5812 " fill="#000000" style="stroke:#000000;stroke-width:1.0;"/><ellipse cx="499" cy="60.5" fill="#000000" rx="3" ry="3" style="stroke:#000000;stroke-width:1.0;"/><path d="M22,99.5 L35,99.5 C53.3033,99.5 53.7534,85.6293 71,79.5 C77.16,77.3108 83.4626,75.2407 89.8623,73.2835 " fill="none" style="stroke:#000000;stroke-width:1.0;stroke-dasharray:3.0,3.0;"/><path d="M90.7607,76.3053 L92.1287,72.6097 L88.9639,70.2617 L97.4168,71.0375 L90.7607,76.3053 " fill="#000000" style="stroke:#000000;stroke-width:1.0;"/><ellipse cx="22" cy="99.5" fill="#000000" rx="3" ry="3" style="stroke:#000000;stroke-width:1.0;"/><path d="M499,139.5 L512,139.5 C521.403,139.5 530.9355,139.5 540.5547,139.5 " fill="none" style="stroke:#000000;stroke-width:1.0;stroke-dasharray:3.0,3.0;"/><path d="M540.5547,142.5929 L542.8744,139.5 L540.5547,136.4071 L548.2869,139.5 L540.5547,142.5929 " fill="#000000" style="stroke:#000000;stroke-width:1.0;"/><ellipse cx="499" cy="139.5" fill="#000000" rx="3" ry="3" style="stroke:#000000;stroke-width:1.0;"/><path d="M22,119.5 L35,119.5 C44.3628,119.5 53.9185,119.5 63.5718,119.5 " fill="none" style="stroke:#000000;stroke-width:1.0;stroke-dasharray:3.0,3.0;"/><path d="M63.5718,122.6043 L65.9,119.5 L63.5718,116.3957 L71.3326,119.5 L63.5718,122.6043 " fill="#000000" style="stroke:#000000;stroke-width:1.0;"/><ellipse cx="22" cy="119.5" fill="#000000" rx="3" ry="3" style="stroke:#000000;stroke-width:1.0;"/><path d="M499,218.5 L512,218.5 C526.0508,218.5 540.3908,218.5 554.8771,218.5 " fill="none" style="stroke:#000000;stroke-width:1.0;stroke-dasharray:3.0,3.0;"/><path d="M554.8771,221.5352 L557.1535,218.5 L554.8771,215.4648 L562.4651,218.5 L554.8771,221.5352 " fill="#000000" style="stroke:#000000;stroke-width:1.0;"/><ellipse cx="499" cy="218.5" fill="#000000" rx="3" ry="3" style="stroke:#000000;stroke-width:1.0;"/><path d="M22,140.5 L35,140.5 C52.8885,140.5 54.0306,152.8397 71,158.5 C78.9576,161.1543 87.1396,163.6458 95.4512,165.983 " fill="none" style="stroke:#000000;stroke-width:1.0;stroke-dasharray:3.0,3.0;"/><path d="M94.6455,168.917 L97.6518,166.5873 L96.257,163.0489 L102.7863,167.9974 L94.6455,168.917 " fill="#000000" style="stroke:#000000;stroke-width:1.0;"/><ellipse cx="22" cy="140.5" fill="#000000" rx="3" ry="3" style="stroke:#000000;stroke-width:1.0;"/><!--MD5=[a5c255aef6bca43f2d9a1829b2e15447]
@startjson
[{"name": "\u3053\u306e\u5148\u306f\u30aa\u30fc\u30ed\u30e9", "link": "https://uta.pw/sakusibbs/post.php?mml_id=1269", "comments": []}, {"name": "\u30d6\u30fc\u30e0\u306e\u30cb\u30e5\u30fc\u30b9", "link": "https://uta.pw/sakusibbs/post.php?mml_id=1268", "comments": [" \u30af\u30b8\u30e9\u98db\u884c\u673a (2022/08/22) \u300c\u5f37\u3059\u304e\u308b\u4ffa\u306f\u30aa\u30ec\u30f3\u30b8\u300d\u3063\u3066\u3068\u3053\u308d\u304c\u826f\u3044\u3067\u3059\u3002\u7d20\u6674\u3089\u3057\u3044\u3067\u3059\u306d\u3002", " PAD-BOOK (2022/08/22) \u7d50\u5c40\u3001\u30aa\u30ec\u30f3\u30b8\u306e\u30ed\u30dc\u30c3\u30c8\u306b\u95a2\u3059\u308b\u6b4c\u8a5e\u306a\u3093\u3067\u3059\u306d\u3002\u7f8e\u5473\u3057\u305d\u3046\u3067\u826f\u3044\u3067\u3059\u306d\u3002", " PAD-BOOK (2022/08/22) \u7a81\u7136\u300c\u79cb\u7530\u3067\u7c73\u8fb2\u5bb6\u300d\u304c\u51fa\u3066\u304f\u308b\u306e\u304c\u826f\u3044\u3002"]}, {"name": "\u30e9\u30a4\u30aa\u30f3\u30de\u30f3", "link": "https://uta.pw/sakusibbs/post.php?mml_id=1267", "comments": [" \u30af\u30b8\u30e9\u98db\u884c\u673a (2022/08/22) \u30e9\u30a4\u30aa\u30f3\u30de\u30f3\u3001\u30bf\u30a4\u30c8\u30eb\u304c\u5f37\u70c8\u3067\u826f\u3044\u3067\u3059\u306d\u3002\u9811\u5f35\u3063\u3066\u304f\u3060\u3055\u3044\u3002", " PAD-BOOK (2022/08/22) \u5e83\u304c\u308a\u306e\u3042\u308b\u6b4c\u8a5e\u304c\u826f\u3044\u3067\u3059\u3002\u5922\u3092\u898b\u3066\u3044\u308b\u3088\u3046\u306a\u5510\u7a81\u306a\u611f\u3058\u304c\u826f\u3044\u3067\u3059\u3002"]}]
@endjson

PlantUML version 1.2022.6(Wed Jun 22 02:34:49 JST 2022)
(GPL source distribution)
Java Runtime: OpenJDK Runtime Environment
JVM: OpenJDK 64-Bit Server VM
Default Encoding: UTF-8
Language: ja
Country: JP
--></g></svg>