<?xml version="1.0" encoding="UTF-8" standalone="no"?><svg xmlns="http://www.w3.org/2000/svg" xmlns:xlink="http://www.w3.org/1999/xlink" contentStyleType="text/css" height="320px" preserveAspectRatio="none" style="width:294px;height:320px;background:#FFFFFF;" version="1.1" viewBox="0 0 294 320" width="294px" zoomAndPan="magnify"><defs/><g><rect fill="#F1F1F1" height="81.9531" rx="5" ry="5" style="stroke:#F1F1F1;stroke-width:1.5;" width="22" x="10" y="118.5"/><text fill="#000000" font-family="sans-serif" font-size="14" lengthAdjust="spacing" textLength="12" x="15" y="134.0352">   </text><line style="stroke:#000000;stroke-width:1.0;" x1="10" x2="32" y1="138.9883" y2="138.9883"/><text fill="#000000" font-family="sans-serif" font-size="14" lengthAdjust="spacing" textLength="12" x="15" y="154.5234">   </text><line style="stroke:#000000;stroke-width:1.0;" x1="10" x2="32" y1="159.4766" y2="159.4766"/><text fill="#000000" font-family="sans-serif" font-size="14" lengthAdjust="spacing" textLength="12" x="15" y="175.0117">   </text><line style="stroke:#000000;stroke-width:1.0;" x1="10" x2="32" y1="179.9648" y2="179.9648"/><text fill="#000000" font-family="sans-serif" font-size="14" lengthAdjust="spacing" textLength="12" x="15" y="195.5">   </text><rect fill="none" height="81.9531" rx="5" ry="5" style="stroke:#000000;stroke-width:1.5;" width="22" x="10" y="118.5"/><rect fill="#F1F1F1" height="61.4648" rx="5" ry="5" style="stroke:#F1F1F1;stroke-width:1.5;" width="211" x="71" y="10"/><text fill="#000000" font-family="sans-serif" font-size="14" font-weight="bold" lengthAdjust="spacing" textLength="33" x="76" y="25.5352">time</text><text fill="#000000" font-family="sans-serif" font-size="14" lengthAdjust="spacing" textLength="154" x="123" y="25.5352">2022-07-29 14:20:22</text><line style="stroke:#000000;stroke-width:1.0;" x1="118" x2="118" y1="10" y2="30.4883"/><line style="stroke:#000000;stroke-width:1.0;" x1="71" x2="282" y1="30.4883" y2="30.4883"/><text fill="#000000" font-family="sans-serif" font-size="14" font-weight="bold" lengthAdjust="spacing" textLength="37" x="76" y="46.0234">temp</text><text fill="#000000" font-family="sans-serif" font-size="14" lengthAdjust="spacing" textLength="31" x="123" y="46.0234">47.2</text><line style="stroke:#000000;stroke-width:1.0;" x1="118" x2="118" y1="30.4883" y2="50.9766"/><line style="stroke:#000000;stroke-width:1.0;" x1="71" x2="282" y1="50.9766" y2="50.9766"/><text fill="#000000" font-family="sans-serif" font-size="14" font-weight="bold" lengthAdjust="spacing" textLength="28" x="76" y="66.5117">volt</text><text fill="#000000" font-family="sans-serif" font-size="14" lengthAdjust="spacing" textLength="31" x="123" y="66.5117">0.87</text><line style="stroke:#000000;stroke-width:1.0;" x1="118" x2="118" y1="50.9766" y2="71.4648"/><rect fill="none" height="61.4648" rx="5" ry="5" style="stroke:#000000;stroke-width:1.5;" width="211" x="71" y="10"/><rect fill="#F1F1F1" height="61.4648" rx="5" ry="5" style="stroke:#F1F1F1;stroke-width:1.5;" width="211" x="71" y="89"/><text fill="#000000" font-family="sans-serif" font-size="14" font-weight="bold" lengthAdjust="spacing" textLength="33" x="76" y="104.5352">time</text><text fill="#000000" font-family="sans-serif" font-size="14" lengthAdjust="spacing" textLength="154" x="123" y="104.5352">2022-07-29 14:20:34</text><line style="stroke:#000000;stroke-width:1.0;" x1="118" x2="118" y1="89" y2="109.4883"/><line style="stroke:#000000;stroke-width:1.0;" x1="71" x2="282" y1="109.4883" y2="109.4883"/><text fill="#000000" font-family="sans-serif" font-size="14" font-weight="bold" lengthAdjust="spacing" textLength="37" x="76" y="125.0234">temp</text><text fill="#000000" font-family="sans-serif" font-size="14" lengthAdjust="spacing" textLength="31" x="123" y="125.0234">48.2</text><line style="stroke:#000000;stroke-width:1.0;" x1="118" x2="118" y1="109.4883" y2="129.9766"/><line style="stroke:#000000;stroke-width:1.0;" x1="71" x2="282" y1="129.9766" y2="129.9766"/><text fill="#000000" font-family="sans-serif" font-size="14" font-weight="bold" lengthAdjust="spacing" textLength="28" x="76" y="145.5117">volt</text><text fill="#000000" font-family="sans-serif" font-size="14" lengthAdjust="spacing" textLength="31" x="123" y="145.5117">0.87</text><line style="stroke:#000000;stroke-width:1.0;" x1="118" x2="118" y1="129.9766" y2="150.4648"/><rect fill="none" height="61.4648" rx="5" ry="5" style="stroke:#000000;stroke-width:1.5;" width="211" x="71" y="89"/><rect fill="#F1F1F1" height="61.4648" rx="5" ry="5" style="stroke:#F1F1F1;stroke-width:1.5;" width="211" x="71" y="168"/><text fill="#000000" font-family="sans-serif" font-size="14" font-weight="bold" lengthAdjust="spacing" textLength="33" x="76" y="183.5352">time</text><text fill="#000000" font-family="sans-serif" font-size="14" lengthAdjust="spacing" textLength="154" x="123" y="183.5352">2022-07-29 14:20:40</text><line style="stroke:#000000;stroke-width:1.0;" x1="118" x2="118" y1="168" y2="188.4883"/><line style="stroke:#000000;stroke-width:1.0;" x1="71" x2="282" y1="188.4883" y2="188.4883"/><text fill="#000000" font-family="sans-serif" font-size="14" font-weight="bold" lengthAdjust="spacing" textLength="37" x="76" y="204.0234">temp</text><text fill="#000000" font-family="sans-serif" font-size="14" lengthAdjust="spacing" textLength="31" x="123" y="204.0234">45.7</text><line style="stroke:#000000;stroke-width:1.0;" x1="118" x2="118" y1="188.4883" y2="208.9766"/><line style="stroke:#000000;stroke-width:1.0;" x1="71" x2="282" y1="208.9766" y2="208.9766"/><text fill="#000000" font-family="sans-serif" font-size="14" font-weight="bold" lengthAdjust="spacing" textLength="28" x="76" y="224.5117">volt</text><text fill="#000000" font-family="sans-serif" font-size="14" lengthAdjust="spacing" textLength="31" x="123" y="224.5117">0.87</text><line style="stroke:#000000;stroke-width:1.0;" x1="118" x2="118" y1="208.9766" y2="229.4648"/><rect fill="none" height="61.4648" rx="5" ry="5" style="stroke:#000000;stroke-width:1.5;" width="211" x="71" y="168"/><rect fill="#F1F1F1" height="61.4648" rx="5" ry="5" style="stroke:#F1F1F1;stroke-width:1.5;" width="211" x="71" y="247"/><text fill="#000000" font-family="sans-serif" font-size="14" font-weight="bold" lengthAdjust="spacing" textLength="33" x="76" y="262.5352">time</text><text fill="#000000" font-family="sans-serif" font-size="14" lengthAdjust="spacing" textLength="154" x="123" y="262.5352">2022-07-29 14:20:44</text><line style="stroke:#000000;stroke-width:1.0;" x1="118" x2="118" y1="247" y2="267.4883"/><line style="stroke:#000000;stroke-width:1.0;" x1="71" x2="282" y1="267.4883" y2="267.4883"/><text fill="#000000" font-family="sans-serif" font-size="14" font-weight="bold" lengthAdjust="spacing" textLength="37" x="76" y="283.0234">temp</text><text fill="#000000" font-family="sans-serif" font-size="14" lengthAdjust="spacing" textLength="31" x="123" y="283.0234">47.2</text><line style="stroke:#000000;stroke-width:1.0;" x1="118" x2="118" y1="267.4883" y2="287.9766"/><line style="stroke:#000000;stroke-width:1.0;" x1="71" x2="282" y1="287.9766" y2="287.9766"/><text fill="#000000" font-family="sans-serif" font-size="14" font-weight="bold" lengthAdjust="spacing" textLength="28" x="76" y="303.5117">volt</text><text fill="#000000" font-family="sans-serif" font-size="14" lengthAdjust="spacing" textLength="31" x="123" y="303.5117">0.87</text><line style="stroke:#000000;stroke-width:1.0;" x1="118" x2="118" y1="287.9766" y2="308.4648"/><rect fill="none" height="61.4648" rx="5" ry="5" style="stroke:#000000;stroke-width:1.5;" width="211" x="71" y="247"/><path d="M22,128.5 L35,128.5 C62.0235,128.5 49.4283,95.7767 71,79.5 C73.018,77.9774 75.1018,76.5088 77.2395,75.0927 " fill="none" style="stroke:#000000;stroke-width:1.0;stroke-dasharray:3.0,3.0;"/><path d="M78.8764,77.7179 L79.2084,73.8651 L75.6026,72.4675 L83.8026,71.0005 L78.8764,77.7179 " fill="#000000" style="stroke:#000000;stroke-width:1.0;"/><ellipse cx="22" cy="128.5" fill="#000000" rx="3" ry="3" style="stroke:#000000;stroke-width:1.0;"/><path d="M22,148.5 L35,148.5 C44.367,148.5 54.0135,147.8784 63.657,146.8171 " fill="none" style="stroke:#000000;stroke-width:1.0;stroke-dasharray:3.0,3.0;"/><path d="M64.0337,149.9083 L65.9753,146.5346 L63.2802,143.726 L71.3848,145.8753 L64.0337,149.9083 " fill="#000000" style="stroke:#000000;stroke-width:1.0;"/><ellipse cx="22" cy="148.5" fill="#000000" rx="3" ry="3" style="stroke:#000000;stroke-width:1.0;"/><path d="M22,169.5 L35,169.5 C44.367,169.5 54.0135,170.1216 63.657,171.1829 " fill="none" style="stroke:#000000;stroke-width:1.0;stroke-dasharray:3.0,3.0;"/><path d="M63.2802,174.274 L65.9753,171.4654 L64.0337,168.0917 L71.3848,172.1247 L63.2802,174.274 " fill="#000000" style="stroke:#000000;stroke-width:1.0;"/><ellipse cx="22" cy="169.5" fill="#000000" rx="3" ry="3" style="stroke:#000000;stroke-width:1.0;"/><path d="M22,190.5 L35,190.5 C61.6667,190.5 49.6341,222.5435 71,238.5 C73.0255,240.0127 75.116,241.4723 77.2597,242.8803 " fill="none" style="stroke:#000000;stroke-width:1.0;stroke-dasharray:3.0,3.0;"/><path d="M75.6314,245.5119 L79.2335,244.1016 L78.8881,240.2487 L83.8388,246.9512 L75.6314,245.5119 " fill="#000000" style="stroke:#000000;stroke-width:1.0;"/><ellipse cx="22" cy="190.5" fill="#000000" rx="3" ry="3" style="stroke:#000000;stroke-width:1.0;"/><!--MD5=[d809e5a1b3efc20cf5b95c8a73f3cef4]
@startjson
[{"time": "2022-07-29 14:20:22", "temp": 47.2, "volt": 0.87}, {"time": "2022-07-29 14:20:34", "temp": 48.2, "volt": 0.87}, {"time": "2022-07-29 14:20:40", "temp": 45.7, "volt": 0.87}, {"time": "2022-07-29 14:20:44", "temp": 47.2, "volt": 0.87}]
@endjson

PlantUML version 1.2022.6(Wed Jun 22 02:34:49 JST 2022)
(GPL source distribution)
Java Runtime: OpenJDK Runtime Environment
JVM: OpenJDK 64-Bit Server VM
Default Encoding: UTF-8
Language: ja
Country: JP
--></g></svg>