<?xml version="1.0" encoding="UTF-8" standalone="no"?><svg xmlns="http://www.w3.org/2000/svg" xmlns:xlink="http://www.w3.org/1999/xlink" contentStyleType="text/css" height="320px" preserveAspectRatio="none" style="width:189px;height:320px;background:#FFFFFF;" version="1.1" viewBox="0 0 189 320" width="189px" zoomAndPan="magnify"><defs/><g><rect fill="#F1F1F1" height="81.9531" rx="5" ry="5" style="stroke:#F1F1F1;stroke-width:1.5;" width="22" x="10" y="118.5"/><text fill="#000000" font-family="sans-serif" font-size="14" lengthAdjust="spacing" textLength="12" x="15" y="134.0352">   </text><line style="stroke:#000000;stroke-width:1.0;" x1="10" x2="32" y1="138.9883" y2="138.9883"/><text fill="#000000" font-family="sans-serif" font-size="14" lengthAdjust="spacing" textLength="12" x="15" y="154.5234">   </text><line style="stroke:#000000;stroke-width:1.0;" x1="10" x2="32" y1="159.4766" y2="159.4766"/><text fill="#000000" font-family="sans-serif" font-size="14" lengthAdjust="spacing" textLength="12" x="15" y="175.0117">   </text><line style="stroke:#000000;stroke-width:1.0;" x1="10" x2="32" y1="179.9648" y2="179.9648"/><text fill="#000000" font-family="sans-serif" font-size="14" lengthAdjust="spacing" textLength="12" x="15" y="195.5">   </text><rect fill="none" height="81.9531" rx="5" ry="5" style="stroke:#000000;stroke-width:1.5;" width="22" x="10" y="118.5"/><rect fill="#F1F1F1" height="61.4648" rx="5" ry="5" style="stroke:#F1F1F1;stroke-width:1.5;" width="102" x="73" y="10"/><text fill="#000000" font-family="sans-serif" font-size="14" font-weight="bold" lengthAdjust="spacing" textLength="31" x="78" y="25.5352">led1</text><text fill="#000000" font-family="sans-serif" font-size="14" lengthAdjust="spacing" textLength="44" x="126" y="25.5352">☑ true</text><line style="stroke:#000000;stroke-width:1.0;" x1="121" x2="121" y1="10" y2="30.4883"/><line style="stroke:#000000;stroke-width:1.0;" x1="73" x2="175" y1="30.4883" y2="30.4883"/><text fill="#000000" font-family="sans-serif" font-size="14" font-weight="bold" lengthAdjust="spacing" textLength="31" x="78" y="46.0234">led2</text><text fill="#000000" font-family="sans-serif" font-size="14" lengthAdjust="spacing" textLength="44" x="126" y="46.0234">☑ true</text><line style="stroke:#000000;stroke-width:1.0;" x1="121" x2="121" y1="30.4883" y2="50.9766"/><line style="stroke:#000000;stroke-width:1.0;" x1="73" x2="175" y1="50.9766" y2="50.9766"/><text fill="#000000" font-family="sans-serif" font-size="14" font-weight="bold" lengthAdjust="spacing" textLength="38" x="78" y="66.5117">delay</text><text fill="#000000" font-family="sans-serif" font-size="14" lengthAdjust="spacing" textLength="22" x="126" y="66.5117">0.5</text><line style="stroke:#000000;stroke-width:1.0;" x1="121" x2="121" y1="50.9766" y2="71.4648"/><rect fill="none" height="61.4648" rx="5" ry="5" style="stroke:#000000;stroke-width:1.5;" width="102" x="73" y="10"/><rect fill="#F1F1F1" height="61.4648" rx="5" ry="5" style="stroke:#F1F1F1;stroke-width:1.5;" width="106" x="71" y="89"/><text fill="#000000" font-family="sans-serif" font-size="14" font-weight="bold" lengthAdjust="spacing" textLength="31" x="76" y="104.5352">led1</text><text fill="#000000" font-family="sans-serif" font-size="14" lengthAdjust="spacing" textLength="48" x="124" y="104.5352">☐ false</text><line style="stroke:#000000;stroke-width:1.0;" x1="119" x2="119" y1="89" y2="109.4883"/><line style="stroke:#000000;stroke-width:1.0;" x1="71" x2="177" y1="109.4883" y2="109.4883"/><text fill="#000000" font-family="sans-serif" font-size="14" font-weight="bold" lengthAdjust="spacing" textLength="31" x="76" y="125.0234">led2</text><text fill="#000000" font-family="sans-serif" font-size="14" lengthAdjust="spacing" textLength="48" x="124" y="125.0234">☐ false</text><line style="stroke:#000000;stroke-width:1.0;" x1="119" x2="119" y1="109.4883" y2="129.9766"/><line style="stroke:#000000;stroke-width:1.0;" x1="71" x2="177" y1="129.9766" y2="129.9766"/><text fill="#000000" font-family="sans-serif" font-size="14" font-weight="bold" lengthAdjust="spacing" textLength="38" x="76" y="145.5117">delay</text><text fill="#000000" font-family="sans-serif" font-size="14" lengthAdjust="spacing" textLength="22" x="124" y="145.5117">0.5</text><line style="stroke:#000000;stroke-width:1.0;" x1="119" x2="119" y1="129.9766" y2="150.4648"/><rect fill="none" height="61.4648" rx="5" ry="5" style="stroke:#000000;stroke-width:1.5;" width="106" x="71" y="89"/><rect fill="#F1F1F1" height="61.4648" rx="5" ry="5" style="stroke:#F1F1F1;stroke-width:1.5;" width="106" x="71" y="168"/><text fill="#000000" font-family="sans-serif" font-size="14" font-weight="bold" lengthAdjust="spacing" textLength="31" x="76" y="183.5352">led1</text><text fill="#000000" font-family="sans-serif" font-size="14" lengthAdjust="spacing" textLength="44" x="124" y="183.5352">☑ true</text><line style="stroke:#000000;stroke-width:1.0;" x1="119" x2="119" y1="168" y2="188.4883"/><line style="stroke:#000000;stroke-width:1.0;" x1="71" x2="177" y1="188.4883" y2="188.4883"/><text fill="#000000" font-family="sans-serif" font-size="14" font-weight="bold" lengthAdjust="spacing" textLength="31" x="76" y="204.0234">led2</text><text fill="#000000" font-family="sans-serif" font-size="14" lengthAdjust="spacing" textLength="48" x="124" y="204.0234">☐ false</text><line style="stroke:#000000;stroke-width:1.0;" x1="119" x2="119" y1="188.4883" y2="208.9766"/><line style="stroke:#000000;stroke-width:1.0;" x1="71" x2="177" y1="208.9766" y2="208.9766"/><text fill="#000000" font-family="sans-serif" font-size="14" font-weight="bold" lengthAdjust="spacing" textLength="38" x="76" y="224.5117">delay</text><text fill="#000000" font-family="sans-serif" font-size="14" lengthAdjust="spacing" textLength="9" x="124" y="224.5117">1</text><line style="stroke:#000000;stroke-width:1.0;" x1="119" x2="119" y1="208.9766" y2="229.4648"/><rect fill="none" height="61.4648" rx="5" ry="5" style="stroke:#000000;stroke-width:1.5;" width="106" x="71" y="168"/><rect fill="#F1F1F1" height="61.4648" rx="5" ry="5" style="stroke:#F1F1F1;stroke-width:1.5;" width="106" x="71" y="247"/><text fill="#000000" font-family="sans-serif" font-size="14" font-weight="bold" lengthAdjust="spacing" textLength="31" x="76" y="262.5352">led1</text><text fill="#000000" font-family="sans-serif" font-size="14" lengthAdjust="spacing" textLength="48" x="124" y="262.5352">☐ false</text><line style="stroke:#000000;stroke-width:1.0;" x1="119" x2="119" y1="247" y2="267.4883"/><line style="stroke:#000000;stroke-width:1.0;" x1="71" x2="177" y1="267.4883" y2="267.4883"/><text fill="#000000" font-family="sans-serif" font-size="14" font-weight="bold" lengthAdjust="spacing" textLength="31" x="76" y="283.0234">led2</text><text fill="#000000" font-family="sans-serif" font-size="14" lengthAdjust="spacing" textLength="44" x="124" y="283.0234">☑ true</text><line style="stroke:#000000;stroke-width:1.0;" x1="119" x2="119" y1="267.4883" y2="287.9766"/><line style="stroke:#000000;stroke-width:1.0;" x1="71" x2="177" y1="287.9766" y2="287.9766"/><text fill="#000000" font-family="sans-serif" font-size="14" font-weight="bold" lengthAdjust="spacing" textLength="38" x="76" y="303.5117">delay</text><text fill="#000000" font-family="sans-serif" font-size="14" lengthAdjust="spacing" textLength="9" x="124" y="303.5117">1</text><line style="stroke:#000000;stroke-width:1.0;" x1="119" x2="119" y1="287.9766" y2="308.4648"/><rect fill="none" height="61.4648" rx="5" ry="5" style="stroke:#000000;stroke-width:1.5;" width="106" x="71" y="247"/><path d="M22,128.5 L35,128.5 C62.0235,128.5 51.942,98.6589 71,79.5 C72.051,78.4435 73.1322,77.3927 74.2378,76.35 " fill="none" style="stroke:#000000;stroke-width:1.0;stroke-dasharray:3.0,3.0;"/><path d="M76.2925,78.6316 L75.9489,74.809 L72.1831,74.0685 L79.9416,71.2132 L76.2925,78.6316 " fill="#000000" style="stroke:#000000;stroke-width:1.0;"/><ellipse cx="22" cy="128.5" fill="#000000" rx="3" ry="3" style="stroke:#000000;stroke-width:1.0;"/><path d="M22,148.5 L35,148.5 C44.4409,148.5 54.1792,146.9913 63.5881,144.6621 " fill="none" style="stroke:#000000;stroke-width:1.0;stroke-dasharray:3.0,3.0;"/><path d="M64.4004,147.6474 L65.827,144.0529 L62.7758,141.6769 L71.0513,142.6314 L64.4004,147.6474 " fill="#000000" style="stroke:#000000;stroke-width:1.0;"/><ellipse cx="22" cy="148.5" fill="#000000" rx="3" ry="3" style="stroke:#000000;stroke-width:1.0;"/><path d="M22,169.5 L35,169.5 C44.4409,169.5 54.1792,171.0087 63.5881,173.3379 " fill="none" style="stroke:#000000;stroke-width:1.0;stroke-dasharray:3.0,3.0;"/><path d="M62.7758,176.3231 L65.827,173.9471 L64.4004,170.3526 L71.0513,175.3686 L62.7758,176.3231 " fill="#000000" style="stroke:#000000;stroke-width:1.0;"/><ellipse cx="22" cy="169.5" fill="#000000" rx="3" ry="3" style="stroke:#000000;stroke-width:1.0;"/><path d="M22,190.5 L35,190.5 C61.6667,190.5 52.1006,219.6871 71,238.5 C72.1769,239.6715 73.3906,240.8364 74.6332,241.9917 " fill="none" style="stroke:#000000;stroke-width:1.0;stroke-dasharray:3.0,3.0;"/><path d="M72.6356,244.2348 L76.3156,243.49 L76.6309,239.7486 L80.241,246.9859 L72.6356,244.2348 " fill="#000000" style="stroke:#000000;stroke-width:1.0;"/><ellipse cx="22" cy="190.5" fill="#000000" rx="3" ry="3" style="stroke:#000000;stroke-width:1.0;"/><!--MD5=[318f97f38bbb94728f2c73b482d34a28]
@startjson
[
  {"led1": true, "led2": true, "delay": 0.5},
  {"led1": false, "led2": false, "delay": 0.5},
  {"led1": true, "led2": false, "delay": 1},
  {"led1": false, "led2": true, "delay": 1}
]
@endjson

PlantUML version 1.2022.6(Wed Jun 22 02:34:49 JST 2022)
(GPL source distribution)
Java Runtime: OpenJDK Runtime Environment
JVM: OpenJDK 64-Bit Server VM
Default Encoding: UTF-8
Language: ja
Country: JP
--></g></svg>