<?xml version="1.0" encoding="UTF-8" standalone="no"?><svg xmlns="http://www.w3.org/2000/svg" xmlns:xlink="http://www.w3.org/1999/xlink" contentStyleType="text/css" height="503px" preserveAspectRatio="none" style="width:292px;height:503px;background:#FFFFFF;" version="1.1" viewBox="0 0 292 503" width="292px" zoomAndPan="magnify"><defs/><g><rect fill="#F1F1F1" height="102.4414" rx="5" ry="5" style="stroke:#F1F1F1;stroke-width:1.5;" width="22" x="10" y="201"/><text fill="#000000" font-family="sans-serif" font-size="14" lengthAdjust="spacing" textLength="12" x="15" y="216.5352">   </text><line style="stroke:#000000;stroke-width:1.0;" x1="10" x2="32" y1="221.4883" y2="221.4883"/><text fill="#000000" font-family="sans-serif" font-size="14" lengthAdjust="spacing" textLength="12" x="15" y="237.0234">   </text><line style="stroke:#000000;stroke-width:1.0;" x1="10" x2="32" y1="241.9766" y2="241.9766"/><text fill="#000000" font-family="sans-serif" font-size="14" lengthAdjust="spacing" textLength="12" x="15" y="257.5117">   </text><line style="stroke:#000000;stroke-width:1.0;" x1="10" x2="32" y1="262.4648" y2="262.4648"/><text fill="#000000" font-family="sans-serif" font-size="14" lengthAdjust="spacing" textLength="12" x="15" y="278">   </text><line style="stroke:#000000;stroke-width:1.0;" x1="10" x2="32" y1="282.9531" y2="282.9531"/><text fill="#000000" font-family="sans-serif" font-size="14" lengthAdjust="spacing" textLength="12" x="15" y="298.4883">   </text><rect fill="none" height="102.4414" rx="5" ry="5" style="stroke:#000000;stroke-width:1.5;" width="22" x="10" y="201"/><rect fill="#F1F1F1" height="81.9531" rx="5" ry="5" style="stroke:#F1F1F1;stroke-width:1.5;" width="209" x="71" y="10"/><text fill="#000000" font-family="sans-serif" font-size="14" font-weight="bold" lengthAdjust="spacing" textLength="33" x="76" y="25.5352">time</text><text fill="#000000" font-family="sans-serif" font-size="14" lengthAdjust="spacing" textLength="152" x="123" y="25.5352">2022/08/01 14:37:09</text><line style="stroke:#000000;stroke-width:1.0;" x1="118" x2="118" y1="10" y2="30.4883"/><line style="stroke:#000000;stroke-width:1.0;" x1="71" x2="280" y1="30.4883" y2="30.4883"/><text fill="#000000" font-family="sans-serif" font-size="14" font-weight="bold" lengthAdjust="spacing" textLength="37" x="76" y="46.0234">temp</text><text fill="#000000" font-family="sans-serif" font-size="14" lengthAdjust="spacing" textLength="31" x="123" y="46.0234">26.0</text><line style="stroke:#000000;stroke-width:1.0;" x1="118" x2="118" y1="30.4883" y2="50.9766"/><line style="stroke:#000000;stroke-width:1.0;" x1="71" x2="280" y1="50.9766" y2="50.9766"/><text fill="#000000" font-family="sans-serif" font-size="14" font-weight="bold" lengthAdjust="spacing" textLength="37" x="76" y="66.5117">humi</text><text fill="#000000" font-family="sans-serif" font-size="14" lengthAdjust="spacing" textLength="31" x="123" y="66.5117">41.0</text><line style="stroke:#000000;stroke-width:1.0;" x1="118" x2="118" y1="50.9766" y2="71.4648"/><line style="stroke:#000000;stroke-width:1.0;" x1="71" x2="280" y1="71.4648" y2="71.4648"/><text fill="#000000" font-family="sans-serif" font-size="14" font-weight="bold" lengthAdjust="spacing" textLength="25" x="76" y="87">cpu</text><text fill="#000000" font-family="sans-serif" font-size="14" lengthAdjust="spacing" textLength="31" x="123" y="87">42.8</text><line style="stroke:#000000;stroke-width:1.0;" x1="118" x2="118" y1="71.4648" y2="91.9531"/><rect fill="none" height="81.9531" rx="5" ry="5" style="stroke:#000000;stroke-width:1.5;" width="209" x="71" y="10"/><rect fill="#F1F1F1" height="81.9531" rx="5" ry="5" style="stroke:#F1F1F1;stroke-width:1.5;" width="209" x="71" y="110"/><text fill="#000000" font-family="sans-serif" font-size="14" font-weight="bold" lengthAdjust="spacing" textLength="33" x="76" y="125.5352">time</text><text fill="#000000" font-family="sans-serif" font-size="14" lengthAdjust="spacing" textLength="152" x="123" y="125.5352">2022/08/01 14:37:22</text><line style="stroke:#000000;stroke-width:1.0;" x1="118" x2="118" y1="110" y2="130.4883"/><line style="stroke:#000000;stroke-width:1.0;" x1="71" x2="280" y1="130.4883" y2="130.4883"/><text fill="#000000" font-family="sans-serif" font-size="14" font-weight="bold" lengthAdjust="spacing" textLength="37" x="76" y="146.0234">temp</text><text fill="#000000" font-family="sans-serif" font-size="14" lengthAdjust="spacing" textLength="31" x="123" y="146.0234">25.0</text><line style="stroke:#000000;stroke-width:1.0;" x1="118" x2="118" y1="130.4883" y2="150.9766"/><line style="stroke:#000000;stroke-width:1.0;" x1="71" x2="280" y1="150.9766" y2="150.9766"/><text fill="#000000" font-family="sans-serif" font-size="14" font-weight="bold" lengthAdjust="spacing" textLength="37" x="76" y="166.5117">humi</text><text fill="#000000" font-family="sans-serif" font-size="14" lengthAdjust="spacing" textLength="31" x="123" y="166.5117">40.0</text><line style="stroke:#000000;stroke-width:1.0;" x1="118" x2="118" y1="150.9766" y2="171.4648"/><line style="stroke:#000000;stroke-width:1.0;" x1="71" x2="280" y1="171.4648" y2="171.4648"/><text fill="#000000" font-family="sans-serif" font-size="14" font-weight="bold" lengthAdjust="spacing" textLength="25" x="76" y="187">cpu</text><text fill="#000000" font-family="sans-serif" font-size="14" lengthAdjust="spacing" textLength="31" x="123" y="187">41.7</text><line style="stroke:#000000;stroke-width:1.0;" x1="118" x2="118" y1="171.4648" y2="191.9531"/><rect fill="none" height="81.9531" rx="5" ry="5" style="stroke:#000000;stroke-width:1.5;" width="209" x="71" y="110"/><rect fill="#F1F1F1" height="81.9531" rx="5" ry="5" style="stroke:#F1F1F1;stroke-width:1.5;" width="209" x="71" y="210"/><text fill="#000000" font-family="sans-serif" font-size="14" font-weight="bold" lengthAdjust="spacing" textLength="33" x="76" y="225.5352">time</text><text fill="#000000" font-family="sans-serif" font-size="14" lengthAdjust="spacing" textLength="152" x="123" y="225.5352">2022/08/01 14:37:34</text><line style="stroke:#000000;stroke-width:1.0;" x1="118" x2="118" y1="210" y2="230.4883"/><line style="stroke:#000000;stroke-width:1.0;" x1="71" x2="280" y1="230.4883" y2="230.4883"/><text fill="#000000" font-family="sans-serif" font-size="14" font-weight="bold" lengthAdjust="spacing" textLength="37" x="76" y="246.0234">temp</text><text fill="#000000" font-family="sans-serif" font-size="14" lengthAdjust="spacing" textLength="31" x="123" y="246.0234">25.0</text><line style="stroke:#000000;stroke-width:1.0;" x1="118" x2="118" y1="230.4883" y2="250.9766"/><line style="stroke:#000000;stroke-width:1.0;" x1="71" x2="280" y1="250.9766" y2="250.9766"/><text fill="#000000" font-family="sans-serif" font-size="14" font-weight="bold" lengthAdjust="spacing" textLength="37" x="76" y="266.5117">humi</text><text fill="#000000" font-family="sans-serif" font-size="14" lengthAdjust="spacing" textLength="31" x="123" y="266.5117">41.0</text><line style="stroke:#000000;stroke-width:1.0;" x1="118" x2="118" y1="250.9766" y2="271.4648"/><line style="stroke:#000000;stroke-width:1.0;" x1="71" x2="280" y1="271.4648" y2="271.4648"/><text fill="#000000" font-family="sans-serif" font-size="14" font-weight="bold" lengthAdjust="spacing" textLength="25" x="76" y="287">cpu</text><text fill="#000000" font-family="sans-serif" font-size="14" lengthAdjust="spacing" textLength="31" x="123" y="287">41.2</text><line style="stroke:#000000;stroke-width:1.0;" x1="118" x2="118" y1="271.4648" y2="291.9531"/><rect fill="none" height="81.9531" rx="5" ry="5" style="stroke:#000000;stroke-width:1.5;" width="209" x="71" y="210"/><rect fill="#F1F1F1" height="81.9531" rx="5" ry="5" style="stroke:#F1F1F1;stroke-width:1.5;" width="209" x="71" y="310"/><text fill="#000000" font-family="sans-serif" font-size="14" font-weight="bold" lengthAdjust="spacing" textLength="33" x="76" y="325.5352">time</text><text fill="#000000" font-family="sans-serif" font-size="14" lengthAdjust="spacing" textLength="152" x="123" y="325.5352">2022/08/01 14:37:48</text><line style="stroke:#000000;stroke-width:1.0;" x1="118" x2="118" y1="310" y2="330.4883"/><line style="stroke:#000000;stroke-width:1.0;" x1="71" x2="280" y1="330.4883" y2="330.4883"/><text fill="#000000" font-family="sans-serif" font-size="14" font-weight="bold" lengthAdjust="spacing" textLength="37" x="76" y="346.0234">temp</text><text fill="#000000" font-family="sans-serif" font-size="14" lengthAdjust="spacing" textLength="31" x="123" y="346.0234">25.0</text><line style="stroke:#000000;stroke-width:1.0;" x1="118" x2="118" y1="330.4883" y2="350.9766"/><line style="stroke:#000000;stroke-width:1.0;" x1="71" x2="280" y1="350.9766" y2="350.9766"/><text fill="#000000" font-family="sans-serif" font-size="14" font-weight="bold" lengthAdjust="spacing" textLength="37" x="76" y="366.5117">humi</text><text fill="#000000" font-family="sans-serif" font-size="14" lengthAdjust="spacing" textLength="31" x="123" y="366.5117">39.0</text><line style="stroke:#000000;stroke-width:1.0;" x1="118" x2="118" y1="350.9766" y2="371.4648"/><line style="stroke:#000000;stroke-width:1.0;" x1="71" x2="280" y1="371.4648" y2="371.4648"/><text fill="#000000" font-family="sans-serif" font-size="14" font-weight="bold" lengthAdjust="spacing" textLength="25" x="76" y="387">cpu</text><text fill="#000000" font-family="sans-serif" font-size="14" lengthAdjust="spacing" textLength="31" x="123" y="387">41.2</text><line style="stroke:#000000;stroke-width:1.0;" x1="118" x2="118" y1="371.4648" y2="391.9531"/><rect fill="none" height="81.9531" rx="5" ry="5" style="stroke:#000000;stroke-width:1.5;" width="209" x="71" y="310"/><rect fill="#F1F1F1" height="81.9531" rx="5" ry="5" style="stroke:#F1F1F1;stroke-width:1.5;" width="209" x="71" y="410"/><text fill="#000000" font-family="sans-serif" font-size="14" font-weight="bold" lengthAdjust="spacing" textLength="33" x="76" y="425.5352">time</text><text fill="#000000" font-family="sans-serif" font-size="14" lengthAdjust="spacing" textLength="152" x="123" y="425.5352">2022/08/01 14:38:02</text><line style="stroke:#000000;stroke-width:1.0;" x1="118" x2="118" y1="410" y2="430.4883"/><line style="stroke:#000000;stroke-width:1.0;" x1="71" x2="280" y1="430.4883" y2="430.4883"/><text fill="#000000" font-family="sans-serif" font-size="14" font-weight="bold" lengthAdjust="spacing" textLength="37" x="76" y="446.0234">temp</text><text fill="#000000" font-family="sans-serif" font-size="14" lengthAdjust="spacing" textLength="31" x="123" y="446.0234">25.0</text><line style="stroke:#000000;stroke-width:1.0;" x1="118" x2="118" y1="430.4883" y2="450.9766"/><line style="stroke:#000000;stroke-width:1.0;" x1="71" x2="280" y1="450.9766" y2="450.9766"/><text fill="#000000" font-family="sans-serif" font-size="14" font-weight="bold" lengthAdjust="spacing" textLength="37" x="76" y="466.5117">humi</text><text fill="#000000" font-family="sans-serif" font-size="14" lengthAdjust="spacing" textLength="31" x="123" y="466.5117">39.0</text><line style="stroke:#000000;stroke-width:1.0;" x1="118" x2="118" y1="450.9766" y2="471.4648"/><line style="stroke:#000000;stroke-width:1.0;" x1="71" x2="280" y1="471.4648" y2="471.4648"/><text fill="#000000" font-family="sans-serif" font-size="14" font-weight="bold" lengthAdjust="spacing" textLength="25" x="76" y="487">cpu</text><text fill="#000000" font-family="sans-serif" font-size="14" lengthAdjust="spacing" textLength="31" x="123" y="487">41.2</text><line style="stroke:#000000;stroke-width:1.0;" x1="118" x2="118" y1="471.4648" y2="491.9531"/><rect fill="none" height="81.9531" rx="5" ry="5" style="stroke:#000000;stroke-width:1.5;" width="209" x="71" y="410"/><path d="M22,211 L35,211 C86.4405,211 37.1015,139.6913 71,101 C72.1263,99.7145 73.293,98.4591 74.4962,97.2333 " fill="none" style="stroke:#000000;stroke-width:1.0;stroke-dasharray:3.0,3.0;"/><path d="M76.5711,99.4321 L76.1454,95.6772 L72.4214,95.0344 L79.9934,92.0462 L76.5711,99.4321 " fill="#000000" style="stroke:#000000;stroke-width:1.0;"/><ellipse cx="22" cy="211" fill="#000000" rx="3" ry="3" style="stroke:#000000;stroke-width:1.0;"/><path d="M22,231 L35,231 C55.8273,231 53.4817,212.2644 71,201 C73.654,199.2935 76.3751,197.6076 79.145,195.9465 " fill="none" style="stroke:#000000;stroke-width:1.0;stroke-dasharray:3.0,3.0;"/><path d="M80.6768,198.5637 L81.1079,194.7976 L77.6132,193.3293 L85.688,192.1169 L80.6768,198.5637 " fill="#000000" style="stroke:#000000;stroke-width:1.0;"/><ellipse cx="22" cy="231" fill="#000000" rx="3" ry="3" style="stroke:#000000;stroke-width:1.0;"/><path d="M22,251 L35,251 C44.3016,251 53.9509,251 63.6359,251 " fill="none" style="stroke:#000000;stroke-width:1.0;stroke-dasharray:3.0,3.0;"/><path d="M63.6359,254.1076 L65.9666,251 L63.6359,247.8924 L71.4049,251 L63.6359,254.1076 " fill="#000000" style="stroke:#000000;stroke-width:1.0;"/><ellipse cx="22" cy="251" fill="#000000" rx="3" ry="3" style="stroke:#000000;stroke-width:1.0;"/><path d="M22,272 L35,272 C55.5456,272 53.6269,290.032 71,301 C73.7158,302.7145 76.4992,304.4104 79.3312,306.0832 " fill="none" style="stroke:#000000;stroke-width:1.0;stroke-dasharray:3.0,3.0;"/><path d="M77.7875,308.7581 L81.3374,307.241 L80.875,303.4083 L86.0185,309.9425 L77.7875,308.7581 " fill="#000000" style="stroke:#000000;stroke-width:1.0;"/><ellipse cx="22" cy="272" fill="#000000" rx="3" ry="3" style="stroke:#000000;stroke-width:1.0;"/><path d="M22,293 L35,293 C85.5964,293 37.5538,363.0348 71,401 C72.1298,402.2825 73.2998,403.535 74.5061,404.7581 " fill="none" style="stroke:#000000;stroke-width:1.0;stroke-dasharray:3.0,3.0;"/><path d="M72.4355,406.9617 L76.1588,406.311 L76.5767,402.5545 L80.0152,409.9346 L72.4355,406.9617 " fill="#000000" style="stroke:#000000;stroke-width:1.0;"/><ellipse cx="22" cy="293" fill="#000000" rx="3" ry="3" style="stroke:#000000;stroke-width:1.0;"/><!--MD5=[7d06b7b61bb86bebb9bb62e8963791fb]
@startjson
[{"time": "2022/08/01 14:37:09", "temp": 26.0, "humi": 41.0, "cpu": 42.8}, {"time": "2022/08/01 14:37:22", "temp": 25.0, "humi": 40.0, "cpu": 41.7}, {"time": "2022/08/01 14:37:34", "temp": 25.0, "humi": 41.0, "cpu": 41.2}, {"time": "2022/08/01 14:37:48", "temp": 25.0, "humi": 39.0, "cpu": 41.2}, {"time": "2022/08/01 14:38:02", "temp": 25.0, "humi": 39.0, "cpu": 41.2}]
@endjson

PlantUML version 1.2022.6(Wed Jun 22 02:34:49 JST 2022)
(GPL source distribution)
Java Runtime: OpenJDK Runtime Environment
JVM: OpenJDK 64-Bit Server VM
Default Encoding: UTF-8
Language: ja
Country: JP
--></g></svg>